# 3ds Max Wavefront OBJ Exporter v0.97b - (c)2007 guruware
# File Created: 26.01.2019 15:41:22

mtllib papeprs.mtl

#
# object Plane001
#

v  -0.0453 0.0065 0.0732
v  0.0000 0.0065 0.0732
v  0.0000 0.0065 -0.0732
v  -0.0453 0.0065 -0.0732
v  0.0453 0.0065 0.0732
v  0.0453 0.0065 -0.0732
v  -0.0511 0.0000 -0.0790
v  -0.0511 0.0000 0.0790
v  0.0000 0.0000 0.0790
v  0.0511 0.0000 0.0790
v  0.0511 0.0000 -0.0790
v  0.0000 0.0000 -0.0790
# 12 vertices

vn 0.0000 1.0000 -0.0000
vn -0.7445 0.6676 -0.0000
vn 0.0000 0.6676 0.7445
vn 0.7445 0.6676 -0.0000
vn 0.0000 0.6676 -0.7445
# 5 vertex normals

vt 0.0000 0.0000 0.0000
vt 0.5000 0.0000 0.0000
vt 0.5000 1.0000 0.0000
vt 0.0000 1.0000 0.0000
vt 1.0000 0.0000 0.0000
vt 1.0000 1.0000 0.0000
# 6 texture coords

o Plane001
g Plane001
usemtl Material__28
s 1
f 1/1/1 2/2/1 3/3/1 
f 3/3/1 4/4/1 1/1/1 
f 2/2/1 5/5/1 6/6/1 
f 6/6/1 3/3/1 2/2/1 
s off
f 7/4/2 8/1/2 1/1/2 
f 1/1/2 4/4/2 7/4/2 
f 8/1/3 9/2/3 2/2/3 
f 2/2/3 1/1/3 8/1/3 
f 9/2/3 10/5/3 5/5/3 
f 5/5/3 2/2/3 9/2/3 
f 10/5/4 11/6/4 6/6/4 
f 6/6/4 5/5/4 10/5/4 
f 11/6/5 12/3/5 3/3/5 
f 3/3/5 6/6/5 11/6/5 
f 12/3/5 7/4/5 4/4/5 
f 4/4/5 3/3/5 12/3/5 
# 16 faces

