# 3ds Max Wavefront OBJ Exporter v0.97b - (c)2007 guruware
# File Created: 26.01.2019 16:52:48

#
# object Bathroom
#

v  -10.7131 5.4976 -9.5965
v  -10.7131 5.5836 -8.1964
v  -9.3177 2.9507 -7.3459
v  -9.3177 2.9199 -8.4012
v  -7.6970 5.7112 -9.5954
v  -7.0444 2.9964 -8.4003
v  -7.0444 3.0709 -6.9174
v  -7.6970 5.9191 -7.6279
v  -10.7131 5.6946 -4.6521
v  -7.6970 6.0915 -4.6521
v  -7.0444 3.1327 -4.6744
v  -9.3177 2.9905 -4.6744
v  -7.6970 6.0137 -6.5771
v  -7.0444 3.1048 -6.1253
v  -10.9351 5.8411 -9.7867
v  -10.9351 5.9360 -8.3318
v  -7.8008 6.0766 -9.7855
v  -7.8008 6.3057 -7.7409
v  -7.8008 6.4100 -6.6489
v  -7.8008 6.4958 -4.6485
v  -10.9351 6.0583 -4.6485
v  -6.9647 3.1091 -6.1253
v  -6.9647 3.0744 -6.9174
v  -8.2889 3.0214 -6.6165
v  -10.5150 5.3431 -6.0242
v  -10.5150 5.3071 -7.0770
v  -9.7463 3.8994 -6.7488
v  -9.7463 3.9215 -5.8441
v  -9.8431 3.9141 -5.8441
v  -10.6277 5.3310 -6.0242
v  -10.6277 5.2959 -7.0770
v  -9.8431 3.8926 -6.7488
# 32 vertices

vn 0.8859 0.4632 -0.0251
vn 0.8870 0.4609 -0.0283
vn 0.8835 0.4681 -0.0180
vn 0.8820 0.4711 -0.0138
vn -0.0229 0.4044 0.9143
vn -0.0292 0.4075 0.9128
vn -0.0211 0.4036 0.9147
vn -0.0138 0.4001 0.9164
vn -0.9751 -0.2211 0.0196
vn -0.9734 -0.2289 0.0115
vn -0.9743 -0.2246 0.0160
vn -0.9757 -0.2178 0.0230
vn -0.0008 0.0076 -1.0000
vn -0.0010 0.0073 -1.0000
vn -0.0007 0.0077 -1.0000
vn -0.0005 0.0080 -1.0000
vn -0.9763 -0.2163 0.0074
vn -0.9759 -0.2183 0.0042
vn -0.9761 -0.2172 0.0058
vn -0.9765 -0.2154 0.0087
vn 0.8514 0.5233 -0.0341
vn 0.8476 0.5297 -0.0326
vn -0.0354 0.4664 0.8839
vn -0.0325 0.4541 0.8904
vn -0.9654 -0.2592 0.0290
vn -0.9674 -0.2520 0.0266
vn -0.9672 -0.2527 0.0241
vn -0.9681 -0.2496 0.0225
vn -0.9678 -0.2516 0.0108
vn -0.9685 -0.2488 0.0101
vn -0.0012 0.0085 -1.0000
vn -0.0012 0.0091 -1.0000
vn 0.8533 0.5211 -0.0173
vn 0.8488 0.5284 -0.0165
vn -0.0524 0.9977 -0.0428
vn -0.0429 0.9981 -0.0438
vn -0.0436 0.9981 -0.0437
vn -0.0530 0.9977 -0.0427
vn -0.0581 0.9982 -0.0149
vn -0.0624 0.9979 -0.0172
vn -0.0593 0.9981 -0.0192
vn -0.0500 0.9978 -0.0427
vn -0.0518 0.9974 -0.0501
vn -0.0336 0.9987 -0.0375
vn -0.0479 0.9984 -0.0292
vn 0.8463 0.5323 -0.0182
vn 0.8413 0.5403 -0.0169
vn 0.8829 0.4596 -0.0966
vn 0.8886 0.4566 -0.0444
vn 0.8794 0.4761 0.0050
vn 0.8881 0.4580 0.0391
vn 0.9130 0.4078 -0.0099
vn 0.9099 0.4149 -0.0062
vn 0.0127 -0.1192 -0.9928
vn 0.0093 -0.1208 -0.9926
vn 0.0094 -0.1207 -0.9926
vn 0.0129 -0.1191 -0.9928
vn 0.1066 -0.9937 0.0331
vn 0.1072 -0.9937 0.0331
vn 0.0988 -0.9945 0.0340
vn 0.0982 -0.9946 0.0341
vn -0.0157 0.2193 0.9755
vn -0.0213 0.2159 0.9762
vn -0.0211 0.2161 0.9761
vn -0.0154 0.2195 0.9755
vn -0.0705 0.9972 -0.0236
vn -0.0700 0.9973 -0.0236
vn -0.0760 0.9968 -0.0242
vn -0.0765 0.9968 -0.0243
# 69 vertex normals

vt 0.6117 0.6589 0.0000
vt 0.6077 0.6629 0.0000
vt 0.6015 0.6470 0.0000
vt 0.6045 0.6441 0.0000
vt 0.6150 0.6398 0.0000
vt 0.6068 0.6299 0.0000
vt 0.5724 0.6753 0.0000
vt 0.5750 0.6560 0.0000
vt 0.5796 0.6552 0.0000
vt 0.5786 0.6750 0.0000
vt 0.5975 0.6730 0.0000
vt 0.5879 0.6736 0.0000
vt 0.5867 0.6537 0.0000
vt 0.5938 0.6542 0.0000
vt 0.5819 0.6747 0.0000
vt 0.5821 0.6547 0.0000
vt 0.6127 0.6610 0.0000
vt 0.6086 0.6651 0.0000
vt 0.6162 0.6412 0.0000
vt 0.5784 0.6777 0.0000
vt 0.5720 0.6779 0.0000
vt 0.5818 0.6774 0.0000
vt 0.5881 0.6763 0.0000
vt 0.5981 0.6756 0.0000
vt 0.1142 0.1193 0.0000
vt 0.0804 0.0735 0.0000
vt 0.0804 0.0746 0.0000
vt 0.0804 0.0935 0.0000
vt 0.3104 0.0201 0.0000
vt 0.9192 0.0748 0.0000
vt 0.4608 0.2294 0.0000
vt 0.9606 0.3786 0.0000
vt 0.6036 0.4301 0.0000
vt 0.3883 0.4237 0.0000
vt 0.0358 0.3569 0.0000
vt 0.0501 0.0494 0.0000
vt 0.6010 0.6668 0.0000
vt 0.6040 0.6638 0.0000
vt 0.6011 0.6549 0.0000
vt 0.5985 0.6574 0.0000
vt 0.1567 0.4177 0.0000
vt 0.1417 0.4225 0.0000
vt 0.1404 0.4137 0.0000
vt 0.1551 0.4050 0.0000
vt 0.1690 0.3942 0.0000
vt 0.1703 0.4046 0.0000
vt 0.1835 0.3871 0.0000
vt 0.1834 0.3836 0.0000
vt 0.1305 0.4349 0.0000
vt 0.1303 0.4314 0.0000
# 50 texture coords

o Bathroom
g Bathroom
s 2
f 1/1/1 2/2/2 3/3/3 
f 3/3/3 4/4/4 1/1/1 
s 4
f 5/5/5 1/1/6 4/4/7 
f 4/4/7 6/6/8 5/5/5 
s 2
f 5/7/9 6/8/10 7/9/11 
f 7/9/11 8/10/12 5/7/9 
s 4
f 9/11/13 10/12/14 11/13/15 
f 11/13/15 12/14/16 9/11/13 
s 2
f 13/15/17 14/16/18 11/13/19 
f 11/13/19 10/12/20 13/15/17 
s off
f 15/17/21 16/18/21 2/2/21 
f 2/2/22 1/1/22 15/17/22 
f 17/19/23 15/17/23 1/1/23 
f 1/1/24 5/5/24 17/19/24 
f 18/20/25 17/21/25 5/7/25 
f 5/7/26 8/10/26 18/20/26 
f 19/22/27 18/20/27 8/10/27 
f 8/10/28 13/15/28 19/22/28 
f 20/23/29 19/22/29 13/15/29 
f 13/15/30 10/12/30 20/23/30 
f 21/24/31 20/23/31 10/12/31 
f 10/12/32 9/11/32 21/24/32 
f 16/18/33 21/24/33 9/11/33 
f 9/11/34 2/2/34 16/18/34 
s 16
f 22/25/35 23/26/36 7/27/37 
f 7/27/37 14/28/38 22/25/35 
s off
f 3/29/39 12/30/39 24/31/39 
f 12/30/40 11/32/40 24/31/40 
f 11/32/41 14/33/41 24/31/41 
f 14/33/42 7/34/42 24/31/42 
f 7/34/43 6/35/43 24/31/43 
f 6/35/44 4/36/44 24/31/44 
f 4/36/45 3/29/45 24/31/45 
f 25/37/46 26/38/46 2/2/46 
f 2/2/47 9/11/47 25/37/47 
f 26/38/48 27/39/48 3/3/48 
f 3/3/49 2/2/49 26/38/49 
f 28/40/50 25/37/50 9/11/50 
f 9/11/51 12/14/51 28/40/51 
f 27/39/52 28/40/52 12/14/52 
f 12/14/53 3/3/53 27/39/53 
s 1
f 25/41/54 28/42/55 29/43/56 
f 29/43/56 30/44/57 25/41/54 
s 2
f 25/41/58 30/44/59 31/45/60 
f 31/45/60 26/46/61 25/41/58 
s 1
f 27/47/62 26/46/63 31/45/64 
f 31/45/64 32/48/65 27/47/62 
s 2
f 27/49/66 32/50/67 29/43/68 
f 29/43/68 28/42/69 27/49/66 
# 49 faces

