# 3ds Max Wavefront OBJ Exporter v0.97b - (c)2007 guruware
# File Created: 27.01.2019 15:03:14

#
# object CabDoor1
#

v  0.0274 -0.0229 -0.0498
v  0.0274 -0.0229 -0.8763
v  0.0140 -0.0117 -0.8881
v  0.0140 -0.0117 -0.0254
v  0.1250 -0.8451 -0.1091
v  0.1384 -0.8339 -0.1312
v  0.1384 -0.8339 -0.9238
v  0.1250 -0.8451 -0.9369
v  0.1110 -0.8568 -0.0860
v  0.0000 0.0000 -0.0000
v  0.0000 0.0000 -0.8869
v  0.1110 -0.8568 -0.9371
# 12 vertices

vn 0.6410 0.7675 -0.0000
vn 0.8873 0.0725 0.4554
vn 0.8394 0.0607 0.5401
vn 0.9908 0.1356 -0.0000
vn 0.6410 -0.7675 -0.0000
vn -0.9917 -0.1285 -0.0000
vn 0.8869 0.0691 0.4567
vn 0.8402 0.0578 0.5392
vn 0.6354 0.1292 -0.7613
vn 0.7163 0.1381 -0.6840
vn -0.0421 0.0530 -0.9977
vn -0.0338 0.0539 -0.9980
# 12 vertex normals

vt 0.4627 0.4845 0.0000
vt 0.4730 0.4845 0.0000
vt 0.4730 0.4849 0.0000
vt 0.4624 0.4850 0.0000
vt 0.4634 0.4544 0.0000
vt 0.4636 0.4547 0.0000
vt 0.4735 0.4547 0.0000
vt 0.4736 0.4543 0.0000
vt 0.4631 0.4540 0.0000
vt 0.4621 0.4854 0.0000
vt 0.4730 0.4854 0.0000
vt 0.4736 0.4539 0.0000
# 12 texture coords

o CabDoor1
g CabDoor1
s off
f 1/1/1 2/2/1 3/3/1 
f 3/3/1 4/4/1 1/1/1 
f 1/1/2 4/4/2 5/5/2 
f 5/5/3 6/6/3 1/1/3 
s 16
f 2/2/4 1/1/4 6/6/4 
f 6/6/4 7/7/4 2/2/4 
s off
f 6/6/5 5/5/5 8/8/5 
f 8/8/5 7/7/5 6/6/5 
f 9/9/6 10/10/6 11/11/6 
f 11/11/6 12/12/6 9/9/6 
f 11/11/1 10/10/1 4/4/1 
f 4/4/1 3/3/1 11/11/1 
f 4/4/7 10/10/7 9/9/7 
f 9/9/8 5/5/8 4/4/8 
f 5/5/5 9/9/5 12/12/5 
f 12/12/5 8/8/5 5/5/5 
f 7/7/9 8/8/9 3/3/9 
f 3/3/10 2/2/10 7/7/10 
f 12/12/11 11/11/11 3/3/11 
f 3/3/12 8/8/12 12/12/12 
# 20 faces

