# 3ds Max Wavefront OBJ Exporter v0.97b - (c)2007 guruware
# File Created: 27.01.2019 15:03:33

#
# object CabDoor1
#

v  0.0274 -0.0229 0.0471
v  0.0274 -0.0229 0.9136
v  0.1384 -0.8339 0.8661
v  0.1384 -0.8339 0.0351
v  0.1250 -0.8451 0.8763
v  0.1250 -0.8451 0.0117
v  0.0140 -0.0117 0.0241
v  0.0000 0.0000 -0.0000
v  0.1110 -0.8568 -0.0127
v  0.1110 -0.8568 0.8761
v  0.0000 0.0000 0.9263
v  0.0140 -0.0117 0.9251
# 12 vertices

vn 0.9908 0.1356 -0.0000
vn 0.6410 -0.7675 -0.0000
vn 0.8356 0.1193 -0.5362
vn 0.8831 0.1276 -0.4516
vn -0.9917 -0.1285 -0.0000
vn 0.6410 0.7675 -0.0000
vn 0.8825 0.1211 -0.4544
vn 0.5874 0.0309 0.8087
vn 0.6728 0.0489 0.7382
vn 0.0339 -0.0540 0.9980
vn 0.0422 -0.0528 0.9977
# 11 vertex normals

vt 0.4838 0.4844 0.0000
vt 0.4730 0.4845 0.0000
vt 0.4735 0.4547 0.0000
vt 0.4839 0.4546 0.0000
vt 0.4736 0.4543 0.0000
vt 0.4842 0.4543 0.0000
vt 0.4841 0.4849 0.0000
vt 0.4844 0.4853 0.0000
vt 0.4845 0.4539 0.0000
vt 0.4736 0.4539 0.0000
vt 0.4730 0.4854 0.0000
vt 0.4730 0.4849 0.0000
# 12 texture coords

o CabDoor1
g CabDoor1
s 16
f 1/1/1 2/2/1 3/3/1 
f 3/3/1 4/4/1 1/1/1 
s off
f 4/4/2 3/3/2 5/5/2 
f 5/5/2 6/6/2 4/4/2 
f 4/4/3 6/6/3 7/7/3 
f 7/7/4 1/1/4 4/4/4 
f 8/8/5 9/9/5 10/10/5 
f 10/10/5 11/11/5 8/8/5 
f 1/1/6 7/7/6 12/12/6 
f 12/12/6 2/2/6 1/1/6 
f 10/10/2 9/9/2 6/6/2 
f 6/6/2 5/5/2 10/10/2 
f 9/9/7 8/8/7 7/7/7 
f 7/7/3 6/6/3 9/9/3 
f 7/7/6 8/8/6 11/11/6 
f 11/11/6 12/12/6 7/7/6 
f 12/12/8 5/5/8 3/3/8 
f 3/3/9 2/2/9 12/12/9 
f 11/11/10 10/10/10 5/5/10 
f 5/5/11 12/12/11 11/11/11 
# 20 faces

