# 3ds Max Wavefront OBJ Exporter v0.97b - (c)2007 guruware
# File Created: 27.01.2019 14:52:37

#
# object Object001
#

v  0.0274 -0.0229 -1.7661
v  0.0274 -0.0229 -0.0498
v  0.1384 -0.8339 -0.1312
v  0.1384 -0.8339 -1.7781
v  0.0000 0.0000 -1.8132
v  0.0000 0.0000 -0.0000
v  0.1110 -0.8568 -0.0860
v  0.1110 -0.8568 -1.8259
# 8 vertices

vn 0.9908 0.1356 -0.0000
vn 0.6410 0.7675 -0.0000
vn 0.8878 0.0760 0.4540
vn 0.8410 0.0550 0.5382
vn 0.6410 -0.7675 -0.0000
vn 0.8346 0.1222 -0.5371
vn 0.8825 0.1211 -0.4544
vn -0.9917 -0.1285 -0.0000
# 8 vertex normals

vt 0.4838 0.4844 0.0000
vt 0.4627 0.4845 0.0000
vt 0.4636 0.4547 0.0000
vt 0.4839 0.4546 0.0000
vt 0.4844 0.4853 0.0000
vt 0.4621 0.4854 0.0000
vt 0.4631 0.4540 0.0000
vt 0.4845 0.4539 0.0000
# 8 texture coords

o Object001
g Object001
s 16
f 1/1/1 2/2/1 3/3/1 
f 3/3/1 4/4/1 1/1/1 
s off
f 2/2/2 1/1/2 5/5/2 
f 5/5/2 6/6/2 2/2/2 
f 3/3/3 2/2/3 6/6/3 
f 6/6/4 7/7/4 3/3/4 
f 4/4/5 3/3/5 7/7/5 
f 7/7/5 8/8/5 4/4/5 
f 1/1/6 4/4/6 8/8/6 
f 8/8/7 5/5/7 1/1/7 
f 5/5/8 8/8/8 7/7/8 
f 7/7/8 6/6/8 5/5/8 
# 12 faces

