# 3ds Max Wavefront OBJ Exporter v0.97b - (c)2007 guruware
# File Created: 26.01.2019 16:50:58

#
# object Chair
#

v  -0.0156 0.4508 0.0185
v  -0.0357 0.4505 -0.0060
v  -0.0056 0.4509 -0.0000
v  0.0118 0.4511 0.0240
v  -0.0357 0.4806 -0.0060
v  -0.0018 0.4802 -0.0000
v  -0.0018 0.4802 -0.0224
v  -0.0357 0.4806 -0.0274
v  0.0118 0.4800 0.0240
v  -0.0156 0.4803 0.0185
v  0.4152 0.4561 0.0478
v  0.4152 0.4749 0.0478
v  0.4152 0.4749 0.0840
v  0.4152 0.4561 0.0840
v  0.3951 0.4559 0.1005
v  0.3951 0.4752 0.1005
v  -0.0357 0.4505 -0.0274
v  -0.0056 0.4509 -0.0224
v  0.3340 0.4551 0.0678
v  0.3211 0.4550 0.0858
v  0.3340 0.4760 0.0678
v  0.3340 0.4760 0.0343
v  0.3211 0.4761 0.0858
v  0.2989 0.4547 0.0608
v  0.2892 0.4546 0.0794
v  0.2989 0.4764 0.0608
v  0.2989 0.4764 0.0284
v  0.2892 0.4765 0.0794
v  0.2989 0.4764 -0.1208
v  0.0236 0.4798 -0.1208
v  0.0269 0.4798 -0.0176
v  0.4152 0.4561 -0.1208
v  0.4152 0.4749 -0.1208
v  -0.0357 0.4505 -0.1208
v  -0.0056 0.4509 -0.1208
v  0.3340 0.4760 -0.1208
v  0.3340 0.4551 0.0343
v  0.3396 0.0042 0.0343
v  0.3396 0.0042 0.0678
v  0.3045 0.0038 0.0608
v  0.3045 0.0038 0.0284
v  0.0231 0.4513 0.0057
v  0.0380 0.4514 0.0292
v  -0.0072 1.0645 0.0669
v  0.0399 1.0625 0.0833
v  0.0476 1.0667 0.0307
v  -0.0077 1.0675 0.0244
v  0.0380 0.4797 0.0292
v  0.0269 0.4798 0.0057
v  0.0287 0.0004 -0.0176
v  0.0287 0.0004 0.0057
v  -0.0000 -0.0000 -0.0000
v  -0.0000 -0.0000 -0.0224
v  0.2989 0.4547 0.0284
v  0.0231 0.4513 -0.0176
v  -0.0357 0.4806 -0.1208
v  0.3340 0.4551 -0.1208
v  0.2989 0.4547 -0.1208
v  -0.0051 0.4802 -0.1208
v  0.0231 0.4513 -0.1208
v  -0.0156 0.4508 -0.2901
v  0.0118 0.4511 -0.2956
v  -0.0056 0.4509 -0.2716
v  -0.0357 0.4505 -0.2656
v  -0.0357 0.4806 -0.2656
v  -0.0357 0.4806 -0.2442
v  -0.0018 0.4802 -0.2492
v  -0.0018 0.4802 -0.2716
v  -0.0156 0.4803 -0.2901
v  0.0118 0.4800 -0.2956
v  0.4152 0.4561 -0.3194
v  0.4152 0.4561 -0.3556
v  0.4152 0.4749 -0.3556
v  0.4152 0.4749 -0.3194
v  0.3951 0.4559 -0.3721
v  0.3951 0.4752 -0.3721
v  -0.0056 0.4509 -0.2492
v  -0.0357 0.4505 -0.2442
v  0.3340 0.4551 -0.3394
v  0.3211 0.4550 -0.3574
v  0.3340 0.4760 -0.3394
v  0.3340 0.4760 -0.3059
v  0.3211 0.4761 -0.3574
v  0.2989 0.4547 -0.3324
v  0.2892 0.4546 -0.3510
v  0.2989 0.4764 -0.3324
v  0.2989 0.4764 -0.3000
v  0.2892 0.4765 -0.3510
v  0.2989 0.4764 -0.1508
v  0.0269 0.4798 -0.2540
v  0.0236 0.4798 -0.1508
v  0.4152 0.4561 -0.1508
v  0.4152 0.4749 -0.1508
v  -0.0056 0.4509 -0.1508
v  -0.0357 0.4505 -0.1508
v  0.3340 0.4760 -0.1508
v  0.3340 0.4551 -0.3059
v  0.3396 0.0042 -0.3059
v  0.3045 0.0038 -0.3000
v  0.3045 0.0038 -0.3324
v  0.3396 0.0042 -0.3394
v  0.0231 0.4513 -0.2773
v  0.0380 0.4514 -0.3008
v  -0.0072 1.0645 -0.3385
v  -0.0077 1.0675 -0.2960
v  0.0476 1.0667 -0.3023
v  0.0399 1.0625 -0.3549
v  0.0380 0.4797 -0.3008
v  0.0269 0.4798 -0.2773
v  0.0287 0.0004 -0.2540
v  -0.0000 -0.0000 -0.2492
v  -0.0000 -0.0000 -0.2716
v  0.0287 0.0004 -0.2773
v  0.2989 0.4547 -0.3000
v  0.0231 0.4513 -0.2540
v  -0.0357 0.4806 -0.1508
v  0.3340 0.4551 -0.1508
v  0.2989 0.4547 -0.1508
v  -0.0051 0.4802 -0.1508
v  0.0231 0.4513 -0.1508
v  0.0510 1.0665 -0.1206
v  0.0510 1.0665 -0.1510
v  -0.0180 1.0672 -0.1515
v  -0.0180 1.0672 -0.1201
v  0.0260 0.9308 0.0633
v  0.0103 0.9310 0.0552
v  0.0260 0.9308 0.0305
v  0.0103 0.9310 0.0237
v  0.0103 0.9310 -0.2953
v  0.0103 0.9310 -0.3268
v  0.0260 0.9308 -0.3021
v  0.0260 0.9308 -0.3348
v  0.0292 0.9307 -0.1208
v  0.0005 0.9311 -0.1208
v  0.0292 0.9307 -0.1508
v  0.0005 0.9311 -0.1508
v  -0.0138 0.9313 0.0699
v  0.0408 0.9306 0.0874
v  0.0543 0.9305 0.0308
v  -0.0179 0.9314 0.0247
v  -0.0138 0.9313 -0.3415
v  -0.0179 0.9314 -0.2963
v  0.0543 0.9305 -0.3024
v  0.0408 0.9306 -0.3590
v  0.0575 0.9304 -0.1205
v  0.0575 0.9304 -0.1511
v  -0.0277 0.9315 -0.1518
v  -0.0277 0.9315 -0.1198
# 148 vertices

vn 0.0125 -0.9999 0.0000
vn 0.0110 0.9999 0.0004
vn 0.0115 0.9999 0.0013
vn 0.0116 0.9999 -0.0003
vn 0.0112 0.9999 -0.0002
vn -0.1958 0.0000 0.9806
vn -0.1958 -0.0000 0.9806
vn 1.0000 0.0000 -0.0000
vn 0.6341 0.0000 0.7732
vn -0.7733 0.0000 0.6341
vn 0.0114 0.9999 0.0017
vn 0.0120 0.9999 0.0022
vn 0.0125 -0.9999 -0.0000
vn 0.0125 0.9999 -0.0000
vn 0.0125 0.9999 0.0000
vn 0.0126 0.9999 -0.0000
vn 0.0125 0.9999 -0.0003
vn 0.0126 0.9999 -0.0002
vn -1.0000 0.0000 -0.0000
vn 0.0103 0.9970 0.0769
vn 0.0138 0.9965 0.0822
vn 0.0107 0.9969 0.0775
vn 0.0070 0.9974 0.0719
vn 0.0122 0.9999 0.0021
vn 0.0123 0.9999 0.0014
vn -0.1958 -0.0024 0.9806
vn -0.9999 -0.0125 -0.0000
vn 0.1645 0.0021 -0.9864
vn 0.9999 0.0125 -0.0000
vn 0.0123 0.9999 -0.0002
vn 0.0123 0.9999 -0.0000
vn 0.0110 0.9999 -0.0004
vn 0.0112 0.9999 0.0002
vn 0.0116 0.9999 0.0003
vn 0.0115 0.9999 -0.0013
vn -0.1958 0.0000 -0.9806
vn -0.1958 -0.0000 -0.9806
vn 0.6341 0.0000 -0.7732
vn -0.7733 0.0000 -0.6341
vn 0.0114 0.9999 -0.0017
vn 0.0120 0.9999 -0.0022
vn 0.0126 0.9999 0.0000
vn 0.0126 0.9999 0.0002
vn 0.0125 0.9999 0.0003
vn 0.0102 0.9970 -0.0769
vn 0.0070 0.9974 -0.0720
vn 0.0107 0.9969 -0.0775
vn 0.0138 0.9965 -0.0821
vn 0.0123 0.9999 -0.0014
vn 0.0122 0.9999 -0.0021
vn -0.1958 -0.0024 -0.9806
vn 0.1645 0.0021 0.9864
vn 0.0123 0.9999 0.0002
vn 0.0104 0.9999 -0.0000
vn -0.1958 -0.1244 0.9727
vn -0.4553 -0.0961 0.8851
vn 1.0000 0.0019 -0.0000
vn 0.1649 0.0959 -0.9816
vn 0.3930 0.0982 -0.9143
vn -0.9996 0.0269 -0.0000
vn 0.1649 0.1048 0.9807
vn 0.3934 0.0830 0.9156
vn 1.0000 0.0019 0.0000
vn -0.1959 -0.1139 -0.9740
vn -0.4546 -0.1135 -0.8834
vn -0.0000 0.0000 1.0000
vn 0.9999 -0.0125 -0.0000
vn -0.0000 0.0000 -1.0000
vn -0.9999 0.0125 -0.0000
vn -0.3043 0.0275 0.9522
vn -0.3270 0.0376 0.9443
vn 0.9715 0.0475 0.2321
vn 0.9892 0.0109 0.1462
vn -0.9945 0.0514 0.0908
vn -0.9970 0.0747 0.0180
vn -0.9931 0.0745 -0.0907
vn -0.9986 0.0499 -0.0162
vn 0.9725 0.0134 -0.2324
vn 0.9877 0.0483 -0.1489
vn -0.3040 0.0367 -0.9520
vn -0.3274 0.0271 -0.9445
vn 0.9989 0.0478 -0.0000
vn -0.9974 0.0717 -0.0000
vn -0.0126 -0.9999 -0.0003
vn -0.0125 -0.9999 -0.0003
vn 0.9986 0.0483 -0.0215
vn 0.9986 0.0487 -0.0219
vn 0.9986 0.0482 -0.0215
vn 0.9986 0.0478 -0.0211
vn 0.0141 0.9999 0.0028
vn 0.0156 0.9999 0.0035
vn 0.0116 0.9999 0.0017
vn 0.0104 0.9999 0.0012
vn -0.9949 0.0732 -0.0688
vn -0.9949 0.0746 -0.0675
vn -0.9949 0.0731 -0.0689
vn -0.9949 0.0717 -0.0703
vn -0.0126 -0.9999 0.0003
vn -0.0125 -0.9999 0.0003
vn -0.9949 0.0732 0.0689
vn -0.9947 0.0746 0.0703
vn -0.9949 0.0731 0.0688
vn -0.9951 0.0717 0.0675
vn 0.0141 0.9999 -0.0016
vn 0.0153 0.9999 -0.0011
vn 0.0115 0.9999 -0.0027
vn 0.0104 0.9999 -0.0031
vn 0.9986 0.0483 0.0215
vn 0.9986 0.0487 0.0211
vn 0.9986 0.0482 0.0215
vn 0.9986 0.0478 0.0219
vn -0.0125 -0.9999 -0.0000
vn -0.0125 -0.9999 0.0000
# 113 vertex normals

vt 0.1104 0.9424 0.0000
vt 0.1122 0.9431 0.0000
vt 0.1105 0.9439 0.0000
vt 0.1089 0.9430 0.0000
vt 0.0693 0.9757 0.0000
vt 0.0705 0.9744 0.0000
vt 0.0710 0.9756 0.0000
vt 0.0696 0.9770 0.0000
vt 0.0689 0.9714 0.0000
vt 0.0703 0.9727 0.0000
vt 0.0695 0.9740 0.0000
vt 0.0679 0.9734 0.0000
vt 0.0895 0.9578 0.0000
vt 0.0887 0.9584 0.0000
vt 0.0880 0.9568 0.0000
vt 0.0885 0.9562 0.0000
vt 0.0881 0.9549 0.0000
vt 0.0871 0.9557 0.0000
vt 0.0677 0.9760 0.0000
vt 0.1128 0.9444 0.0000
vt 0.1112 0.9453 0.0000
vt 0.0917 0.9530 0.0000
vt 0.0915 0.9513 0.0000
vt 0.0846 0.9592 0.0000
vt 0.0853 0.9612 0.0000
vt 0.0865 0.9546 0.0000
vt 0.0835 0.9584 0.0000
vt 0.0829 0.9572 0.0000
vt 0.0936 0.9517 0.0000
vt 0.0934 0.9501 0.0000
vt 0.0830 0.9606 0.0000
vt 0.0838 0.9626 0.0000
vt 0.0821 0.9598 0.0000
vt 0.0813 0.9585 0.0000
vt 0.0878 0.9710 0.0000
vt 0.0749 0.9807 0.0000
vt 0.0722 0.9744 0.0000
vt 0.0939 0.9665 0.0000
vt 0.0931 0.9671 0.0000
vt 0.0680 0.9776 0.0000
vt 0.1156 0.9502 0.0000
vt 0.1141 0.9513 0.0000
vt 0.0894 0.9699 0.0000
vt 0.0930 0.9546 0.0000
vt 0.0911 0.9461 0.0000
vt 0.0972 0.9469 0.0000
vt 0.0943 0.9501 0.0000
vt 0.0885 0.9493 0.0000
vt 0.1089 0.9446 0.0000
vt 0.1075 0.9437 0.0000
vt 0.0942 0.9799 0.0000
vt 0.0894 0.9806 0.0000
vt 0.0897 0.9773 0.0000
vt 0.0946 0.9773 0.0000
vt 0.0701 0.9698 0.0000
vt 0.0713 0.9713 0.0000
vt 0.0715 0.9730 0.0000
vt 0.0785 0.9481 0.0000
vt 0.0820 0.9473 0.0000
vt 0.0827 0.9503 0.0000
vt 0.0793 0.9511 0.0000
vt 0.0947 0.9536 0.0000
vt 0.1096 0.9460 0.0000
vt 0.0807 0.9941 0.0000
vt 0.0743 0.9933 0.0000
vt 0.1008 0.9509 0.0000
vt 0.0685 0.9925 0.0000
vt 0.0932 0.9958 0.0000
vt 0.0868 0.9949 0.0000
vt 0.1068 0.9517 0.0000
vt 0.1133 0.9525 0.0000
vt 0.1187 0.9921 0.0000
vt 0.1143 0.9931 0.0000
vt 0.0906 0.9485 0.0000
vt 0.0949 0.9475 0.0000
vt 0.1109 0.9939 0.0000
vt 0.0871 0.9493 0.0000
vt 0.1065 0.9949 0.0000
vt 0.1031 0.9957 0.0000
vt 0.0720 0.9827 0.0000
vt 0.0705 0.9838 0.0000
vt 0.0976 0.9637 0.0000
vt 0.0993 0.9624 0.0000
vt 0.0735 0.9817 0.0000
vt 0.1127 0.9524 0.0000
vt 0.1196 0.9615 0.0000
vt 0.1184 0.9628 0.0000
vt 0.1185 0.9607 0.0000
vt 0.1198 0.9592 0.0000
vt 0.0766 0.9909 0.0000
vt 0.0759 0.9899 0.0000
vt 0.0775 0.9890 0.0000
vt 0.0780 0.9902 0.0000
vt 0.0795 0.9934 0.0000
vt 0.0776 0.9935 0.0000
vt 0.0778 0.9915 0.0000
vt 0.0792 0.9913 0.0000
vt 0.0988 0.9772 0.0000
vt 0.0994 0.9790 0.0000
vt 0.0988 0.9793 0.0000
vt 0.0980 0.9777 0.0000
vt 0.1001 0.9801 0.0000
vt 0.0991 0.9808 0.0000
vt 0.0757 0.9925 0.0000
vt 0.1179 0.9593 0.0000
vt 0.1192 0.9579 0.0000
vt 0.1032 0.9771 0.0000
vt 0.1043 0.9780 0.0000
vt 0.0954 0.9820 0.0000
vt 0.0944 0.9802 0.0000
vt 0.0997 0.9820 0.0000
vt 0.0961 0.9848 0.0000
vt 0.0955 0.9835 0.0000
vt 0.1050 0.9755 0.0000
vt 0.1061 0.9765 0.0000
vt 0.0937 0.9830 0.0000
vt 0.0927 0.9811 0.0000
vt 0.0944 0.9858 0.0000
vt 0.0939 0.9844 0.0000
vt 0.0886 0.9728 0.0000
vt 0.0789 0.9884 0.0000
vt 0.0758 0.9824 0.0000
vt 0.0947 0.9682 0.0000
vt 0.0939 0.9688 0.0000
vt 0.0746 0.9914 0.0000
vt 0.1150 0.9532 0.0000
vt 0.1165 0.9521 0.0000
vt 0.0902 0.9716 0.0000
vt 0.1027 0.9749 0.0000
vt 0.1196 0.9533 0.0000
vt 0.1161 0.9556 0.0000
vt 0.1156 0.9488 0.0000
vt 0.1191 0.9463 0.0000
vt 0.1173 0.9621 0.0000
vt 0.1172 0.9641 0.0000
vt 0.0966 0.9558 0.0000
vt 0.0965 0.9585 0.0000
vt 0.0916 0.9580 0.0000
vt 0.0920 0.9547 0.0000
vt 0.0811 0.9928 0.0000
vt 0.0806 0.9908 0.0000
vt 0.0795 0.9898 0.0000
vt 0.1202 0.9835 0.0000
vt 0.1170 0.9817 0.0000
vt 0.1185 0.9788 0.0000
vt 0.1217 0.9805 0.0000
vt 0.1042 0.9734 0.0000
vt 0.1166 0.9606 0.0000
vt 0.0706 0.9837 0.0000
vt 0.1171 0.9700 0.0000
vt 0.1177 0.9775 0.0000
vt 0.0711 0.9912 0.0000
vt 0.0691 0.9626 0.0000
vt 0.0696 0.9693 0.0000
vt 0.1166 0.9630 0.0000
vt 0.0701 0.9767 0.0000
vt 0.0725 0.9441 0.0000
vt 0.1150 0.9855 0.0000
vt 0.0705 0.9479 0.0000
vt 0.1136 0.9885 0.0000
vt 0.0690 0.9509 0.0000
vt 0.1118 0.9923 0.0000
vt 0.0672 0.9547 0.0000
vt 0.0739 0.9412 0.0000
vt 0.0714 0.9858 0.0000
vt 0.0729 0.9846 0.0000
vt 0.0984 0.9655 0.0000
vt 0.1001 0.9642 0.0000
vt 0.0744 0.9835 0.0000
vt 0.1136 0.9542 0.0000
vt 0.0902 0.9685 0.0000
vt 0.0904 0.9667 0.0000
vt 0.0964 0.9670 0.0000
vt 0.0963 0.9688 0.0000
vt 0.0887 0.9443 0.0000
vt 0.0960 0.9450 0.0000
vt 0.0708 0.9925 0.0000
vt 0.0664 0.9920 0.0000
vt 0.1019 0.9452 0.0000
vt 0.0791 0.9928 0.0000
vt 0.1092 0.9458 0.0000
vt 0.0834 0.9931 0.0000
vt 0.1146 0.9466 0.0000
vt 0.0910 0.9942 0.0000
vt 0.1059 0.9475 0.0000
vt 0.1187 0.9518 0.0000
vt 0.1083 0.9967 0.0000
vt 0.0902 0.9946 0.0000
vt 0.0839 0.9412 0.0000
vt 0.0872 0.9420 0.0000
vt 0.0674 0.9846 0.0000
vt 0.0643 0.9828 0.0000
vt 0.1016 0.9459 0.0000
vt 0.0849 0.9933 0.0000
vt 0.1219 0.9681 0.0000
vt 0.1210 0.9732 0.0000
vt 0.0752 0.9487 0.0000
vt 0.0760 0.9436 0.0000
vt 0.1201 0.9786 0.0000
vt 0.0742 0.9541 0.0000
vt 0.1192 0.9838 0.0000
vt 0.0733 0.9593 0.0000
vt 0.1183 0.9891 0.0000
vt 0.0724 0.9646 0.0000
vt 0.0967 0.9884 0.0000
vt 0.0912 0.9890 0.0000
vt 0.0773 0.9804 0.0000
vt 0.0778 0.9769 0.0000
vt 0.1072 0.9783 0.0000
vt 0.1068 0.9811 0.0000
vt 0.1093 0.9557 0.0000
vt 0.1091 0.9585 0.0000
vt 0.0797 0.9573 0.0000
vt 0.0799 0.9538 0.0000
vt 0.0954 0.9465 0.0000
vt 0.1007 0.9476 0.0000
vt 0.0781 0.9680 0.0000
vt 0.0783 0.9662 0.0000
vt 0.1085 0.9674 0.0000
vt 0.1083 0.9694 0.0000
vt 0.0757 0.9573 0.0000
vt 0.0772 0.9570 0.0000
vt 0.0757 0.9661 0.0000
vt 0.0731 0.9658 0.0000
vt 0.0753 0.9770 0.0000
vt 0.0739 0.9766 0.0000
vt 0.0729 0.9679 0.0000
vt 0.0755 0.9679 0.0000
vt 0.0952 0.9900 0.0000
vt 0.0935 0.9900 0.0000
vt 0.0756 0.9790 0.0000
vt 0.0780 0.9550 0.0000
vt 0.0979 0.9458 0.0000
vt 0.0996 0.9459 0.0000
vt 0.1116 0.9566 0.0000
vt 0.1118 0.9585 0.0000
vt 0.1111 0.9676 0.0000
vt 0.1109 0.9695 0.0000
vt 0.1098 0.9785 0.0000
vt 0.1093 0.9805 0.0000
# 240 texture coords

o Chair
g Chair
s 1
f 1/1/1 2/2/1 3/3/1 
f 3/3/1 4/4/1 1/1/1 
f 5/5/2 6/6/3 7/7/4 
f 7/7/4 8/8/5 5/5/2 
s 2
f 4/9/6 9/10/7 10/11/6 
f 10/11/6 1/12/6 4/9/6 
f 11/13/8 12/14/8 13/15/8 
f 13/15/8 14/16/8 11/13/8 
s 4
f 15/17/9 14/16/9 13/15/9 
f 13/15/9 16/18/9 15/17/9 
f 10/11/10 5/5/10 2/19/10 
f 2/19/10 1/12/10 10/11/10 
s 1
f 10/11/11 9/10/12 6/6/3 
f 6/6/3 5/5/2 10/11/11 
f 2/2/1 17/20/13 18/21/13 
f 18/21/13 3/3/1 2/2/1 
f 19/22/1 14/16/13 15/17/13 
f 15/17/13 20/23/1 19/22/1 
f 21/24/14 13/15/15 12/14/14 
f 12/14/14 22/25/14 21/24/14 
s 2
f 15/26/6 16/18/6 23/27/6 
f 23/27/6 20/28/6 15/26/6 
s 1
f 16/18/15 13/15/15 21/24/14 
f 21/24/14 23/27/14 16/18/15 
f 24/29/1 19/22/1 20/23/1 
f 20/23/1 25/30/1 24/29/1 
f 26/31/15 21/24/14 22/25/14 
f 22/25/14 27/32/16 26/31/15 
s 2
f 20/28/6 23/27/6 28/33/6 
f 28/33/6 25/34/7 20/28/6 
s 1
f 23/27/14 21/24/14 26/31/15 
f 26/31/15 28/33/14 23/27/14 
f 29/35/14 30/36/17 31/37/18 
f 31/37/18 27/32/16 29/35/14 
s 2
f 32/38/8 33/39/8 12/14/8 
f 12/14/8 11/13/8 32/38/8 
f 2/19/19 5/5/19 8/8/19 
f 8/8/19 17/40/19 2/19/19 
s 1
f 17/20/13 34/41/13 35/42/13 
f 35/42/13 18/21/13 17/20/13 
f 33/39/14 36/43/14 22/25/14 
f 22/25/14 12/14/14 33/39/14 
f 11/13/13 14/16/13 19/22/1 
f 19/22/1 37/44/13 11/13/13 
f 36/43/14 29/35/14 27/32/16 
f 27/32/16 22/25/14 36/43/14 
f 38/45/13 39/46/13 40/47/13 
f 40/47/13 41/48/13 38/45/13 
f 42/49/1 43/50/1 4/4/1 
f 4/4/1 3/3/1 42/49/1 
f 44/51/20 45/52/21 46/53/22 
f 46/53/22 47/54/23 44/51/20 
s 2
f 43/55/7 48/56/7 9/10/7 
f 9/10/7 4/9/6 43/55/7 
s 1
f 9/10/12 48/56/24 49/57/25 
f 49/57/25 6/6/3 9/10/12 
f 50/58/13 51/59/13 52/60/13 
f 52/60/13 53/61/13 50/58/13 
f 24/29/1 25/30/1 43/50/1 
f 43/50/1 42/49/1 24/29/1 
f 49/57/25 26/31/15 27/32/16 
f 27/32/16 31/37/18 49/57/25 
s 2
f 25/34/7 28/33/6 48/56/7 
f 48/56/7 43/55/7 25/34/7 
s 1
f 48/56/24 28/33/14 26/31/15 
f 26/31/15 49/57/25 48/56/24 
f 54/62/13 24/29/1 42/49/1 
f 42/49/1 55/63/13 54/62/13 
s 2
f 19/64/26 24/65/26 40/47/26 
f 40/47/26 39/66/26 19/64/26 
s 4
f 24/65/27 54/67/27 41/48/27 
f 41/48/27 40/47/27 24/65/27 
s 2
f 54/68/28 37/69/28 38/70/28 
f 38/70/28 41/71/28 54/68/28 
s 4
f 37/69/29 19/64/29 39/66/29 
f 39/66/29 38/70/29 37/69/29 
s 2
f 18/72/28 55/73/28 50/74/28 
f 50/74/28 53/75/28 18/72/28 
s 4
f 55/73/29 42/76/29 51/77/29 
f 51/77/29 50/74/29 55/73/29 
s 2
f 42/76/26 3/78/26 52/60/26 
f 52/60/26 51/77/26 42/76/26 
s 4
f 3/78/27 18/79/27 53/61/27 
f 53/61/27 52/60/27 3/78/27 
s 2
f 17/40/19 8/8/19 56/80/19 
f 56/80/19 34/81/19 17/40/19 
s 1
f 32/38/13 11/13/13 37/44/13 
f 37/44/13 57/82/13 32/38/13 
f 57/82/13 37/44/13 54/62/13 
f 54/62/13 58/83/13 57/82/13 
f 8/8/5 7/7/4 59/84/30 
f 59/84/30 56/80/31 8/8/5 
f 60/85/13 55/63/13 18/21/13 
f 18/21/13 35/42/13 60/85/13 
f 7/7/4 31/37/18 30/36/17 
f 30/36/17 59/84/30 7/7/4 
f 58/83/13 54/62/13 55/63/13 
f 55/63/13 60/85/13 58/83/13 
f 61/86/13 62/87/13 63/88/13 
f 63/88/13 64/89/13 61/86/13 
f 65/90/32 66/91/33 67/92/34 
f 67/92/34 68/93/35 65/90/32 
s 2
f 62/94/36 61/95/36 69/96/36 
f 69/96/36 70/97/37 62/94/36 
f 71/98/8 72/99/8 73/100/8 
f 73/100/8 74/101/8 71/98/8 
s 4
f 75/102/38 76/103/38 73/100/38 
f 73/100/38 72/99/38 75/102/38 
f 69/96/39 61/95/39 64/104/39 
f 64/104/39 65/90/39 69/96/39 
s 1
f 69/96/40 65/90/32 68/93/35 
f 68/93/35 70/97/41 69/96/40 
f 64/89/13 63/88/13 77/105/13 
f 77/105/13 78/106/13 64/89/13 
f 79/107/13 80/108/13 75/102/1 
f 75/102/1 72/99/1 79/107/13 
f 81/109/15 82/110/14 74/101/14 
f 74/101/14 73/100/14 81/109/15 
s 2
f 75/111/36 80/112/36 83/113/36 
f 83/113/36 76/103/36 75/111/36 
s 1
f 76/103/14 83/113/15 81/109/15 
f 81/109/15 73/100/14 76/103/14 
f 84/114/13 85/115/13 80/108/13 
f 80/108/13 79/107/13 84/114/13 
f 86/116/14 87/117/42 82/110/14 
f 82/110/14 81/109/15 86/116/14 
s 2
f 80/112/36 85/118/37 88/119/36 
f 88/119/36 83/113/36 80/112/36 
s 1
f 83/113/15 88/119/15 86/116/14 
f 86/116/14 81/109/15 83/113/15 
f 89/120/15 87/117/42 90/121/43 
f 90/121/43 91/122/44 89/120/15 
s 2
f 92/123/8 71/98/8 74/101/8 
f 74/101/8 93/124/8 92/123/8 
f 64/104/19 78/125/19 66/91/19 
f 66/91/19 65/90/19 64/104/19 
s 1
f 78/106/13 77/105/13 94/126/13 
f 94/126/13 95/127/13 78/106/13 
f 93/124/14 74/101/14 82/110/14 
f 82/110/14 96/128/14 93/124/14 
f 71/98/13 97/129/13 79/107/13 
f 79/107/13 72/99/1 71/98/13 
f 96/128/14 82/110/14 87/117/42 
f 87/117/42 89/120/15 96/128/14 
f 98/130/13 99/131/13 100/132/13 
f 100/132/13 101/133/13 98/130/13 
f 102/134/13 63/88/13 62/87/13 
f 62/87/13 103/135/13 102/134/13 
f 104/136/45 105/137/46 106/138/47 
f 106/138/47 107/139/48 104/136/45 
s 2
f 103/140/37 62/94/36 70/97/37 
f 70/97/37 108/141/37 103/140/37 
s 1
f 70/97/41 68/93/35 109/142/49 
f 109/142/49 108/141/50 70/97/41 
f 110/143/13 111/144/13 112/145/13 
f 112/145/13 113/146/13 110/143/13 
f 84/114/13 102/134/13 103/135/13 
f 103/135/13 85/115/13 84/114/13 
f 109/142/49 90/121/43 87/117/42 
f 87/117/42 86/116/14 109/142/49 
s 2
f 85/118/37 103/140/37 108/141/37 
f 108/141/37 88/119/36 85/118/37 
s 1
f 108/141/50 109/142/49 86/116/14 
f 86/116/14 88/119/15 108/141/50 
f 114/147/13 115/148/13 102/134/13 
f 102/134/13 84/114/13 114/147/13 
s 2
f 79/149/51 101/150/51 100/151/51 
f 100/151/51 84/152/51 79/149/51 
s 4
f 84/153/27 100/132/27 99/131/27 
f 99/131/27 114/154/27 84/153/27 
s 2
f 114/154/52 99/131/52 98/155/52 
f 98/155/52 97/156/52 114/154/52 
s 4
f 97/156/29 98/155/29 101/150/29 
f 101/150/29 79/149/29 97/156/29 
s 2
f 77/157/52 111/144/52 110/158/52 
f 110/158/52 115/159/52 77/157/52 
s 4
f 115/159/29 110/158/29 113/160/29 
f 113/160/29 102/161/29 115/159/29 
s 2
f 102/161/51 113/160/51 112/162/51 
f 112/162/51 63/163/51 102/161/51 
s 4
f 63/164/27 112/145/27 111/144/27 
f 111/144/27 77/157/27 63/164/27 
s 2
f 78/125/19 95/165/19 116/166/19 
f 116/166/19 66/91/19 78/125/19 
s 1
f 92/123/13 117/167/13 97/129/13 
f 97/129/13 71/98/13 92/123/13 
f 117/167/13 118/168/13 114/147/13 
f 114/147/13 97/129/13 117/167/13 
f 66/91/33 116/166/31 119/169/53 
f 119/169/53 67/92/34 66/91/33 
f 120/170/13 94/126/13 77/105/13 
f 77/105/13 115/148/13 120/170/13 
f 67/92/34 119/169/53 91/122/44 
f 91/122/44 90/121/43 67/92/34 
f 118/168/13 120/170/13 115/148/13 
f 115/148/13 114/147/13 118/168/13 
s 2
f 32/38/8 92/123/8 93/124/8 
f 93/124/8 33/39/8 32/38/8 
s 1
f 34/41/13 95/127/13 94/126/13 
f 94/126/13 35/42/13 34/41/13 
f 33/39/14 93/124/14 96/128/14 
f 96/128/14 36/43/14 33/39/14 
f 121/171/54 122/172/54 123/173/54 
f 123/173/54 124/174/54 121/171/54 
f 60/85/13 120/170/13 118/168/13 
f 118/168/13 58/83/13 60/85/13 
f 91/122/44 30/36/17 29/35/14 
f 29/35/14 89/120/15 91/122/44 
f 89/120/15 29/35/14 36/43/14 
f 36/43/14 96/128/14 89/120/15 
s 2
f 95/165/19 34/81/19 56/80/19 
f 56/80/19 116/166/19 95/165/19 
s 1
f 92/123/13 32/38/13 57/82/13 
f 57/82/13 117/167/13 92/123/13 
f 117/167/13 57/82/13 58/83/13 
f 58/83/13 118/168/13 117/167/13 
f 116/166/31 56/80/31 59/84/30 
f 59/84/30 119/169/53 116/166/31 
f 120/170/13 60/85/13 35/42/13 
f 35/42/13 94/126/13 120/170/13 
s off
f 6/175/55 49/176/55 125/177/55 
f 125/177/56 126/178/56 6/175/56 
f 49/176/57 31/179/57 127/180/57 
f 127/180/57 125/177/57 49/176/57 
f 31/179/58 7/181/58 128/182/58 
f 128/182/59 127/180/59 31/179/59 
f 7/181/60 6/183/60 126/184/60 
f 126/184/60 128/182/60 7/181/60 
f 68/185/60 67/186/60 129/187/60 
f 129/187/60 130/188/60 68/185/60 
f 67/189/61 90/190/61 131/191/61 
f 131/191/62 129/192/62 67/189/62 
f 90/190/63 109/193/63 132/194/63 
f 132/194/63 131/191/63 90/190/63 
f 109/193/64 68/185/64 130/188/64 
f 130/188/65 132/194/65 109/193/65 
f 59/195/66 30/196/66 133/197/66 
f 133/197/66 134/198/66 59/195/66 
f 30/196/67 91/199/67 135/200/67 
f 135/200/67 133/197/67 30/196/67 
f 91/199/68 119/201/68 136/202/68 
f 136/202/68 135/200/68 91/199/68 
f 119/201/69 59/203/69 134/204/69 
f 134/204/69 136/202/69 119/201/69 
f 137/205/70 138/206/70 45/52/70 
f 45/52/71 44/51/71 137/205/71 
f 138/207/72 139/208/72 46/53/72 
f 46/53/73 45/52/73 138/207/73 
f 140/209/74 137/210/74 44/51/74 
f 44/51/75 47/54/75 140/209/75 
f 141/211/76 142/212/76 105/137/76 
f 105/137/77 104/136/77 141/211/77 
f 143/213/78 144/214/78 107/139/78 
f 107/139/79 106/138/79 143/213/79 
f 144/215/80 141/216/80 104/136/80 
f 104/136/81 107/139/81 144/215/81 
f 145/217/82 146/218/82 122/172/82 
f 122/172/82 121/171/82 145/217/82 
f 147/219/83 148/220/83 124/174/83 
f 124/174/83 123/173/83 147/219/83 
s 2
f 129/221/84 131/222/84 135/223/85 
f 135/223/85 136/224/85 129/221/84 
s 4
f 143/213/86 106/138/87 122/172/88 
f 122/172/88 146/218/89 143/213/86 
s 2
f 106/138/90 105/137/91 123/173/92 
f 123/173/92 122/172/93 106/138/90 
s 4
f 105/137/94 142/212/95 147/219/96 
f 147/219/96 123/173/97 105/137/94 
s 2
f 127/225/98 128/226/98 134/227/99 
f 134/227/99 133/228/99 127/225/98 
s 4
f 140/209/100 47/54/101 124/174/102 
f 124/174/102 148/220/103 140/209/100 
s 2
f 47/54/104 46/53/105 121/171/106 
f 121/171/106 124/174/107 47/54/104 
s 4
f 46/53/108 139/208/109 145/217/110 
f 145/217/110 121/171/111 46/53/108 
s off
f 126/229/112 125/230/112 138/206/112 
f 138/206/113 137/205/113 126/229/113 
f 125/231/113 127/225/113 139/208/113 
f 139/208/113 138/207/113 125/231/113 
f 127/225/99 133/228/99 145/217/99 
f 145/217/99 139/208/99 127/225/99 
f 133/228/112 135/223/112 146/218/112 
f 146/218/112 145/217/112 133/228/112 
f 135/223/85 131/222/85 143/213/85 
f 143/213/85 146/218/85 135/223/85 
f 131/222/112 132/232/112 144/214/112 
f 144/214/113 143/213/113 131/222/113 
f 132/233/112 130/234/112 141/216/112 
f 141/216/113 144/215/113 132/233/113 
f 130/235/112 129/236/112 142/212/112 
f 142/212/112 141/211/112 130/235/112 
f 129/236/85 136/237/85 147/219/85 
f 147/219/85 142/212/85 129/236/85 
f 136/237/112 134/238/112 148/220/112 
f 148/220/112 147/219/112 136/237/112 
f 134/238/99 128/239/99 140/209/99 
f 140/209/99 148/220/99 134/238/99 
f 128/239/112 126/240/112 137/210/112 
f 137/210/113 140/209/113 128/239/113 
# 300 faces

