# 3ds Max Wavefront OBJ Exporter v0.97b - (c)2007 guruware
# File Created: 27.01.2019 15:30:28

#
# object Cylinder001
#

v  0.0399 0.0000 0.0578
v  0.0085 0.0000 0.0697
v  -0.0249 0.0000 0.0656
v  -0.0525 0.0000 0.0466
v  -0.0682 0.0000 0.0168
v  -0.0682 0.0000 -0.0168
v  -0.0525 0.0000 -0.0466
v  -0.0249 0.0000 -0.0656
v  0.0085 0.0000 -0.0697
v  0.0399 0.0000 -0.0578
v  0.0622 0.0000 -0.0326
v  0.0702 0.0000 -0.0000
v  0.0622 0.0000 0.0326
v  0.0622 0.0367 -0.0326
v  0.0702 0.0367 -0.0000
v  0.0399 0.0367 -0.0578
v  0.0085 0.0367 -0.0697
v  -0.0249 0.0367 -0.0656
v  -0.0525 0.0367 -0.0466
v  -0.0682 0.0240 -0.0168
v  -0.0682 0.0240 0.0168
v  -0.0525 0.0367 0.0466
v  -0.0249 0.0367 0.0656
v  0.0085 0.0367 0.0697
v  0.0399 0.0367 0.0578
v  0.0622 0.0367 0.0326
v  0.0622 0.0734 -0.0326
v  0.0702 0.0734 -0.0000
v  0.0399 0.0734 -0.0578
v  0.0085 0.0734 -0.0697
v  -0.0249 0.0734 -0.0656
v  -0.0525 0.0734 -0.0466
v  -0.0682 0.0474 -0.0168
v  -0.0525 0.0734 0.0466
v  -0.0682 0.0474 0.0168
v  -0.0249 0.0734 0.0656
v  0.0085 0.0734 0.0697
v  0.0399 0.0734 0.0578
v  0.0622 0.0734 0.0326
v  0.0622 0.1101 -0.0326
v  0.0702 0.1101 -0.0000
v  0.0399 0.1101 -0.0578
v  0.0085 0.1101 -0.0697
v  -0.0249 0.1101 -0.0656
v  -0.0525 0.1101 -0.0466
v  -0.0682 0.1340 -0.0168
v  -0.0682 0.1340 0.0168
v  -0.0525 0.1101 0.0466
v  -0.0249 0.1101 0.0656
v  0.0085 0.1101 0.0697
v  0.0399 0.1101 0.0578
v  0.0622 0.1101 0.0326
v  0.0622 0.1468 -0.0326
v  0.0702 0.1468 -0.0000
v  0.0399 0.1468 -0.0578
v  0.0085 0.1468 -0.0697
v  -0.0249 0.1468 -0.0656
v  -0.0525 0.1468 -0.0466
v  -0.0682 0.1535 -0.0168
v  -0.0525 0.1468 0.0466
v  -0.0682 0.1535 0.0168
v  -0.0249 0.1468 0.0656
v  0.0085 0.1468 0.0697
v  0.0399 0.1468 0.0578
v  0.0622 0.1468 0.0326
v  0.0622 0.1836 -0.0326
v  0.0702 0.1836 -0.0000
v  0.0399 0.1836 -0.0578
v  0.0085 0.1836 -0.0697
v  -0.0249 0.1836 -0.0656
v  -0.0525 0.1836 -0.0466
v  -0.0682 0.1836 -0.0168
v  -0.0682 0.1836 0.0168
v  -0.0525 0.1836 0.0466
v  -0.0249 0.1836 0.0656
v  0.0085 0.1836 0.0697
v  0.0399 0.1836 0.0578
v  0.0622 0.1836 0.0326
v  0.0635 0.0073 0.0000
v  0.0562 0.0073 -0.0295
v  0.0360 0.0073 -0.0522
v  0.0076 0.0073 -0.0630
v  -0.0225 0.0073 -0.0593
v  -0.0475 0.0073 -0.0421
v  -0.0616 0.0073 -0.0152
v  -0.0616 0.0073 0.0152
v  -0.0475 0.0073 0.0421
v  -0.0225 0.0073 0.0593
v  0.0076 0.0073 0.0630
v  0.0360 0.0073 0.0522
v  0.0562 0.0073 0.0295
v  0.0562 0.1836 -0.0295
v  0.0635 0.1836 0.0000
v  0.0360 0.1836 -0.0522
v  0.0076 0.1836 -0.0630
v  -0.0225 0.1836 -0.0593
v  -0.0475 0.1836 -0.0421
v  -0.0616 0.1836 -0.0152
v  -0.0616 0.1836 0.0152
v  -0.0475 0.1836 0.0421
v  -0.0225 0.1836 0.0593
v  0.0076 0.1836 0.0630
v  0.0360 0.1836 0.0522
v  0.0562 0.1836 0.0295
v  -0.1016 0.0240 0.0168
v  -0.1016 0.0240 -0.0168
v  -0.0945 0.0373 0.0168
v  -0.0945 0.0373 -0.0168
v  -0.0961 0.1365 0.0168
v  -0.0961 0.1365 -0.0168
v  -0.1016 0.1535 0.0168
v  -0.1016 0.1535 -0.0168
v  -0.1179 0.0887 0.0168
v  -0.1312 0.0887 0.0168
v  -0.1179 0.0887 -0.0168
v  -0.1312 0.0887 -0.0168
# 116 vertices

vn 0.0000 -1.0000 -0.0000
vn 1.0000 0.0000 -0.0000
vn 0.8855 0.0000 -0.4647
vn 0.5681 0.0000 -0.8230
vn 0.1205 0.0000 -0.9927
vn -0.3546 0.0000 -0.9350
vn -0.7485 0.0000 -0.6631
vn -0.9709 0.0000 -0.2393
vn -0.9481 0.0000 -0.3180
vn -0.9709 -0.0000 0.2393
vn -0.9481 -0.0000 0.3180
vn -0.7485 0.0000 0.6631
vn -0.7485 -0.0000 0.6631
vn -0.3546 0.0000 0.9350
vn 0.1205 0.0000 0.9927
vn 0.5681 0.0000 0.8230
vn 0.8855 0.0000 0.4647
vn -0.9481 0.0000 0.3180
vn -0.9709 0.0000 0.2393
vn 0.0000 1.0000 -0.0000
vn 0.0000 -0.0000 1.0000
vn -0.3573 0.9340 -0.0000
vn 0.0000 0.0000 -1.0000
vn -0.0889 -0.9960 -0.0000
vn 0.0000 0.0000 1.0000
vn -0.0000 -0.0000 1.0000
vn 0.9106 0.4133 -0.0000
vn 1.0000 -0.0006 -0.0000
vn -0.9095 -0.4157 -0.0000
vn -1.0000 -0.0000 -0.0000
vn -1.0000 0.0000 -0.0000
vn -0.0000 0.0000 1.0000
vn 0.9101 -0.4144 -0.0000
vn -0.9095 0.4157 -0.0000
# 34 vertex normals

vt 0.4165 0.5224 0.5000
vt 0.4116 0.5204 0.5000
vt 0.4064 0.5210 0.5000
vt 0.4021 0.5243 0.5000
vt 0.3997 0.5294 0.5000
vt 0.3997 0.5352 0.5000
vt 0.4021 0.5403 0.5000
vt 0.4064 0.5436 0.5000
vt 0.4116 0.5443 0.5000
vt 0.4165 0.5423 0.5000
vt 0.4200 0.5379 0.5000
vt 0.4212 0.5323 0.5000
vt 0.4200 0.5267 0.5000
vt 0.4200 0.5379 0.7000
vt 0.4212 0.5323 0.7000
vt 0.4165 0.5423 0.7000
vt 0.4116 0.5443 0.7000
vt 0.4064 0.5436 0.7000
vt 0.4021 0.5403 0.7000
vt 0.3997 0.5352 0.6308
vt 0.3997 0.5294 0.6308
vt 0.4021 0.5243 0.7000
vt 0.4064 0.5210 0.7000
vt 0.4116 0.5204 0.7000
vt 0.4165 0.5224 0.7000
vt 0.4200 0.5267 0.7000
vt 0.4200 0.5379 0.9000
vt 0.4212 0.5323 0.9000
vt 0.4165 0.5423 0.9000
vt 0.4116 0.5443 0.9000
vt 0.4064 0.5436 0.9000
vt 0.4021 0.5403 0.9000
vt 0.3997 0.5352 0.7584
vt 0.4021 0.5243 0.9000
vt 0.3997 0.5294 0.7584
vt 0.4064 0.5210 0.9000
vt 0.4116 0.5204 0.9000
vt 0.4165 0.5224 0.9000
vt 0.4200 0.5267 0.9000
vt 0.4200 0.5379 1.1000
vt 0.4212 0.5323 1.1000
vt 0.4165 0.5423 1.1000
vt 0.4116 0.5443 1.1000
vt 0.4064 0.5436 1.1000
vt 0.4021 0.5403 1.1000
vt 0.3997 0.5352 1.2300
vt 0.3997 0.5294 1.2300
vt 0.4021 0.5243 1.1000
vt 0.4064 0.5210 1.1000
vt 0.4116 0.5204 1.1000
vt 0.4165 0.5224 1.1000
vt 0.4200 0.5267 1.1000
vt 0.4200 0.5379 1.3000
vt 0.4212 0.5323 1.3000
vt 0.4165 0.5423 1.3000
vt 0.4116 0.5443 1.3000
vt 0.4064 0.5436 1.3000
vt 0.4021 0.5403 1.3000
vt 0.3997 0.5352 1.3360
vt 0.4021 0.5243 1.3000
vt 0.3997 0.5294 1.3360
vt 0.4064 0.5210 1.3000
vt 0.4116 0.5204 1.3000
vt 0.4165 0.5224 1.3000
vt 0.4200 0.5267 1.3000
vt 0.4200 0.5379 1.5000
vt 0.4212 0.5323 1.5000
vt 0.4165 0.5423 1.5000
vt 0.4116 0.5443 1.5000
vt 0.4064 0.5436 1.5000
vt 0.4021 0.5403 1.5000
vt 0.3997 0.5352 1.5000
vt 0.3997 0.5294 1.5000
vt 0.4021 0.5243 1.5000
vt 0.4064 0.5210 1.5000
vt 0.4116 0.5204 1.5000
vt 0.4165 0.5224 1.5000
vt 0.4200 0.5267 1.5000
vt 0.4202 0.5323 0.5396
vt 0.4191 0.5374 0.5396
vt 0.4159 0.5413 0.5396
vt 0.4115 0.5432 0.5396
vt 0.4068 0.5425 0.5396
vt 0.4029 0.5396 0.5396
vt 0.4007 0.5349 0.5396
vt 0.4007 0.5297 0.5396
vt 0.4029 0.5251 0.5396
vt 0.4068 0.5221 0.5396
vt 0.4115 0.5215 0.5396
vt 0.4159 0.5234 0.5396
vt 0.4191 0.5273 0.5396
vt 0.4191 0.5374 1.5000
vt 0.4202 0.5323 1.5000
vt 0.4159 0.5413 1.5000
vt 0.4115 0.5432 1.5000
vt 0.4068 0.5425 1.5000
vt 0.4029 0.5396 1.5000
vt 0.4007 0.5349 1.5000
vt 0.4007 0.5297 1.5000
vt 0.4029 0.5251 1.5000
vt 0.4068 0.5221 1.5000
vt 0.4115 0.5215 1.5000
vt 0.4159 0.5234 1.5000
vt 0.4191 0.5273 1.5000
vt 0.3945 0.5294 0.6308
vt 0.3945 0.5352 0.6308
vt 0.3956 0.5294 0.7034
vt 0.3956 0.5352 0.7034
vt 0.3954 0.5294 1.2436
vt 0.3954 0.5352 1.2436
vt 0.3945 0.5294 1.3360
vt 0.3945 0.5352 1.3360
vt 0.3920 0.5294 0.9834
vt 0.3899 0.5294 0.9834
vt 0.3920 0.5352 0.9834
vt 0.3899 0.5352 0.9834
# 116 texture coords

o Cylinder001
g Cylinder001
s 1
f 1/1/1 2/2/1 3/3/1 
f 3/3/1 4/4/1 5/5/1 
f 1/1/1 3/3/1 5/5/1 
f 5/5/1 6/6/1 7/7/1 
f 7/7/1 8/8/1 9/9/1 
f 5/5/1 7/7/1 9/9/1 
f 1/1/1 5/5/1 9/9/1 
f 9/9/1 10/10/1 11/11/1 
f 1/1/1 9/9/1 11/11/1 
f 1/1/1 11/11/1 12/12/1 
f 13/13/1 1/1/1 12/12/1 
s 8
f 12/12/2 11/11/3 14/14/3 
f 14/14/3 15/15/2 12/12/2 
f 11/11/3 10/10/4 16/16/4 
f 16/16/4 14/14/3 11/11/3 
f 10/10/4 9/9/5 17/17/5 
f 17/17/5 16/16/4 10/10/4 
f 9/9/5 8/8/6 18/18/6 
f 18/18/6 17/17/5 9/9/5 
f 8/8/6 7/7/7 19/19/7 
f 19/19/7 18/18/6 8/8/6 
f 7/7/7 6/6/8 20/20/9 
f 20/20/9 19/19/7 7/7/7 
f 6/6/8 5/5/10 21/21/11 
f 21/21/11 20/20/9 6/6/8 
f 5/5/10 4/4/12 22/22/13 
f 22/22/13 21/21/11 5/5/10 
f 4/4/12 3/3/14 23/23/14 
f 23/23/14 22/22/13 4/4/12 
f 3/3/14 2/2/15 24/24/15 
f 24/24/15 23/23/14 3/3/14 
f 2/2/15 1/1/16 25/25/16 
f 25/25/16 24/24/15 2/2/15 
f 1/1/16 13/13/17 26/26/17 
f 26/26/17 25/25/16 1/1/16 
f 13/13/17 12/12/2 15/15/2 
f 15/15/2 26/26/17 13/13/17 
f 15/15/2 14/14/3 27/27/3 
f 27/27/3 28/28/2 15/15/2 
f 14/14/3 16/16/4 29/29/4 
f 29/29/4 27/27/3 14/14/3 
f 16/16/4 17/17/5 30/30/5 
f 30/30/5 29/29/4 16/16/4 
f 17/17/5 18/18/6 31/31/6 
f 31/31/6 30/30/5 17/17/5 
f 18/18/6 19/19/7 32/32/7 
f 32/32/7 31/31/6 18/18/6 
f 19/19/7 20/20/9 33/33/9 
f 33/33/9 32/32/7 19/19/7 
f 21/21/11 22/22/13 34/34/13 
f 34/34/13 35/35/11 21/21/11 
f 22/22/13 23/23/14 36/36/14 
f 36/36/14 34/34/13 22/22/13 
f 23/23/14 24/24/15 37/37/15 
f 37/37/15 36/36/14 23/23/14 
f 24/24/15 25/25/16 38/38/16 
f 38/38/16 37/37/15 24/24/15 
f 25/25/16 26/26/17 39/39/17 
f 39/39/17 38/38/16 25/25/16 
f 26/26/17 15/15/2 28/28/2 
f 28/28/2 39/39/17 26/26/17 
f 28/28/2 27/27/3 40/40/3 
f 40/40/3 41/41/2 28/28/2 
f 27/27/3 29/29/4 42/42/4 
f 42/42/4 40/40/3 27/27/3 
f 29/29/4 30/30/5 43/43/5 
f 43/43/5 42/42/4 29/29/4 
f 30/30/5 31/31/6 44/44/6 
f 44/44/6 43/43/5 30/30/5 
f 31/31/6 32/32/7 45/45/7 
f 45/45/7 44/44/6 31/31/6 
f 32/32/7 33/33/9 46/46/9 
f 46/46/9 45/45/7 32/32/7 
f 33/33/9 35/35/11 47/47/18 
f 47/47/18 46/46/9 33/33/9 
f 35/35/11 34/34/13 48/48/12 
f 48/48/12 47/47/18 35/35/11 
f 34/34/13 36/36/14 49/49/14 
f 49/49/14 48/48/12 34/34/13 
f 36/36/14 37/37/15 50/50/15 
f 50/50/15 49/49/14 36/36/14 
f 37/37/15 38/38/16 51/51/16 
f 51/51/16 50/50/15 37/37/15 
f 38/38/16 39/39/17 52/52/17 
f 52/52/17 51/51/16 38/38/16 
f 39/39/17 28/28/2 41/41/2 
f 41/41/2 52/52/17 39/39/17 
f 41/41/2 40/40/3 53/53/3 
f 53/53/3 54/54/2 41/41/2 
f 40/40/3 42/42/4 55/55/4 
f 55/55/4 53/53/3 40/40/3 
f 42/42/4 43/43/5 56/56/5 
f 56/56/5 55/55/4 42/42/4 
f 43/43/5 44/44/6 57/57/6 
f 57/57/6 56/56/5 43/43/5 
f 44/44/6 45/45/7 58/58/7 
f 58/58/7 57/57/6 44/44/6 
f 45/45/7 46/46/9 59/59/9 
f 59/59/9 58/58/7 45/45/7 
f 47/47/18 48/48/12 60/60/12 
f 60/60/12 61/61/18 47/47/18 
f 48/48/12 49/49/14 62/62/14 
f 62/62/14 60/60/12 48/48/12 
f 49/49/14 50/50/15 63/63/15 
f 63/63/15 62/62/14 49/49/14 
f 50/50/15 51/51/16 64/64/16 
f 64/64/16 63/63/15 50/50/15 
f 51/51/16 52/52/17 65/65/17 
f 65/65/17 64/64/16 51/51/16 
f 52/52/17 41/41/2 54/54/2 
f 54/54/2 65/65/17 52/52/17 
f 54/54/2 53/53/3 66/66/3 
f 66/66/3 67/67/2 54/54/2 
f 53/53/3 55/55/4 68/68/4 
f 68/68/4 66/66/3 53/53/3 
f 55/55/4 56/56/5 69/69/5 
f 69/69/5 68/68/4 55/55/4 
f 56/56/5 57/57/6 70/70/6 
f 70/70/6 69/69/5 56/56/5 
f 57/57/6 58/58/7 71/71/7 
f 71/71/7 70/70/6 57/57/6 
f 58/58/7 59/59/9 72/72/8 
f 72/72/8 71/71/7 58/58/7 
f 59/59/9 61/61/18 73/73/19 
f 73/73/19 72/72/8 59/59/9 
f 61/61/18 60/60/12 74/74/12 
f 74/74/12 73/73/19 61/61/18 
f 60/60/12 62/62/14 75/75/14 
f 75/75/14 74/74/12 60/60/12 
f 62/62/14 63/63/15 76/76/15 
f 76/76/15 75/75/14 62/62/14 
f 63/63/15 64/64/16 77/77/16 
f 77/77/16 76/76/15 63/63/15 
f 64/64/16 65/65/17 78/78/17 
f 78/78/17 77/77/16 64/64/16 
f 65/65/17 54/54/2 67/67/2 
f 67/67/2 78/78/17 65/65/17 
s 1
f 79/79/20 80/80/20 81/81/20 
f 81/81/20 82/82/20 83/83/20 
f 79/79/20 81/81/20 83/83/20 
f 83/83/20 84/84/20 85/85/20 
f 85/85/20 86/86/20 87/87/20 
f 83/83/20 85/85/20 87/87/20 
f 79/79/20 83/83/20 87/87/20 
f 87/87/20 88/88/20 89/89/20 
f 79/79/20 87/87/20 89/89/20 
f 79/79/20 89/89/20 90/90/20 
f 91/91/20 79/79/20 90/90/20 
s off
f 67/67/20 66/66/20 92/92/20 
f 92/92/20 93/93/20 67/67/20 
f 66/66/20 68/68/20 94/94/20 
f 94/94/20 92/92/20 66/66/20 
f 68/68/20 69/69/20 95/95/20 
f 95/95/20 94/94/20 68/68/20 
f 69/69/20 70/70/20 96/96/20 
f 96/96/20 95/95/20 69/69/20 
f 70/70/20 71/71/20 97/97/20 
f 97/97/20 96/96/20 70/70/20 
f 71/71/20 72/72/20 98/98/20 
f 98/98/20 97/97/20 71/71/20 
f 72/72/20 73/73/20 99/99/20 
f 99/99/20 98/98/20 72/72/20 
f 73/73/20 74/74/20 100/100/20 
f 100/100/20 99/99/20 73/73/20 
f 74/74/20 75/75/20 101/101/20 
f 101/101/20 100/100/20 74/74/20 
f 75/75/20 76/76/20 102/102/20 
f 102/102/20 101/101/20 75/75/20 
f 76/76/20 77/77/20 103/103/20 
f 103/103/20 102/102/20 76/76/20 
f 77/77/20 78/78/20 104/104/20 
f 104/104/20 103/103/20 77/77/20 
f 78/78/20 67/67/20 93/93/20 
f 93/93/20 104/104/20 78/78/20 
f 93/93/19 92/92/19 80/80/19 
f 80/80/19 79/79/19 93/93/19 
f 92/92/12 94/94/12 81/81/12 
f 81/81/12 80/80/12 92/92/12 
f 94/94/14 95/95/14 82/82/14 
f 82/82/14 81/81/14 94/94/14 
f 95/95/15 96/96/15 83/83/15 
f 83/83/15 82/82/15 95/95/15 
f 96/96/16 97/97/16 84/84/16 
f 84/84/16 83/83/16 96/96/16 
f 97/97/17 98/98/17 85/85/17 
f 85/85/17 84/84/17 97/97/17 
f 98/98/2 99/99/2 86/86/2 
f 86/86/2 85/85/2 98/98/2 
f 99/99/3 100/100/3 87/87/3 
f 87/87/3 86/86/3 99/99/3 
f 100/100/4 101/101/4 88/88/4 
f 88/88/4 87/87/4 100/100/4 
f 101/101/5 102/102/5 89/89/5 
f 89/89/5 88/88/5 101/101/5 
f 102/102/6 103/103/6 90/90/6 
f 90/90/6 89/89/6 102/102/6 
f 103/103/7 104/104/7 91/91/7 
f 91/91/7 90/90/7 103/103/7 
f 104/104/8 93/93/8 79/79/8 
f 79/79/8 91/91/8 104/104/8 
f 20/20/1 21/21/1 105/105/1 
f 105/105/1 106/106/1 20/20/1 
f 21/21/21 35/35/21 107/107/21 
f 107/107/21 105/105/21 21/21/21 
f 35/35/22 33/33/22 108/108/22 
f 108/108/22 107/107/22 35/35/22 
f 33/33/23 20/20/23 106/106/23 
f 106/106/23 108/108/23 33/33/23 
f 46/46/24 47/47/24 109/109/24 
f 109/109/24 110/110/24 46/46/24 
f 47/47/25 61/61/25 111/111/25 
f 111/111/25 109/109/25 47/47/25 
f 61/61/20 59/59/20 112/112/20 
f 112/112/20 111/111/20 61/61/20 
f 59/59/23 46/46/23 110/110/23 
f 110/110/23 112/112/23 59/59/23 
s 1
f 105/105/26 107/107/26 113/113/26 
f 113/113/26 114/114/26 105/105/26 
s 2
f 107/107/27 108/108/27 115/115/28 
f 115/115/28 113/113/28 107/107/27 
s 1
f 108/108/23 106/106/23 116/116/23 
f 116/116/23 115/115/23 108/108/23 
s 2
f 106/106/29 105/105/29 114/114/30 
f 114/114/30 116/116/31 106/106/29 
s 1
f 114/114/26 113/113/26 109/109/32 
f 109/109/32 111/111/32 114/114/26 
s 2
f 113/113/28 115/115/28 110/110/33 
f 110/110/33 109/109/33 113/113/28 
s 1
f 115/115/23 116/116/23 112/112/23 
f 112/112/23 110/110/23 115/115/23 
s 2
f 116/116/31 114/114/30 111/111/34 
f 111/111/34 112/112/34 116/116/31 
# 232 faces

