# 3ds Max Wavefront OBJ Exporter v0.97b - (c)2007 guruware
# File Created: 26.01.2019 16:58:25

#
# object Door1
#

v  0.0026 -0.0002 -0.0726
v  0.0094 0.1915 -0.1152
v  0.0068 0.1926 -0.0417
v  0.0000 0.0000 -0.0000
v  0.0795 2.2520 -0.4873
v  0.0825 2.2479 -0.5716
v  -0.0294 2.2482 -0.5716
v  -0.0325 2.2523 -0.4873
v  -0.6560 0.1932 -0.0417
v  -0.6534 0.1921 -0.1153
v  -0.6512 -0.0001 -0.0726
v  -0.6538 0.0001 -0.0000
v  -0.0595 0.0000 -0.0000
v  -0.0569 -0.0002 -0.0726
v  -0.0545 0.1915 -0.1152
v  -0.0340 2.1226 -0.4592
v  0.0749 2.1223 -0.4592
v  -0.6767 2.2499 -0.5716
v  -0.6798 2.2541 -0.4873
v  -0.5640 2.2537 -0.4873
v  -0.5610 2.2496 -0.5716
v  -0.5910 0.0001 -0.0000
v  -0.5884 -0.0001 -0.0726
v  -0.5861 0.1920 -0.1152
v  -0.6783 2.1239 -0.4591
v  -0.5656 2.1238 -0.4591
v  0.0780 2.1189 -0.5430
v  -0.6753 2.1206 -0.5429
v  -0.0310 2.1192 -0.5430
v  -0.0572 0.1926 -0.0417
v  -0.5625 2.1204 -0.5430
v  -0.5887 0.1931 -0.0417
v  0.0194 0.4726 -0.1776
v  0.0167 0.4740 -0.1025
v  -0.6593 0.4747 -0.1026
v  -0.6565 0.4732 -0.1776
v  -0.0511 0.4726 -0.1776
v  -0.0538 0.4740 -0.1025
v  -0.5826 0.4731 -0.1776
v  -0.5854 0.4746 -0.1026
v  -0.1457 2.2485 -0.5716
v  -0.1487 2.2526 -0.4873
v  -0.1757 0.0000 -0.0000
v  -0.1731 -0.0002 -0.0726
v  -0.1708 0.1916 -0.1152
v  -0.1503 2.1228 -0.4592
v  -0.1472 2.1195 -0.5430
v  -0.1734 0.1927 -0.0417
v  -0.0827 0.2233 -0.1042
v  -0.1719 0.2233 -0.1042
v  -0.1686 0.4963 -0.1648
v  -0.0794 0.4962 -0.1648
v  -0.4462 0.2171 -0.0649
v  -0.4429 0.4905 -0.1240
v  -0.5566 0.4906 -0.1240
v  -0.5598 0.2172 -0.0649
v  -0.0599 2.0952 -0.5197
v  -0.5538 0.4967 -0.1648
v  -0.5572 0.2236 -0.1043
v  -0.4189 2.1201 -0.5430
v  -0.4207 2.0960 -0.5196
v  -0.5343 2.0963 -0.5196
v  -0.5374 2.0921 -0.4703
v  -0.4451 0.1929 -0.0417
v  -0.0821 0.4901 -0.1240
v  -0.0854 0.2169 -0.0649
v  -0.1521 2.0912 -0.4703
v  -0.0629 2.0910 -0.4703
v  -0.4204 2.2534 -0.4873
v  -0.4173 2.2493 -0.5716
v  -0.4474 0.0001 -0.0000
v  -0.4448 -0.0002 -0.0726
v  -0.4424 0.1918 -0.1152
v  -0.4219 2.1234 -0.4592
v  -0.4435 0.2235 -0.1043
v  -0.4402 0.4965 -0.1648
v  -0.1713 0.4902 -0.1240
v  -0.1746 0.2169 -0.0649
v  -0.1490 2.0954 -0.5196
v  -0.4237 2.0918 -0.4703
# 80 vertices

vn 0.9990 -0.0274 0.0362
vn 0.9990 -0.0274 0.0363
vn 0.0026 0.9988 -0.0483
vn 0.0026 0.9988 -0.0482
vn 0.0027 0.9988 -0.0483
vn -0.9992 -0.0193 -0.0360
vn -0.9992 -0.0193 -0.0361
vn -0.0002 -1.0000 0.0032
vn -0.0001 -0.2167 -0.9762
vn -0.0000 -0.2167 -0.9762
vn 0.0006 0.2114 0.9774
vn 0.0005 0.2114 0.9774
vn 0.0027 0.9988 -0.0486
vn 0.0026 0.9988 -0.0486
vn -0.0000 -0.2165 -0.9763
vn -0.0001 -0.2165 -0.9763
vn 0.0006 0.2113 0.9774
vn 0.0005 0.2113 0.9774
vn 0.9989 -0.0272 0.0374
vn -0.9992 -0.0192 -0.0352
vn -0.0006 -0.2166 -0.9763
vn -0.0006 -0.2167 -0.9762
vn -0.0005 -0.2166 -0.9762
vn -0.0005 -0.2166 -0.9763
vn 0.0001 0.2114 0.9774
vn 0.0000 0.2115 0.9774
vn 0.0001 0.2115 0.9774
vn -0.0006 -0.2165 -0.9763
vn -0.0005 -0.2165 -0.9763
vn 0.0000 0.2113 0.9774
vn 0.0001 0.2113 0.9774
vn 0.9990 -0.0274 0.0365
vn -0.9992 -0.0193 -0.0359
vn -0.0002 -0.2167 -0.9762
vn 0.0002 0.2115 0.9774
vn -0.0002 -0.2165 -0.9763
vn 0.0002 0.2113 0.9774
vn 0.0027 0.9988 -0.0484
vn -0.0000 -0.2166 -0.9763
vn -0.0001 -0.2166 -0.9763
vn 0.0000 0.2114 0.9774
vn -0.5243 -0.1784 -0.8327
vn -0.5243 -0.1784 -0.8326
vn 0.0004 0.3273 -0.9449
vn 0.0004 0.3272 -0.9449
vn 0.0003 0.3273 -0.9449
vn 0.5237 -0.1905 -0.8303
vn -0.0016 -0.6961 -0.7179
vn -0.0016 -0.6962 -0.7179
vn 0.5242 0.1739 0.8336
vn 0.5243 0.1739 0.8336
vn 0.0005 0.6923 0.7216
vn 0.0005 0.6924 0.7216
vn -0.5237 0.1861 0.8313
vn -0.0006 -0.3323 0.9432
vn -0.0007 -0.3323 0.9432
vn 0.0026 0.9988 -0.0485
vn 0.0004 0.3271 -0.9450
vn 0.0003 0.3270 -0.9450
vn -0.0016 -0.6960 -0.7180
vn -0.0016 -0.6960 -0.7181
vn 0.0005 0.6922 0.7217
vn 0.0005 0.6921 0.7218
vn -0.0006 -0.3321 0.9432
vn -0.0007 -0.3320 0.9433
vn 0.5238 -0.1905 -0.8303
vn -0.5238 0.1861 0.8313
vn 0.9988 0.0152 0.0459
vn 0.9976 0.0068 0.0689
vn 0.9977 0.0436 0.0516
vn 0.9991 0.0227 0.0358
vn -0.9977 -0.0436 -0.0516
vn -0.9976 -0.0069 -0.0689
vn -0.9988 -0.0152 -0.0459
vn -0.9991 -0.0227 -0.0358
vn -0.9977 -0.0025 -0.0671
vn -0.9977 -0.0026 -0.0672
vn -0.0010 -0.9891 -0.1476
vn -0.0010 -0.9891 -0.1473
vn -0.0010 -0.9891 -0.1474
vn 0.9977 0.0027 0.0672
vn 0.9977 0.0027 0.0671
vn 0.9993 -0.0042 0.0362
vn 0.9993 -0.0042 0.0361
vn -0.9993 0.0042 -0.0362
vn -0.9993 0.0042 -0.0361
# 86 vertex normals

vt 0.0159 0.8808 0.0000
vt 0.0168 0.8828 0.0000
vt 0.0164 0.8833 0.0000
vt 0.0156 0.8814 0.0000
vt 0.0257 0.9042 0.0000
vt 0.0261 0.9036 0.0000
vt 0.0265 0.9048 0.0000
vt 0.0261 0.9055 0.0000
vt 0.0391 0.8997 0.0000
vt 0.0388 0.8989 0.0000
vt 0.0398 0.8978 0.0000
vt 0.0401 0.8985 0.0000
vt 0.0153 0.8807 0.0000
vt 0.0157 0.8801 0.0000
vt 0.0381 0.8890 0.0000
vt 0.0373 0.8906 0.0000
vt 0.0371 0.8900 0.0000
vt 0.0378 0.8885 0.0000
vt 0.0254 0.9066 0.0000
vt 0.0250 0.9054 0.0000
vt 0.0285 0.9110 0.0000
vt 0.0284 0.9120 0.0000
vt 0.0279 0.9110 0.0000
vt 0.0282 0.9102 0.0000
vt 0.0403 0.8980 0.0000
vt 0.0401 0.8973 0.0000
vt 0.0386 0.8982 0.0000
vt 0.0397 0.8971 0.0000
vt 0.0278 0.9133 0.0000
vt 0.0273 0.9122 0.0000
vt 0.0256 0.9023 0.0000
vt 0.0251 0.9029 0.0000
vt 0.0290 0.9107 0.0000
vt 0.0292 0.9117 0.0000
vt 0.0269 0.9026 0.0000
vt 0.0272 0.9039 0.0000
vt 0.0151 0.9243 0.0000
vt 0.0149 0.9237 0.0000
vt 0.0159 0.9221 0.0000
vt 0.0161 0.9228 0.0000
vt 0.0288 0.9095 0.0000
vt 0.0175 0.9310 0.0000
vt 0.0172 0.9304 0.0000
vt 0.0181 0.9287 0.0000
vt 0.0184 0.9294 0.0000
vt 0.0181 0.8856 0.0000
vt 0.0177 0.8862 0.0000
vt 0.0377 0.9014 0.0000
vt 0.0374 0.9007 0.0000
vt 0.0360 0.8929 0.0000
vt 0.0358 0.8922 0.0000
vt 0.0174 0.9205 0.0000
vt 0.0172 0.9197 0.0000
vt 0.0372 0.8999 0.0000
vt 0.0197 0.9270 0.0000
vt 0.0195 0.9263 0.0000
vt 0.0269 0.9061 0.0000
vt 0.0265 0.9068 0.0000
vt 0.0149 0.8794 0.0000
vt 0.0153 0.8788 0.0000
vt 0.0385 0.8901 0.0000
vt 0.0377 0.8915 0.0000
vt 0.0259 0.9078 0.0000
vt 0.0275 0.9053 0.0000
vt 0.0165 0.9241 0.0000
vt 0.0155 0.9256 0.0000
vt 0.0373 0.8912 0.0000
vt 0.0376 0.8918 0.0000
vt 0.0364 0.8944 0.0000
vt 0.0360 0.8934 0.0000
vt 0.0177 0.9269 0.0000
vt 0.0190 0.9245 0.0000
vt 0.0194 0.9257 0.0000
vt 0.0181 0.9280 0.0000
vt 0.0275 0.9041 0.0000
vt 0.0370 0.8996 0.0000
vt 0.0384 0.8980 0.0000
vt 0.0283 0.9081 0.0000
vt 0.0285 0.9078 0.0000
vt 0.0288 0.9090 0.0000
vt 0.0271 0.9121 0.0000
vt 0.0175 0.9272 0.0000
vt 0.0177 0.9206 0.0000
vt 0.0164 0.9229 0.0000
vt 0.0257 0.9081 0.0000
vt 0.0254 0.9072 0.0000
vt 0.0274 0.9096 0.0000
vt 0.0277 0.9089 0.0000
vt 0.0410 0.8968 0.0000
vt 0.0407 0.8961 0.0000
vt 0.0393 0.8955 0.0000
vt 0.0383 0.8965 0.0000
vt 0.0268 0.9106 0.0000
vt 0.0167 0.9289 0.0000
vt 0.0381 0.8967 0.0000
vt 0.0367 0.8983 0.0000
vt 0.0180 0.9216 0.0000
vt 0.0167 0.9239 0.0000
vt 0.0277 0.9051 0.0000
vt 0.0266 0.9109 0.0000
vt 0.0414 0.8941 0.0000
vt 0.0416 0.8940 0.0000
vt 0.0417 0.8944 0.0000
vt 0.0417 0.8948 0.0000
vt 0.0378 0.8921 0.0000
vt 0.0380 0.8921 0.0000
vt 0.0366 0.8945 0.0000
vt 0.0369 0.8982 0.0000
vt 0.0427 0.8916 0.0000
vt 0.0425 0.8912 0.0000
vt 0.0388 0.8906 0.0000
# 111 texture coords

o Door1
g Door1
s 1
f 1/1/1 2/2/2 3/3/2 
f 3/3/2 4/4/1 1/1/1 
s 2
f 5/5/3 6/6/4 7/7/3 
f 7/7/3 8/8/5 5/5/3 
s 1
f 9/9/6 10/10/6 11/11/6 
f 11/11/6 12/12/7 9/9/6 
s 2
f 4/4/8 13/13/8 14/14/8 
f 14/14/8 1/1/8 4/4/8 
s 4
f 14/15/9 15/16/9 2/17/9 
f 2/17/9 1/18/10 14/15/9 
f 8/8/11 16/19/12 17/20/12 
f 17/20/12 5/5/11 8/8/11 
s 2
f 18/21/13 19/22/13 20/23/13 
f 20/23/13 21/24/14 18/21/13 
f 22/25/8 12/12/8 11/11/8 
f 11/11/8 23/26/8 22/25/8 
s 4
f 11/11/15 10/10/16 24/27/16 
f 24/27/16 23/28/15 11/11/15 
f 19/22/17 25/29/18 26/30/18 
f 26/30/18 20/23/17 19/22/17 
s 1
f 27/31/19 6/6/19 5/5/19 
f 5/5/19 17/32/19 27/31/19 
f 19/22/20 18/21/20 28/33/20 
f 28/33/20 25/34/20 19/22/20 
s 4
f 7/7/21 6/6/22 27/35/23 
f 27/35/23 29/36/24 7/7/21 
f 13/37/25 4/38/26 3/39/27 
f 3/39/27 30/40/27 13/37/25 
f 18/21/28 21/24/28 31/41/29 
f 31/41/29 28/33/29 18/21/28 
f 12/42/30 22/43/30 32/44/31 
f 32/44/31 9/45/31 12/42/30 
s 1
f 2/2/2 33/46/32 34/47/32 
f 34/47/32 3/3/2 2/2/2 
f 35/48/33 36/49/33 10/10/6 
f 10/10/6 9/9/6 35/48/33 
s 4
f 37/50/34 33/51/34 2/17/9 
f 2/17/9 15/16/9 37/50/34 
f 38/52/35 34/53/35 17/20/12 
f 17/20/12 16/19/12 38/52/35 
f 36/49/36 39/54/36 24/27/16 
f 24/27/16 10/10/16 36/49/36 
f 35/55/37 40/56/37 26/30/18 
f 26/30/18 25/29/18 35/55/37 
s 2
f 41/57/38 42/58/38 8/8/5 
f 8/8/5 7/7/3 41/57/38 
f 13/13/8 43/59/8 44/60/8 
f 44/60/8 14/14/8 13/13/8 
s 4
f 14/15/9 44/61/39 45/62/40 
f 45/62/40 15/16/9 14/15/9 
f 42/58/12 46/63/12 16/19/12 
f 16/19/12 8/8/11 42/58/12 
f 29/36/24 47/64/21 41/57/21 
f 41/57/21 7/7/21 29/36/24 
f 48/65/25 43/66/41 13/37/25 
f 13/37/25 30/40/27 48/65/25 
s 1
f 49/67/40 50/68/40 51/69/40 
f 51/69/40 52/70/40 49/67/40 
f 53/71/31 54/72/25 55/73/31 
f 55/73/31 56/74/31 53/71/31 
s 2
f 29/36/42 37/50/43 52/70/43 
f 52/70/43 57/75/42 29/36/42 
s 8
f 45/62/44 50/68/45 49/67/46 
f 49/67/46 15/16/46 45/62/44 
s 2
f 39/54/47 58/76/47 59/77/47 
f 59/77/47 24/27/47 39/54/47 
s 8
f 60/78/48 61/79/48 62/80/49 
f 62/80/49 31/41/49 60/78/48 
s 2
f 26/30/50 40/56/51 55/73/51 
f 55/73/51 63/81/50 26/30/50 
s 8
f 64/82/52 53/71/52 56/74/53 
f 56/74/53 32/44/53 64/82/52 
s 2
f 38/52/54 65/83/54 66/84/54 
f 66/84/54 30/40/54 38/52/54 
s 8
f 46/63/55 67/85/55 68/86/56 
f 68/86/56 16/19/56 46/63/55 
s 2
f 21/24/14 20/23/13 69/87/57 
f 69/87/57 70/88/57 21/24/14 
f 71/89/8 22/25/8 23/26/8 
f 23/26/8 72/90/8 71/89/8 
s 4
f 72/91/16 23/28/15 24/27/16 
f 24/27/16 73/92/40 72/91/16 
f 20/23/17 26/30/18 74/93/11 
f 74/93/11 69/87/11 20/23/17 
f 60/78/21 31/41/29 21/24/28 
f 21/24/28 70/88/21 60/78/21 
f 32/44/31 22/43/30 71/94/31 
f 71/94/31 64/82/31 32/44/31 
s 1
f 75/95/16 59/77/16 58/76/16 
f 58/76/16 76/96/16 75/95/16 
f 66/84/25 65/83/25 77/97/25 
f 77/97/25 78/98/25 66/84/25 
s 8
f 73/92/58 24/27/59 59/77/59 
f 59/77/59 75/95/58 73/92/58 
f 47/64/60 29/36/61 57/75/61 
f 57/75/61 79/99/60 47/64/60 
f 48/65/62 30/40/63 66/84/63 
f 66/84/63 78/98/62 48/65/62 
f 74/93/64 26/30/65 63/81/65 
f 63/81/65 80/100/64 74/93/64 
s 2
f 41/57/38 70/88/57 69/87/57 
f 69/87/57 42/58/38 41/57/38 
s 4
f 42/58/12 69/87/11 74/93/11 
f 74/93/11 46/63/12 42/58/12 
f 47/64/21 60/78/21 70/88/21 
f 70/88/21 41/57/21 47/64/21 
s 8
f 60/78/48 47/64/60 79/99/60 
f 79/99/60 61/79/48 60/78/48 
f 46/63/55 74/93/64 80/100/64 
f 80/100/64 67/85/55 46/63/55 
s 1
f 33/46/32 27/31/19 17/32/19 
f 17/32/19 34/47/32 33/46/32 
f 25/34/20 28/33/20 36/49/33 
f 36/49/33 35/48/33 25/34/20 
s 4
f 29/36/24 27/35/23 33/51/34 
f 33/51/34 37/50/34 29/36/24 
f 30/40/27 3/39/27 34/53/35 
f 34/53/35 38/52/35 30/40/27 
f 28/33/29 31/41/29 39/54/36 
f 39/54/36 36/49/36 28/33/29 
f 9/45/31 32/44/31 40/56/37 
f 40/56/37 35/55/37 9/45/31 
s 1
f 79/99/21 57/75/21 52/70/40 
f 52/70/40 51/69/40 79/99/21 
f 80/100/12 63/81/17 55/73/31 
f 55/73/31 54/72/25 80/100/12 
s 2
f 37/50/43 15/16/43 49/67/43 
f 49/67/43 52/70/43 37/50/43 
f 31/41/66 62/80/66 58/76/47 
f 58/76/47 39/54/47 31/41/66 
f 40/56/51 32/44/51 56/74/51 
f 56/74/51 55/73/51 40/56/51 
f 16/19/67 68/86/67 65/83/54 
f 65/83/54 38/52/54 16/19/67 
s 1
f 62/80/28 61/79/24 76/96/16 
f 76/96/16 58/76/16 62/80/28 
f 68/86/12 67/85/11 77/97/25 
f 77/97/25 65/83/25 68/86/12 
f 61/79/24 79/99/21 51/69/40 
f 51/69/40 76/96/16 61/79/24 
f 77/97/25 67/85/11 80/100/12 
f 80/100/12 54/72/25 77/97/25 
s 16
f 73/101/68 75/102/69 53/103/70 
f 53/103/70 64/104/71 73/101/68 
f 78/105/72 50/68/73 45/62/74 
f 45/62/74 48/106/75 78/105/72 
f 78/105/72 77/107/76 51/69/77 
f 51/69/77 50/68/73 78/105/72 
s 2
f 77/107/78 54/108/79 76/96/80 
f 76/96/80 51/69/78 77/107/78 
s 16
f 54/109/81 53/103/70 75/102/69 
f 75/102/69 76/110/82 54/109/81 
f 72/90/83 73/101/68 64/104/71 
f 64/104/71 71/89/84 72/90/83 
f 48/106/75 45/62/74 44/61/85 
f 44/61/85 43/111/86 48/106/75 
# 156 faces

