# 3ds Max Wavefront OBJ Exporter v0.97b - (c)2007 guruware
# File Created: 26.01.2019 16:49:44

#
# object Garage
#

v  -3.7787 3.1172 -4.6748
v  -3.7778 3.1167 -4.5873
v  -2.7525 3.0545 -4.5873
v  -2.7530 3.0548 -4.6748
v  -0.8735 2.4905 -8.2500
v  -3.8246 2.5653 -8.2500
v  -3.9945 0.3206 -7.7628
v  -1.4534 0.3164 -7.7628
v  -1.4534 0.3194 -4.6864
v  -0.8735 2.5437 -4.6773
v  -2.4895 0.3227 -4.6864
v  -2.0768 2.6024 -4.6773
v  -3.8246 2.6917 -4.6773
v  -3.9945 0.3278 -4.6864
v  -0.7166 2.8646 -8.3818
v  -3.7787 2.9585 -8.3818
v  -0.7166 2.9315 -4.6748
v  -1.9652 3.0051 -4.6748
v  -1.9647 3.0048 -4.5873
v  -0.7166 2.9314 -4.5873
v  -2.8361 2.6420 -4.6773
v  -3.1433 0.3250 -4.6864
v  -2.8356 2.6417 -4.5929
v  -3.1429 0.3250 -4.6137
v  -2.0763 2.6022 -4.5929
v  -2.4891 0.3227 -4.6137
v  -4.0000 0.1157 -7.7468
v  -1.4724 0.1138 -7.7468
v  -1.4724 0.1152 -4.6867
v  -2.5030 0.1167 -4.6867
v  -4.0000 0.1190 -4.6867
v  -3.1533 0.1177 -4.6867
v  -2.7669 0.1168 -5.7067
# 33 vertices

vn 0.0606 0.9982 0.0048
vn 0.0606 0.9982 0.0049
vn 0.0618 0.9981 0.0031
vn 0.0061 0.2829 0.9591
vn 0.0074 0.2629 0.9648
vn 0.0017 0.1443 0.9895
vn 0.0002 0.1562 0.9877
vn -0.9439 0.3303 -0.0047
vn -0.9830 0.1834 -0.0002
vn -0.9847 0.1742 -0.0013
vn -0.9491 0.3151 -0.0047
vn 0.0002 0.0053 -1.0000
vn 0.0000 0.0029 -1.0000
vn 0.0000 0.0023 -1.0000
vn 0.0003 0.0053 -1.0000
vn 0.9959 -0.0909 0.0029
vn 0.9988 -0.0492 0.0001
vn 0.9986 -0.0525 0.0010
vn 0.9952 -0.0977 0.0035
vn 0.0085 0.3278 0.9447
vn 0.0097 0.3168 0.9485
vn -0.9267 0.3757 -0.0057
vn -0.9231 0.3846 -0.0069
vn 0.0003 0.0062 -1.0000
vn 0.0003 0.0060 -1.0000
vn 0.9935 -0.1141 0.0041
vn 0.9942 -0.1074 0.0046
vn 0.0609 0.9981 0.0022
vn 0.0609 0.9981 0.0023
vn 0.0588 0.9983 0.0015
vn 0.0588 0.9983 0.0014
vn 0.0000 0.0026 -1.0000
vn 0.0003 0.0048 -1.0000
vn 0.0003 0.0059 -1.0000
vn 0.0004 0.0058 -1.0000
vn 0.9913 -0.1314 -0.0056
vn 0.9913 -0.1314 -0.0053
vn -0.9840 0.1781 0.0056
vn -0.9840 0.1781 0.0052
vn -0.0521 -0.9986 -0.0025
vn -0.0520 -0.9986 -0.0019
vn 0.0034 1.0000 0.0002
vn 0.0034 1.0000 0.0001
vn 0.0001 0.0777 0.9970
vn 0.0001 0.0785 0.9969
vn -0.9956 0.0933 -0.0001
vn -0.9957 0.0926 -0.0000
vn 0.0000 0.0015 -1.0000
vn 0.0000 0.0014 -1.0000
vn 0.9996 -0.0266 0.0001
vn 0.9996 -0.0271 0.0000
vn 0.0008 1.0000 -0.0010
vn 0.0012 1.0000 -0.0007
vn 0.0015 1.0000 -0.0003
vn 0.0015 1.0000 -0.0004
vn 0.0011 1.0000 -0.0008
# 56 vertex normals

vt 0.3588 0.5489 0.0000
vt 0.3591 0.5518 0.0000
vt 0.3453 0.5556 0.0000
vt 0.3451 0.5530 0.0000
vt 0.3241 0.5104 0.0000
vt 0.3582 0.5139 0.0000
vt 0.3606 0.5105 0.0000
vt 0.3316 0.5106 0.0000
vt 0.3302 0.5377 0.0000
vt 0.3213 0.5431 0.0000
vt 0.3414 0.5409 0.0000
vt 0.3350 0.5494 0.0000
vt 0.3565 0.5471 0.0000
vt 0.3582 0.5377 0.0000
vt 0.3224 0.5077 0.0000
vt 0.3597 0.5118 0.0000
vt 0.3182 0.5446 0.0000
vt 0.3337 0.5520 0.0000
vt 0.3332 0.5546 0.0000
vt 0.3176 0.5474 0.0000
vt 0.3448 0.5503 0.0000
vt 0.3488 0.5409 0.0000
vt 0.3451 0.5497 0.0000
vt 0.3494 0.5408 0.0000
vt 0.3354 0.5488 0.0000
vt 0.3420 0.5410 0.0000
vt 0.7626 0.5074 0.0000
vt 0.7626 0.5188 0.0000
vt 0.8545 0.5188 0.0000
vt 0.8545 0.5074 0.0000
vt 0.3601 0.5116 0.0000
vt 0.3315 0.5115 0.0000
vt 0.3299 0.5385 0.0000
vt 0.3416 0.5396 0.0000
vt 0.3587 0.5386 0.0000
vt 0.3490 0.5397 0.0000
vt 0.3452 0.5301 0.0000
# 37 texture coords

o Garage
g Garage
s 1
f 1/1/1 2/2/2 3/3/3 
f 3/3/3 4/4/3 1/1/1 
s 2
f 5/5/4 6/6/5 7/7/6 
f 7/7/6 8/8/7 5/5/4 
s 4
f 5/5/8 8/8/9 9/9/10 
f 9/9/10 10/10/11 5/5/8 
s 2
f 10/10/12 9/9/13 11/11/14 
f 11/11/14 12/12/15 10/10/12 
s 4
f 13/13/16 14/14/17 7/7/18 
f 7/7/18 6/6/19 13/13/16 
s 2
f 15/15/20 16/16/21 6/6/5 
f 6/6/5 5/5/4 15/15/20 
s 4
f 17/17/22 15/15/23 5/5/8 
f 5/5/8 10/10/11 17/17/22 
s 2
f 17/17/24 10/10/12 12/12/15 
f 12/12/15 18/18/25 17/17/24 
s 4
f 16/16/26 1/1/27 13/13/16 
f 13/13/16 6/6/19 16/16/26 
s 1
f 18/18/28 19/19/29 20/20/30 
f 20/20/30 17/17/31 18/18/28 
s 2
f 21/21/15 22/22/14 14/14/32 
f 14/14/32 13/13/33 21/21/15 
f 4/4/34 21/21/15 13/13/33 
f 13/13/33 1/1/35 4/4/34 
s 1
f 19/19/29 18/18/28 4/4/3 
f 4/4/3 3/3/3 19/19/29 
s 2
f 21/21/15 4/4/34 18/18/25 
f 18/18/25 12/12/15 21/21/15 
s 1
f 23/23/36 24/24/37 22/22/37 
f 22/22/37 21/21/36 23/23/36 
f 25/25/38 12/12/38 11/11/39 
f 11/11/39 26/26/39 25/25/38 
s 4
f 23/27/40 21/28/40 12/29/41 
f 12/29/41 25/30/41 23/27/40 
s 8
f 22/22/42 24/24/42 26/26/43 
f 26/26/43 11/11/43 22/22/42 
s 2
f 27/31/44 28/32/45 8/8/7 
f 8/8/7 7/7/6 27/31/44 
s 4
f 28/32/46 29/33/47 9/9/10 
f 9/9/10 8/8/9 28/32/46 
s 2
f 29/33/48 30/34/49 11/11/14 
f 11/11/14 9/9/13 29/33/48 
s 4
f 31/35/50 27/31/51 7/7/18 
f 7/7/18 14/14/17 31/35/50 
s 2
f 32/36/49 31/35/49 14/14/32 
f 14/14/32 22/22/14 32/36/49 
f 30/34/49 32/36/49 22/22/14 
f 22/22/14 11/11/14 30/34/49 
s 1
f 27/31/52 31/35/53 33/37/53 
f 31/35/53 32/36/54 33/37/53 
f 32/36/54 30/34/54 33/37/53 
f 30/34/54 29/33/55 33/37/53 
f 29/33/55 28/32/56 33/37/53 
f 28/32/56 27/31/52 33/37/53 
# 54 faces

