# 3ds Max Wavefront OBJ Exporter v0.97b - (c)2007 guruware
# File Created: 27.01.2019 12:08:37

#
# object Plane001
#

v  3.1320 -0.0179 8.1025
v  0.6138 0.1692 8.0997
v  1.1765 -0.0179 10.3443
v  3.9765 -0.0179 10.3586
v  -6.1152 0.0223 -0.1390
v  -6.4443 0.2978 2.4656
v  -5.1755 0.2542 2.3844
v  -5.1239 -0.0172 -0.1463
v  -2.9296 -0.0179 -0.1539
v  -3.9224 -0.0171 -0.1506
v  -3.7788 0.3289 2.3596
v  -2.4566 0.3777 2.3279
v  -0.0000 -0.0000 0.0000
v  -1.4742 0.0008 -0.0633
v  -0.8129 0.3793 2.3858
v  0.9457 0.2729 2.5013
v  -7.6770 0.0086 2.5590
v  -7.9517 -0.0016 4.3275
v  -6.6327 0.2563 4.3377
v  -5.2346 0.1100 4.3262
v  -3.6796 0.3331 4.3142
v  1.6458 0.2417 4.3449
v  -0.3057 0.3415 4.3382
v  0.1779 0.2608 6.2437
v  2.4596 0.0633 6.2621
v  -8.3549 -0.0155 6.2316
v  -8.7061 -0.0179 8.0554
v  -7.0200 0.1714 8.1196
v  -6.8391 0.2635 6.2303
v  -5.3656 0.0323 8.0812
v  -3.4223 0.1339 8.1121
v  -3.5651 0.2380 6.2242
v  -5.3105 0.2415 6.2306
v  -1.9152 0.1334 6.2222
v  -2.1768 0.3350 4.3095
v  -3.2319 -0.0185 10.3217
v  -1.4250 -0.0180 10.3310
v  -1.7068 0.2522 8.1081
v  -7.1627 -0.0029 -0.1401
v  -5.4189 -0.0170 10.3107
v  -7.2183 -0.0179 10.3015
v  -9.1276 -0.0179 10.2917
# 42 vertices

vn 0.0733 0.9973 -0.0061
vn 0.0550 0.9970 0.0550
vn 0.0000 0.9963 0.0855
vn 0.0000 1.0000 -0.0000
vn 0.0061 0.9946 -0.1039
vn -0.1038 0.9925 -0.0641
vn -0.0122 0.9995 -0.0290
vn 0.0122 0.9942 -0.1069
vn 0.0000 0.9878 -0.1558
vn 0.0000 0.9905 -0.1374
vn -0.0458 0.9960 -0.0764
vn -0.0168 0.9969 -0.0763
vn 0.0061 0.9939 -0.1100
vn 0.0031 0.9883 -0.1527
vn 0.0336 0.9956 -0.0870
vn 0.0672 0.9945 -0.0809
vn -0.2321 0.9719 -0.0397
vn -0.1954 0.9803 -0.0275
vn -0.0367 0.9993 0.0031
vn -0.0305 0.9995 0.0031
vn -0.0733 0.9969 0.0275
vn 0.0489 0.9982 0.0336
vn 0.0244 0.9994 0.0244
vn 0.0183 0.9992 0.0367
vn 0.0855 0.9959 0.0305
vn -0.1772 0.9835 -0.0367
vn -0.1100 0.9938 -0.0183
vn -0.0122 0.9977 0.0672
vn -0.0855 0.9963 0.0122
vn 0.0061 0.9981 0.0611
vn -0.0611 0.9959 0.0672
vn 0.0305 0.9983 0.0489
vn 0.0122 0.9996 0.0244
vn -0.0061 0.9997 0.0244
vn -0.0031 0.9981 0.0611
vn 0.0000 0.9973 0.0733
vn 0.0000 0.9925 0.1222
vn -0.0092 0.9993 0.0367
vn -0.0244 0.9997 -0.0092
vn 0.0000 0.9997 0.0244
vn 0.0000 0.9952 0.0976
# 41 vertex normals

vt 0.0745 0.7915 0.0000
vt 0.0825 0.7915 0.0000
vt 0.0825 0.7968 0.0000
vt 0.0745 0.7968 0.0000
vt 0.1062 0.7721 0.0000
vt 0.1062 0.7785 0.0000
vt 0.1011 0.7785 0.0000
vt 0.1011 0.7721 0.0000
vt 0.0898 0.7721 0.0000
vt 0.0949 0.7721 0.0000
vt 0.0949 0.7785 0.0000
vt 0.0898 0.7785 0.0000
vt 0.0745 0.7721 0.0000
vt 0.0825 0.7721 0.0000
vt 0.0825 0.7785 0.0000
vt 0.0745 0.7785 0.0000
vt 0.1116 0.7785 0.0000
vt 0.1116 0.7827 0.0000
vt 0.1062 0.7827 0.0000
vt 0.1011 0.7827 0.0000
vt 0.0949 0.7827 0.0000
vt 0.0745 0.7827 0.0000
vt 0.0825 0.7827 0.0000
vt 0.0825 0.7872 0.0000
vt 0.0745 0.7872 0.0000
vt 0.1116 0.7872 0.0000
vt 0.1116 0.7915 0.0000
vt 0.1062 0.7915 0.0000
vt 0.1062 0.7872 0.0000
vt 0.1011 0.7915 0.0000
vt 0.0949 0.7915 0.0000
vt 0.0949 0.7872 0.0000
vt 0.1011 0.7872 0.0000
vt 0.0898 0.7872 0.0000
vt 0.0898 0.7827 0.0000
vt 0.0949 0.7968 0.0000
vt 0.0898 0.7968 0.0000
vt 0.0898 0.7915 0.0000
vt 0.1116 0.7721 0.0000
vt 0.1011 0.7968 0.0000
vt 0.1062 0.7968 0.0000
vt 0.1116 0.7968 0.0000
# 42 texture coords

o Plane001
g Plane001
s off
f 1/1/1 2/2/2 3/3/3 
f 3/3/3 4/4/4 1/1/1 
f 5/5/5 6/6/6 7/7/7 
f 7/7/7 8/8/8 5/5/5 
f 9/9/9 10/10/10 11/11/11 
f 11/11/11 12/12/12 9/9/9 
f 13/13/13 14/14/14 15/15/15 
f 15/15/15 16/16/16 13/13/13 
f 17/17/17 18/18/18 19/19/19 
f 19/19/19 6/6/6 17/17/17 
f 20/20/20 21/21/21 11/11/11 
f 11/11/11 7/7/7 20/20/20 
f 22/22/22 23/23/23 24/24/24 
f 24/24/24 25/25/25 22/22/22 
f 26/26/26 27/27/27 28/28/28 
f 28/28/28 29/29/29 26/26/26 
f 30/30/30 31/31/31 32/32/32 
f 32/32/32 33/33/33 30/30/30 
f 10/10/10 8/8/8 7/7/7 
f 7/7/7 11/11/11 10/10/10 
f 32/32/32 34/34/34 35/35/35 
f 35/35/35 21/21/21 32/32/32 
f 36/36/36 37/37/37 38/38/38 
f 38/38/38 31/31/31 36/36/36 
f 39/39/39 17/17/17 6/6/6 
f 6/6/6 5/5/5 39/39/39 
f 33/33/33 20/20/20 19/19/19 
f 19/19/19 29/29/29 33/33/33 
f 40/40/40 30/30/30 28/28/28 
f 28/28/28 41/41/41 40/40/40 
f 24/24/24 34/34/34 38/38/38 
f 38/38/38 2/2/2 24/24/24 
f 14/14/14 9/9/9 12/12/12 
f 12/12/12 15/15/15 14/14/14 
f 15/15/15 12/12/12 35/35/35 
f 35/35/35 23/23/23 15/15/15 
f 18/18/18 26/26/26 29/29/29 
f 29/29/29 19/19/19 18/18/18 
f 33/33/33 32/32/32 21/21/21 
f 21/21/21 20/20/20 33/33/33 
f 16/16/16 15/15/15 23/23/23 
f 23/23/23 22/22/22 16/16/16 
f 12/12/12 11/11/11 21/21/21 
f 21/21/21 35/35/35 12/12/12 
f 20/20/20 7/7/7 6/6/6 
f 6/6/6 19/19/19 20/20/20 
f 34/34/34 24/24/24 23/23/23 
f 23/23/23 35/35/35 34/34/34 
f 25/25/25 24/24/24 2/2/2 
f 2/2/2 1/1/1 25/25/25 
f 27/27/27 42/42/4 41/41/41 
f 41/41/41 28/28/28 27/27/27 
f 40/40/40 36/36/36 31/31/31 
f 31/31/31 30/30/30 40/40/40 
f 34/34/34 32/32/32 31/31/31 
f 31/31/31 38/38/38 34/34/34 
f 30/30/30 33/33/33 29/29/29 
f 29/29/29 28/28/28 30/30/30 
f 37/37/37 3/3/3 2/2/2 
f 2/2/2 38/38/38 37/37/37 
# 60 faces

