# 3ds Max Wavefront OBJ Exporter v0.97b - (c)2007 guruware
# File Created: 26.01.2019 16:48:57

#
# object KitchenCounter
#

v  -0.4454 0.0210 1.5600
v  0.4454 0.0210 1.5600
v  0.4454 0.0210 1.6281
v  -0.4454 0.0210 1.6281
v  0.3070 1.0323 1.8113
v  0.3070 1.0323 1.7396
v  -0.5839 1.0323 1.7396
v  -0.5839 1.0323 1.8113
v  0.4297 0.1362 1.6489
v  -0.4612 0.1362 1.6489
v  0.4297 0.1362 1.5804
v  -0.4454 0.0210 -1.6178
v  -0.4612 0.1362 -1.6165
v  0.4297 0.1362 -1.6165
v  0.4454 0.0210 -1.6178
v  -0.4454 0.0210 -1.5559
v  -0.4612 0.1362 -1.5542
v  0.4454 0.0210 -1.5559
v  0.4454 0.0210 0.0812
v  -0.4454 0.0210 0.0812
v  0.3070 1.0323 -1.5409
v  -0.5839 1.0323 -1.5409
v  -0.5839 1.0323 0.1827
v  0.3070 1.0323 0.1827
v  0.4297 0.1362 -1.5542
v  0.4297 0.1362 0.0927
v  -0.4454 0.0210 0.4411
v  -0.4612 0.1362 0.4548
v  -0.4612 0.1362 0.0927
v  0.4454 0.0210 0.4411
v  -0.5839 1.0323 0.5616
v  0.3070 1.0323 0.5616
v  0.4297 0.1362 0.4548
v  -0.4612 0.1362 1.5804
v  -0.5722 0.9472 1.7958
v  0.3186 0.9472 1.7958
v  0.3186 0.9472 1.7244
v  0.3186 0.9472 0.5514
v  -0.5722 0.9472 -1.6071
v  -0.5839 1.0323 -1.6061
v  0.3070 1.0323 -1.6061
v  0.3186 0.9472 -1.6071
v  -0.5722 0.9472 0.1741
v  -0.5722 0.9472 -1.5421
v  0.3186 0.9472 -1.5421
v  -0.5722 0.9472 0.5514
v  0.3186 0.9472 0.1741
v  -0.5722 0.9472 1.7244
v  0.3477 0.9219 0.5782
v  0.3477 0.9219 1.6886
v  0.4506 0.1703 1.5551
v  0.4506 0.1703 0.4886
v  -0.2571 0.8450 -1.5421
v  -0.2571 0.8450 0.1741
v  -0.1460 0.0340 0.0927
v  -0.1460 0.0340 -1.5542
v  -0.4508 1.0176 0.8507
v  -0.4173 1.0176 0.9426
v  -0.4173 1.0576 0.9426
v  -0.4508 1.0576 0.8507
v  -0.3366 1.0176 0.9807
v  -0.3366 1.0576 0.9807
v  -0.2558 1.0176 0.9426
v  -0.2558 1.0576 0.9426
v  -0.2224 1.0176 0.8507
v  -0.2224 1.0576 0.8507
v  -0.2558 1.0176 0.7587
v  -0.2558 1.0576 0.7587
v  -0.3366 1.0176 0.7207
v  -0.3366 1.0576 0.7207
v  -0.4173 1.0176 0.7587
v  -0.4173 1.0576 0.7587
v  -0.4947 1.0176 1.3820
v  -0.4484 1.0176 1.5093
v  -0.4484 1.0576 1.5093
v  -0.4947 1.0576 1.3820
v  -0.3366 1.0176 1.5620
v  -0.3366 1.0576 1.5620
v  -0.2248 1.0176 1.5093
v  -0.2248 1.0576 1.5093
v  -0.1785 1.0176 1.3820
v  -0.1785 1.0576 1.3820
v  -0.2248 1.0176 1.2547
v  -0.2248 1.0576 1.2547
v  -0.3366 1.0176 1.2020
v  -0.3366 1.0576 1.2020
v  -0.4484 1.0176 1.2547
v  -0.4484 1.0576 1.2547
v  0.1404 1.0176 1.4369
v  0.1070 1.0176 1.3449
v  0.1070 1.0576 1.3449
v  0.1404 1.0576 1.4369
v  0.0262 1.0176 1.3069
v  0.0262 1.0576 1.3069
v  -0.0545 1.0176 1.3449
v  -0.0545 1.0576 1.3449
v  -0.0880 1.0176 1.4369
v  -0.0880 1.0576 1.4369
v  -0.0545 1.0176 1.5288
v  -0.0545 1.0576 1.5288
v  0.0262 1.0176 1.5669
v  0.0262 1.0576 1.5669
v  0.1070 1.0176 1.5288
v  0.1070 1.0576 1.5288
v  0.1380 1.0576 0.7783
v  0.1843 1.0576 0.9056
v  0.1843 1.0176 0.9056
v  0.1380 1.0176 0.7783
v  0.0262 1.0576 0.7256
v  0.0262 1.0176 0.7256
v  -0.0856 1.0576 0.7783
v  -0.0856 1.0176 0.7783
v  -0.1319 1.0576 0.9056
v  -0.1319 1.0176 0.9056
v  -0.0856 1.0576 1.0328
v  -0.0856 1.0176 1.0328
v  0.0262 1.0576 1.0856
v  0.0262 1.0176 1.0856
v  0.1380 1.0576 1.0328
v  0.1380 1.0176 1.0328
v  0.0262 1.0576 0.9056
v  -0.3366 1.0576 0.8507
v  -0.3366 1.0576 1.3820
v  0.0262 1.0576 1.4369
# 124 vertices

vn 0.0000 -1.0000 -0.0000
vn 0.0000 1.0000 -0.0000
vn -0.0000 -0.1783 0.9840
vn 0.0000 -0.1783 0.9840
vn 0.9908 0.1356 -0.0000
vn 0.9908 0.1356 0.0000
vn 0.0000 0.0116 -0.9999
vn -0.9908 -0.1356 -0.0000
vn -0.0173 0.0975 -0.9951
vn -0.1747 0.9846 -0.0000
vn 0.0026 -0.0145 0.9999
vn 0.1747 -0.9846 -0.0000
vn 0.6566 0.7543 -0.0000
vn 0.7744 -0.0063 0.6326
vn 0.8528 -0.5222 -0.0000
vn 0.7460 0.1786 -0.6415
vn -1.0000 0.0000 -0.0000
vn -0.7387 0.0000 0.6740
vn -0.0000 0.0000 1.0000
vn 0.7387 0.0000 0.6740
vn 1.0000 0.0000 -0.0000
vn 0.7387 0.0000 -0.6740
vn 0.0000 0.0000 -1.0000
vn -0.7387 0.0000 -0.6740
vn 0.0000 0.0000 1.0000
vn 1.0000 0.0000 0.0000
vn -0.0000 0.0000 -1.0000
vn -1.0000 0.0000 0.0000
# 28 vertex normals

vt 0.2328 0.4558 0.0000
vt 0.2242 0.4570 0.0000
vt 0.2242 0.4564 0.0000
vt 0.2327 0.4552 0.0000
vt 0.2153 0.4561 0.0000
vt 0.2154 0.4567 0.0000
vt 0.2069 0.4579 0.0000
vt 0.2068 0.4572 0.0000
vt 0.2070 0.4483 0.0000
vt 0.2155 0.4471 0.0000
vt 0.2155 0.4481 0.0000
vt 0.2069 0.4493 0.0000
vt 0.2232 0.4570 0.0000
vt 0.2232 0.4564 0.0000
vt 0.2133 0.4948 0.0000
vt 0.2130 0.4939 0.0000
vt 0.2215 0.4927 0.0000
vt 0.2218 0.4936 0.0000
vt 0.2021 0.4872 0.0000
vt 0.2031 0.4870 0.0000
vt 0.2032 0.4875 0.0000
vt 0.2022 0.4877 0.0000
vt 0.2364 0.4824 0.0000
vt 0.2279 0.4836 0.0000
vt 0.2260 0.4696 0.0000
vt 0.2345 0.4684 0.0000
vt 0.2192 0.4846 0.0000
vt 0.2107 0.4858 0.0000
vt 0.2087 0.4711 0.0000
vt 0.2172 0.4699 0.0000
vt 0.2269 0.4837 0.0000
vt 0.2250 0.4696 0.0000
vt 0.1998 0.4701 0.0000
vt 0.2008 0.4699 0.0000
vt 0.2012 0.4730 0.0000
vt 0.2002 0.4732 0.0000
vt 0.2255 0.4665 0.0000
vt 0.2341 0.4654 0.0000
vt 0.2083 0.4679 0.0000
vt 0.2168 0.4667 0.0000
vt 0.2245 0.4666 0.0000
vt 0.1985 0.4606 0.0000
vt 0.1995 0.4603 0.0000
vt 0.2068 0.4565 0.0000
vt 0.2154 0.4553 0.0000
vt 0.2162 0.4567 0.0000
vt 0.2175 0.4667 0.0000
vt 0.2110 0.4871 0.0000
vt 0.2108 0.4864 0.0000
vt 0.2193 0.4852 0.0000
vt 0.2195 0.4859 0.0000
vt 0.2080 0.4713 0.0000
vt 0.2100 0.4859 0.0000
vt 0.2200 0.4846 0.0000
vt 0.2200 0.4851 0.0000
vt 0.2076 0.4681 0.0000
vt 0.2180 0.4699 0.0000
vt 0.2061 0.4575 0.0000
vt 0.2062 0.4581 0.0000
vt 0.6807 0.4826 0.0000
vt 0.6293 0.4915 0.0000
vt 0.6281 0.4589 0.0000
vt 0.6779 0.4503 0.0000
vt 0.2269 0.4842 0.0000
vt 0.1994 0.4597 0.0000
vt 0.2365 0.4829 0.0000
vt 0.2279 0.4841 0.0000
vt 0.2101 0.4865 0.0000
vt 0.7889 0.2901 0.0000
vt 0.7742 0.2911 0.0000
vt 0.7740 0.2826 0.0000
vt 0.7948 0.2766 0.0000
vt 0.7662 0.3034 0.0000
vt 0.7596 0.2788 0.0000
vt 0.7906 0.2623 0.0000
vt 0.8050 0.2852 0.0000
vt 0.7954 0.2992 0.0000
vt 0.1984 0.4600 0.0000
vt 0.2161 0.4561 0.0000
vt 0.6830 0.4841 0.0000
vt 0.6273 0.4936 0.0000
vt 0.6259 0.4573 0.0000
vt 0.6797 0.4482 0.0000
vt 0.8551 0.5190 -7.0489
vt 0.8603 0.5225 7.0489
vt 0.8595 0.5272 -7.0489
vt 0.8549 0.5233 -7.0489
vt 0.8188 0.5225 7.0489
vt 0.8240 0.5220 -7.0489
vt 0.8241 0.5264 -7.0489
vt 0.8189 0.5269 -7.0489
vt 0.8292 0.5215 -7.0489
vt 0.8292 0.5259 -7.0489
vt 0.8343 0.5210 -7.0489
vt 0.8344 0.5255 -7.0489
vt 0.8395 0.5205 -7.0489
vt 0.8396 0.5250 -7.0489
vt 0.8447 0.5200 -7.0489
vt 0.8448 0.5245 -7.0489
vt 0.8499 0.5195 -7.0489
vt 0.8500 0.5240 -7.0489
vt 0.8447 0.5567 0.0000
vt 0.8281 0.5478 0.0000
vt 0.8294 0.5466 0.0000
vt 0.8448 0.5549 0.0000
vt 0.8223 0.5290 0.0000
vt 0.8240 0.5291 0.0000
vt 0.8306 0.5112 0.0000
vt 0.8317 0.5126 0.0000
vt 0.8482 0.5049 0.0000
vt 0.8480 0.5068 0.0000
vt 0.8647 0.5138 0.0000
vt 0.8635 0.5150 0.0000
vt 0.8706 0.5327 0.0000
vt 0.8689 0.5326 0.0000
vt 0.8623 0.5505 0.0000
vt 0.8612 0.5491 0.0000
vt 0.8500 0.5171 -7.0478
vt 0.8540 0.5208 7.0478
vt 0.8534 0.5259 -7.0478
vt 0.8498 0.5217 -7.0478
vt 0.8221 0.5208 7.0478
vt 0.8260 0.5203 -7.0478
vt 0.8261 0.5251 -7.0478
vt 0.8221 0.5256 -7.0478
vt 0.8300 0.5197 -7.0478
vt 0.8301 0.5245 -7.0478
vt 0.8340 0.5192 -7.0478
vt 0.8341 0.5240 -7.0478
vt 0.8380 0.5187 -7.0478
vt 0.8381 0.5235 -7.0478
vt 0.8420 0.5181 -7.0478
vt 0.8421 0.5229 -7.0478
vt 0.8460 0.5176 -7.0478
vt 0.8461 0.5224 -7.0478
vt 0.8572 0.5215 -9.6614
vt 0.8531 0.5154 -9.6614
vt 0.8533 0.5107 -9.6614
vt 0.8577 0.5163 9.6614
vt 0.8263 0.5204 -9.6614
vt 0.8218 0.5212 -9.6614
vt 0.8218 0.5163 9.6614
vt 0.8263 0.5155 -9.6614
vt 0.8309 0.5196 -9.6614
vt 0.8308 0.5147 -9.6614
vt 0.8354 0.5188 -9.6614
vt 0.8353 0.5139 -9.6614
vt 0.8399 0.5180 -9.6614
vt 0.8398 0.5131 -9.6614
vt 0.8444 0.5172 -9.6614
vt 0.8443 0.5123 -9.6614
vt 0.8489 0.5164 -9.6614
vt 0.8488 0.5115 -9.6614
vt 0.8512 0.5587 -9.6614
vt 0.8471 0.5490 -9.6614
vt 0.8523 0.5358 -9.6614
vt 0.8462 0.5313 -9.6614
vt 0.8584 0.5391 -9.6614
vt 0.8559 0.5546 -9.6614
vt 0.8539 0.5365 -7.0489
vt 0.8609 0.5386 -7.0489
vt 0.8581 0.5487 -7.0489
vt 0.8527 0.5514 -7.0489
vt 0.8481 0.5452 -7.0489
vt 0.8469 0.5337 -7.0489
vt 0.8464 0.5308 0.0000
vt 0.8491 0.5360 -7.0478
vt 0.8545 0.5382 -7.0478
vt 0.8523 0.5491 -7.0478
vt 0.8482 0.5521 -7.0478
vt 0.8446 0.5453 -7.0478
vt 0.8437 0.5329 -7.0478
# 172 texture coords

o KitchenCounter
g KitchenCounter
s 2
f 1/1/1 2/2/1 3/3/1 
f 3/3/1 4/4/1 1/1/1 
s 4
f 5/5/2 6/6/2 7/7/2 
f 7/7/2 8/8/2 5/5/2 
s 8
f 4/9/3 3/10/4 9/11/3 
f 9/11/3 10/12/3 4/9/3 
s 16
f 3/3/5 2/2/6 11/13/5 
f 11/13/5 9/14/5 3/3/5 
s 32
f 12/15/7 13/16/7 14/17/7 
f 14/17/7 15/18/7 12/15/7 
s 64
f 16/19/8 17/20/8 13/21/8 
f 13/21/8 12/22/8 16/19/8 
s 2
f 16/23/1 18/24/1 19/25/1 
f 19/25/1 20/26/1 16/23/1 
s 4
f 21/27/2 22/28/2 23/29/2 
f 23/29/2 24/30/2 21/27/2 
s 16
f 19/25/5 18/24/5 25/31/5 
f 25/31/5 26/32/5 19/25/5 
s 64
f 27/33/8 28/34/8 29/35/8 
f 29/35/8 20/36/8 27/33/8 
s 2
f 20/26/1 19/25/1 30/37/1 
f 30/37/1 27/38/1 20/26/1 
s 4
f 24/30/2 23/29/2 31/39/2 
f 31/39/2 32/40/2 24/30/2 
s 16
f 30/37/6 19/25/5 26/32/5 
f 26/32/5 33/41/6 30/37/6 
s 64
f 1/42/8 34/43/8 28/34/8 
f 28/34/8 27/33/8 1/42/8 
s 8
f 5/5/4 8/8/4 35/44/4 
f 35/44/4 36/45/3 5/5/4 
s 16
f 32/40/5 6/6/5 37/46/5 
f 37/46/5 38/47/5 32/40/5 
s 32
f 39/48/7 40/49/7 41/50/7 
f 41/50/7 42/51/7 39/48/7 
s 64
f 43/52/8 23/29/8 22/28/8 
f 22/28/8 44/53/8 43/52/8 
s 16
f 41/50/5 21/27/5 45/54/5 
f 45/54/5 42/55/5 41/50/5 
s 64
f 46/56/8 31/39/8 23/29/8 
f 23/29/8 43/52/8 46/56/8 
s 16
f 24/30/5 32/40/5 38/47/5 
f 38/47/5 47/57/5 24/30/5 
s 64
f 35/58/8 8/8/8 7/7/8 
f 7/7/8 48/59/8 35/58/8 
s 8
f 36/45/3 35/44/4 10/12/3 
f 10/12/3 9/11/3 36/45/3 
s 16
f 49/60/5 50/61/5 51/62/5 
f 51/62/5 52/63/5 49/60/5 
s 32
f 13/16/7 39/48/7 42/51/7 
f 42/51/7 14/17/7 13/16/7 
s 64
f 29/35/8 43/52/8 44/53/8 
f 44/53/8 17/20/8 29/35/8 
s 16
f 42/55/5 45/54/5 25/31/5 
f 25/31/5 14/64/5 42/55/5 
s 64
f 28/34/8 46/56/8 43/52/8 
f 43/52/8 29/35/8 28/34/8 
s 16
f 47/57/5 38/47/5 33/41/6 
f 33/41/6 26/32/5 47/57/5 
s 64
f 10/65/8 35/58/8 48/59/8 
f 48/59/8 34/43/8 10/65/8 
f 20/36/8 29/35/8 17/20/8 
f 17/20/8 16/19/8 20/36/8 
s 2
f 12/66/1 15/67/1 18/24/1 
f 18/24/1 16/23/1 12/66/1 
s 4
f 41/50/2 40/49/2 22/28/2 
f 22/28/2 21/27/2 41/50/2 
s 16
f 18/24/5 15/67/5 14/64/5 
f 14/64/5 25/31/5 18/24/5 
s 64
f 40/49/8 39/68/8 44/53/8 
f 44/53/8 22/28/8 40/49/8 
s 16
f 21/27/5 24/30/5 47/57/5 
f 47/57/5 45/54/5 21/27/5 
s 64
f 39/68/8 13/21/8 17/20/8 
f 17/20/8 44/53/8 39/68/8 
s 16
f 53/69/5 54/70/5 55/71/5 
f 55/71/5 56/72/5 53/69/5 
s off
f 47/73/9 26/74/9 55/71/9 
f 55/71/9 54/70/9 47/73/9 
f 26/74/10 25/75/10 56/72/10 
f 56/72/10 55/71/10 26/74/10 
f 25/76/11 45/77/11 53/69/11 
f 53/69/11 56/72/11 25/76/11 
f 45/77/12 47/73/12 54/70/12 
f 54/70/12 53/69/12 45/77/12 
s 2
f 27/38/1 30/37/1 2/2/1 
f 2/2/1 1/1/1 27/38/1 
s 4
f 32/40/2 31/39/2 7/7/2 
f 7/7/2 6/6/2 32/40/2 
s 16
f 2/2/6 30/37/6 33/41/6 
f 33/41/6 11/13/5 2/2/6 
s 64
f 4/78/8 10/65/8 34/43/8 
f 34/43/8 1/42/8 4/78/8 
s 16
f 6/6/5 5/5/5 36/79/5 
f 36/79/5 37/46/5 6/6/5 
s 64
f 31/39/8 46/56/8 48/59/8 
f 48/59/8 7/7/8 31/39/8 
s 16
f 37/46/5 36/79/5 9/14/5 
f 9/14/5 11/13/5 37/46/5 
s 64
f 46/56/8 28/34/8 34/43/8 
f 34/43/8 48/59/8 46/56/8 
s off
f 38/80/13 37/81/13 50/61/13 
f 50/61/13 49/60/13 38/80/13 
f 37/81/14 11/82/14 51/62/14 
f 51/62/14 50/61/14 37/81/14 
f 11/82/15 33/83/15 52/63/15 
f 52/63/15 51/62/15 11/82/15 
f 33/83/16 38/80/16 49/60/16 
f 49/60/16 52/63/16 33/83/16 
s 8
f 57/84/17 58/85/18 59/86/18 
f 59/86/18 60/87/17 57/84/17 
f 58/88/18 61/89/19 62/90/19 
f 62/90/19 59/91/18 58/88/18 
f 61/89/19 63/92/20 64/93/20 
f 64/93/20 62/90/19 61/89/19 
f 63/92/20 65/94/21 66/95/21 
f 66/95/21 64/93/20 63/92/20 
f 65/94/21 67/96/22 68/97/22 
f 68/97/22 66/95/21 65/94/21 
f 67/96/22 69/98/23 70/99/23 
f 70/99/23 68/97/22 67/96/22 
f 69/98/23 71/100/24 72/101/24 
f 72/101/24 70/99/23 69/98/23 
f 71/100/24 57/84/17 60/87/17 
f 60/87/17 72/101/24 71/100/24 
f 73/102/17 74/103/18 75/104/18 
f 75/104/18 76/105/17 73/102/17 
f 74/103/18 77/106/25 78/107/25 
f 78/107/25 75/104/18 74/103/18 
f 77/106/25 79/108/20 80/109/20 
f 80/109/20 78/107/25 77/106/25 
f 79/108/20 81/110/26 82/111/21 
f 82/111/21 80/109/20 79/108/20 
f 81/110/26 83/112/22 84/113/22 
f 84/113/22 82/111/21 81/110/26 
f 83/112/22 85/114/23 86/115/23 
f 86/115/23 84/113/22 83/112/22 
f 85/114/23 87/116/24 88/117/24 
f 88/117/24 86/115/23 85/114/23 
f 87/116/24 73/102/17 76/105/17 
f 76/105/17 88/117/24 87/116/24 
f 89/118/21 90/119/22 91/120/22 
f 91/120/22 92/121/21 89/118/21 
f 90/122/22 93/123/27 94/124/27 
f 94/124/27 91/125/22 90/122/22 
f 93/123/27 95/126/24 96/127/24 
f 96/127/24 94/124/27 93/123/27 
f 95/126/24 97/128/28 98/129/28 
f 98/129/28 96/127/24 95/126/24 
f 97/128/28 99/130/18 100/131/18 
f 100/131/18 98/129/28 97/128/28 
f 99/130/18 101/132/25 102/133/25 
f 102/133/25 100/131/18 99/130/18 
f 101/132/25 103/134/20 104/135/20 
f 104/135/20 102/133/25 101/132/25 
f 103/134/20 89/118/21 92/121/21 
f 92/121/21 104/135/20 103/134/20 
f 105/136/22 106/137/26 107/138/26 
f 107/138/26 108/139/22 105/136/22 
f 109/140/27 105/141/22 108/142/22 
f 108/142/22 110/143/27 109/140/27 
f 111/144/24 109/140/27 110/143/27 
f 110/143/27 112/145/24 111/144/24 
f 113/146/28 111/144/24 112/145/24 
f 112/145/24 114/147/28 113/146/28 
f 115/148/18 113/146/28 114/147/28 
f 114/147/28 116/149/18 115/148/18 
f 117/150/25 115/148/18 116/149/18 
f 116/149/18 118/151/25 117/150/25 
f 119/152/20 117/150/25 118/151/25 
f 118/151/25 120/153/20 119/152/20 
f 106/137/26 119/152/20 120/153/20 
f 120/153/20 107/138/26 106/137/26 
s 1
f 113/154/2 115/155/2 121/156/2 
f 115/155/2 117/157/2 121/156/2 
f 117/157/2 119/152/2 121/156/2 
f 119/152/2 106/137/2 121/156/2 
f 106/137/2 105/136/2 121/156/2 
f 105/136/2 109/158/2 121/156/2 
f 109/158/2 111/159/2 121/156/2 
f 111/159/2 113/154/2 121/156/2 
f 72/101/2 60/87/2 122/160/2 
f 60/87/2 59/86/2 122/160/2 
f 59/86/2 62/161/2 122/160/2 
f 62/161/2 64/162/2 122/160/2 
f 64/162/2 66/163/2 122/160/2 
f 66/163/2 68/164/2 122/160/2 
f 68/164/2 70/165/2 122/160/2 
f 70/165/2 72/101/2 122/160/2 
f 88/117/2 76/105/2 123/166/2 
f 76/105/2 75/104/2 123/166/2 
f 75/104/2 78/107/2 123/166/2 
f 78/107/2 80/109/2 123/166/2 
f 80/109/2 82/111/2 123/166/2 
f 82/111/2 84/113/2 123/166/2 
f 84/113/2 86/115/2 123/166/2 
f 86/115/2 88/117/2 123/166/2 
f 104/135/2 92/121/2 124/167/2 
f 92/121/2 91/120/2 124/167/2 
f 91/120/2 94/168/2 124/167/2 
f 94/168/2 96/169/2 124/167/2 
f 96/169/2 98/170/2 124/167/2 
f 98/170/2 100/171/2 124/167/2 
f 100/171/2 102/172/2 124/167/2 
f 102/172/2 104/135/2 124/167/2 
# 204 faces

