# 3ds Max Wavefront OBJ Exporter v0.97b - (c)2007 guruware
# File Created: 26.01.2019 16:48:36

#
# object LivingRoom
#

v  -4.8497 2.6400 -2.5018
v  -4.8497 2.5554 -0.8259
v  -4.8771 0.3201 -1.3701
v  -4.8771 0.3249 -2.8131
v  -4.8497 2.7273 -4.5929
v  -4.8497 2.6788 -3.2611
v  -4.8771 0.3270 -3.4669
v  -4.8771 0.3298 -4.6137
v  -3.1429 0.3250 -4.6137
v  -2.8356 2.6417 -4.5929
v  -0.8735 2.5436 -4.5929
v  -1.4534 0.3194 -4.6137
v  -1.4534 0.3158 -1.3701
v  -0.8735 2.4804 -0.8259
v  -4.8423 2.9461 -0.6787
v  -0.7166 2.8519 -0.6787
v  -4.8423 3.0523 -2.4176
v  -4.8423 3.1009 -3.2054
v  -4.8423 3.1618 -4.5873
v  -2.7525 3.0545 -4.5873
v  -0.7166 2.9314 -4.5873
v  -2.0763 2.6022 -4.5929
v  -2.4891 0.3227 -4.6137
v  -1.9647 3.0048 -4.5873
v  -4.2434 2.3748 -0.8884
v  -4.3243 0.9503 -1.2765
v  -1.5065 2.3248 -0.8884
v  -1.8631 0.9380 -1.2765
v  -1.8631 0.9375 -1.2019
v  -4.3243 0.9495 -1.2019
v  -4.2434 2.3714 -0.8053
v  -1.5065 2.3226 -0.8053
v  -3.8095 0.3253 -3.4344
# 33 vertices

vn 0.9999 -0.0158 -0.0007
vn 0.9999 -0.0158 -0.0009
vn 0.9999 -0.0120 -0.0003
vn 0.9999 -0.0119 -0.0000
vn 0.9999 -0.0144 -0.0005
vn 0.9999 -0.0156 -0.0007
vn 0.9999 -0.0115 -0.0002
vn 0.9999 -0.0114 -0.0000
vn -0.0004 -0.0109 0.9999
vn -0.0000 -0.0087 1.0000
vn -0.0002 -0.0088 1.0000
vn -0.0006 -0.0120 0.9999
vn -0.9488 0.3159 0.0047
vn -0.9677 0.2523 0.0003
vn -0.9667 0.2559 0.0029
vn -0.9425 0.3340 0.0056
vn 0.0068 0.3533 -0.9355
vn 0.0083 0.3653 -0.9309
vn 0.0082 0.3646 -0.9311
vn 0.0067 0.3525 -0.9358
vn 0.9998 -0.0178 -0.0009
vn 0.9998 -0.0186 -0.0011
vn 0.9998 -0.0175 -0.0009
vn 0.9999 -0.0172 -0.0007
vn -0.0006 -0.0130 0.9999
vn -0.0007 -0.0136 0.9999
vn -0.9226 0.3857 0.0066
vn -0.9270 0.3749 0.0076
vn -0.0006 -0.0122 0.9999
vn -0.0000 -0.0091 1.0000
vn -0.0001 -0.0092 1.0000
vn -0.0007 -0.0121 0.9999
vn -0.0008 -0.0138 0.9999
vn -0.0008 -0.0142 0.9999
vn -0.1440 0.2678 -0.9527
vn -0.0295 0.2368 -0.9711
vn 0.0063 0.3457 -0.9383
vn 0.0066 0.3492 -0.9370
vn 0.0307 0.2621 -0.9646
vn 0.1058 0.2157 -0.9707
vn 0.0007 0.1492 -0.9888
vn 0.0002 0.1467 -0.9892
vn 0.0050 1.0000 0.0071
vn 0.0050 1.0000 0.0070
vn 0.0049 0.9999 0.0111
vn 0.0049 0.9999 0.0112
vn -0.0183 -0.9990 -0.0408
vn -0.0183 -0.9990 -0.0411
vn -0.0178 -0.9995 -0.0261
vn -0.0178 -0.9995 -0.0258
vn -0.9688 0.2476 0.0064
vn -0.9686 0.2486 0.0017
vn 0.9984 -0.0567 -0.0006
vn 0.9984 -0.0561 -0.0023
vn 0.0012 1.0000 0.0032
vn 0.0031 1.0000 0.0011
vn 0.0032 1.0000 0.0014
vn 0.0034 1.0000 0.0016
vn 0.0028 1.0000 0.0013
vn 0.0015 1.0000 0.0024
vn 0.0015 1.0000 0.0033
# 61 vertex normals

vt 0.0339 0.9673 0.0000
vt 0.0317 0.9634 0.0000
vt 0.0409 0.9626 0.0000
vt 0.0430 0.9659 0.0000
vt 0.0367 0.9721 0.0000
vt 0.0349 0.9691 0.0000
vt 0.0440 0.9674 0.0000
vt 0.0457 0.9700 0.0000
vt 0.0482 0.9740 0.0000
vt 0.0399 0.9767 0.0000
vt 0.0430 0.9812 0.0000
vt 0.0506 0.9778 0.0000
vt 0.0585 0.9841 0.0000
vt 0.0528 0.9885 0.0000
vt 0.0042 0.9784 0.0000
vt 0.0266 0.9944 0.0000
vt 0.0281 0.9924 0.0000
vt 0.0066 0.9769 0.0000
vt 0.0323 0.9675 0.0000
vt 0.0301 0.9634 0.0000
vt 0.0333 0.9693 0.0000
vt 0.0351 0.9725 0.0000
vt 0.0384 0.9773 0.0000
vt 0.0519 0.9895 0.0000
vt 0.0417 0.9819 0.0000
vt 0.0411 0.9784 0.0000
vt 0.0490 0.9754 0.0000
vt 0.0397 0.9790 0.0000
vt 0.8505 0.4362 0.0000
vt 0.0257 0.9892 0.0000
vt 0.0109 0.9786 0.0000
vt 0.0321 0.9826 0.0000
vt 0.0380 0.9820 0.0000
vt 0.0192 0.9729 0.0000
vt 0.0200 0.9684 0.0000
vt 0.5182 0.2597 0.0000
vt 0.5174 0.2582 0.0000
vt 0.5496 0.2907 0.0000
vt 0.5480 0.2898 0.0000
vt 0.5422 0.2962 0.0000
vt 0.5428 0.2977 0.0000
vt 0.5068 0.2627 0.0000
vt 0.5085 0.2634 0.0000
vt 0.9477 0.9092 0.0000
vt 0.9702 0.8852 0.0000
vt 0.9688 0.9156 0.0000
vt 0.9923 0.9071 0.0000
vt 0.9855 0.9143 0.0000
vt 0.9812 0.9189 0.0000
vt 0.9698 0.9310 0.0000
vt 0.9620 0.9233 0.0000
vt 0.9575 0.9189 0.0000
# 52 texture coords

o LivingRoom
g LivingRoom
s 4
f 1/1/1 2/2/2 3/3/3 
f 3/3/3 4/4/4 1/1/1 
f 5/5/5 6/6/6 7/7/7 
f 7/7/7 8/8/8 5/5/5 
s 2
f 5/5/9 8/8/10 9/9/11 
f 9/9/11 10/10/12 5/5/9 
s 4
f 11/11/13 12/12/14 13/13/15 
f 13/13/15 14/14/16 11/11/13 
s 2
f 15/15/17 16/16/18 14/17/19 
f 14/17/19 2/18/20 15/15/17 
s 4
f 17/19/21 15/20/22 2/2/2 
f 2/2/2 1/1/1 17/19/21 
f 17/19/21 1/1/1 6/6/6 
f 6/6/6 18/21/23 17/19/21 
f 19/22/24 18/21/23 6/6/6 
f 6/6/6 5/5/5 19/22/24 
s 2
f 19/22/25 5/5/9 10/10/12 
f 10/10/12 20/23/26 19/22/25 
s 4
f 16/24/27 21/25/28 11/11/13 
f 11/11/13 14/14/16 16/24/27 
s 2
f 22/26/29 23/27/30 12/12/31 
f 12/12/31 11/11/32 22/26/29 
f 24/28/33 22/26/29 11/11/32 
f 11/11/32 21/25/34 24/28/33 
f 22/26/29 24/28/33 20/23/26 
f 20/23/26 10/10/12 22/26/29 
s off
f 25/29/35 26/29/35 3/29/35 
f 3/29/36 2/29/36 25/29/36 
f 27/30/37 25/31/37 2/18/37 
f 2/18/38 14/17/38 27/30/38 
f 28/32/39 27/30/39 14/17/39 
f 14/17/40 13/33/40 28/32/40 
f 26/34/41 28/32/41 13/33/41 
f 13/33/42 3/35/42 26/34/42 
s 1
f 29/36/43 28/37/44 26/38/45 
f 26/38/45 30/39/46 29/36/43 
f 31/40/47 25/41/48 27/42/49 
f 27/42/49 32/43/50 31/40/47 
s off
f 29/36/51 32/43/51 27/42/51 
f 27/42/52 28/37/52 29/36/52 
f 31/40/53 30/39/53 26/38/53 
f 26/38/54 25/41/54 31/40/54 
f 3/44/55 13/45/55 33/46/55 
f 13/45/56 12/47/56 33/46/56 
f 12/47/57 23/48/57 33/46/57 
f 23/48/58 9/49/58 33/46/58 
f 9/49/59 8/50/59 33/46/59 
f 8/50/60 7/51/60 33/46/60 
f 7/51/61 4/52/61 33/46/61 
f 4/52/61 3/44/61 33/46/61 
# 50 faces

