# 3ds Max Wavefront OBJ Exporter v0.97b - (c)2007 guruware
# File Created: 27.01.2019 14:47:25

#
# object RoofTile
#

v  -0.8401 0.0579 -0.7595
v  -1.3517 0.0454 -0.8338
v  -0.9754 0.6038 -0.3442
v  0.0000 0.1244 -0.0876
v  -2.2614 0.0232 -0.8338
v  -2.7102 0.5552 -0.3442
v  -2.7259 0.0118 -0.7595
v  -3.5958 0.0236 -0.0876
v  0.0000 0.0000 -0.0385
v  -0.8401 -0.0664 -0.7595
v  -1.3575 -0.0791 -0.8376
v  -2.7259 -0.1126 -0.7595
v  -3.5958 -0.1008 -0.0251
v  -2.2506 -0.1009 -0.8265
v  -2.6689 -0.0748 -0.0285
v  -0.9976 -0.0280 -0.0347
# 16 vertices

vn 0.0982 0.6179 -0.7801
vn 0.4672 0.6058 -0.6440
vn -0.0187 0.6684 -0.7435
vn -0.0163 0.6654 -0.7463
vn -0.5138 0.5303 -0.6744
vn -0.1403 0.6038 -0.7847
vn 0.6116 -0.2907 -0.7359
vn 0.6513 0.0000 -0.7588
vn 0.1437 0.0000 -0.9896
vn 0.1486 0.0229 -0.9886
vn -0.6113 0.0000 -0.7914
vn -0.6053 -0.3575 -0.7112
vn -0.0007 0.0302 -0.9995
vn -0.0109 -0.0598 -0.9981
vn -0.1558 -0.0717 -0.9852
vn -0.1395 0.0000 -0.9902
vn 0.0302 -0.9983 0.0492
vn 0.0286 -0.9984 0.0489
vn 0.0287 -0.9984 0.0487
vn 0.0282 -0.9984 0.0494
vn 0.0210 -0.9981 0.0576
vn 0.0282 -0.9979 0.0591
vn 0.0251 -0.9982 0.0552
vn 0.0220 -0.9983 0.0537
# 24 vertex normals

vt 0.8340 0.5336 0.0000
vt 0.8367 0.5318 0.0000
vt 0.8341 0.5535 0.0000
vt 0.8268 0.5343 0.0000
vt 0.8428 0.5269 0.0000
vt 0.8478 0.5428 0.0000
vt 0.8451 0.5258 0.0000
vt 0.8519 0.5164 0.0000
vt 0.8273 0.5276 0.0000
vt 0.8338 0.5285 0.0000
vt 0.8365 0.5293 0.0000
vt 0.8451 0.5207 0.0000
vt 0.8507 0.5108 0.0000
vt 0.8428 0.5242 0.0000
vt 0.8422 0.5227 0.0000
vt 0.8447 0.5151 0.0000
vt 0.8338 0.5229 0.0000
vt 0.8369 0.5263 0.0000
# 18 texture coords

o RoofTile
g RoofTile
s off
f 1/1/1 2/2/1 3/3/1 
f 3/3/2 4/4/2 1/1/2 
f 5/5/3 6/6/3 3/3/3 
f 3/3/4 2/2/4 5/5/4 
f 7/7/5 8/8/5 6/6/5 
f 6/6/6 5/5/6 7/7/6 
f 1/1/7 4/4/7 9/9/7 
f 9/9/8 10/10/8 1/1/8 
f 2/2/9 1/1/9 10/10/9 
f 10/10/10 11/11/10 2/2/10 
f 8/8/11 7/7/11 12/12/11 
f 12/12/12 13/13/12 8/8/12 
f 5/5/13 2/2/13 11/11/13 
f 11/11/14 14/14/14 5/5/14 
f 7/7/15 5/5/15 14/14/15 
f 14/14/16 12/12/16 7/7/16 
s 1
f 12/12/17 14/15/18 15/16/19 
f 15/16/19 13/13/20 12/12/17 
f 10/10/21 9/9/22 16/17/23 
f 16/17/23 11/18/24 10/10/21 
f 14/15/18 11/18/24 16/17/23 
f 16/17/23 15/16/19 14/15/18 
# 22 faces

