# 3ds Max Wavefront OBJ Exporter v0.97b - (c)2007 guruware
# File Created: 26.01.2019 16:47:32

#
# object Stairs
#

v  0.0003 0.2392 0.1667
v  0.0003 0.2592 0.1667
v  0.7101 0.2592 0.1653
v  0.7101 0.2392 0.1653
v  0.7104 0.2392 0.3320
v  0.7104 0.2592 0.3320
v  0.0006 0.2592 0.3333
v  0.0006 0.2392 0.3333
v  0.0006 0.4984 0.3333
v  0.0006 0.5184 0.3333
v  0.7104 0.5184 0.3320
v  0.7104 0.4984 0.3320
v  0.7107 0.4984 0.4987
v  0.7107 0.5184 0.4987
v  0.0009 0.5184 0.5000
v  0.0009 0.4984 0.5000
v  0.0009 0.7576 0.5000
v  0.0009 0.7776 0.5000
v  0.7107 0.7776 0.4987
v  0.7107 0.7576 0.4987
v  0.7111 0.7576 0.6653
v  0.7111 0.7776 0.6653
v  0.0013 0.7776 0.6667
v  0.0013 0.7576 0.6667
v  0.0013 1.0167 0.6667
v  0.0013 1.0367 0.6667
v  0.7111 1.0367 0.6653
v  0.7111 1.0167 0.6653
v  0.7114 1.0167 0.8320
v  0.7114 1.0367 0.8320
v  0.0016 1.0367 0.8333
v  0.0016 1.0167 0.8333
v  0.0016 1.2759 0.8333
v  0.0016 1.2959 0.8333
v  0.7114 1.2959 0.8320
v  0.7114 1.2759 0.8320
v  0.7117 1.2759 0.9987
v  0.7117 1.2959 0.9987
v  0.0019 1.2959 1.0000
v  0.0019 1.2759 1.0000
v  0.7130 1.5551 1.7085
v  0.7117 1.5551 0.9987
v  0.0019 1.5551 1.0000
v  -0.0041 1.5551 1.7098
v  -0.0054 1.5551 1.0000
v  -0.0041 1.5351 1.7098
v  -0.0054 1.5351 1.0000
v  0.0019 1.5351 1.0000
v  0.7130 1.5351 1.7085
v  0.7117 1.5351 0.9987
v  -0.0054 1.7943 1.0000
v  -0.0054 1.8143 1.0000
v  -0.0041 1.8143 1.7098
v  -0.0041 1.7943 1.7098
v  -0.1708 1.7943 1.7101
v  -0.1708 1.8143 1.7101
v  -0.1721 1.8143 1.0003
v  -0.1721 1.7943 1.0003
v  -0.1721 2.0535 1.0003
v  -0.1721 2.0735 1.0003
v  -0.1708 2.0735 1.7101
v  -0.1708 2.0535 1.7101
v  -0.3374 2.0535 1.7104
v  -0.3374 2.0735 1.7104
v  -0.3388 2.0735 1.0006
v  -0.3388 2.0535 1.0006
v  -0.3388 2.3127 1.0006
v  -0.3388 2.3327 1.0006
v  -0.3374 2.3327 1.7104
v  -0.3374 2.3127 1.7104
v  -0.5041 2.3127 1.7108
v  -0.5041 2.3327 1.7108
v  -0.5054 2.3327 1.0010
v  -0.5054 2.3127 1.0010
v  -0.5054 2.5718 1.0010
v  -0.5054 2.5918 1.0010
v  -0.5041 2.5918 1.7108
v  -0.5041 2.5718 1.7108
v  -0.6708 2.5718 1.7111
v  -0.6708 2.5918 1.7111
v  -0.6721 2.5918 1.0013
v  -0.6721 2.5718 1.0013
v  -0.6721 2.8310 1.0013
v  -0.6721 2.8510 1.0013
v  -0.6708 2.8510 1.7111
v  -0.6708 2.8310 1.7111
v  -0.8374 2.8310 1.7114
v  -0.8374 2.8510 1.7114
v  -0.8388 2.8510 1.0016
v  -0.8388 2.8310 1.0016
v  0.3421 1.4551 1.1660
v  0.3421 1.5351 1.1660
v  0.3418 1.5351 0.9994
v  0.3418 1.2759 0.9994
v  0.3419 1.2618 1.0417
v  0.3718 1.5351 0.9993
v  0.3721 1.5351 1.1660
v  0.3721 1.4551 1.1660
v  0.3719 1.2604 1.0408
v  0.3718 1.2759 0.9993
v  0.3715 1.2759 0.8326
v  0.3415 1.2759 0.8327
v  0.3715 1.0167 0.8326
v  0.3415 1.0167 0.8327
v  0.3712 1.0167 0.6660
v  0.3412 1.0167 0.6660
v  0.3712 0.7576 0.6660
v  0.3412 0.7576 0.6660
v  0.3708 0.7576 0.4993
v  0.3408 0.7576 0.4994
v  0.3708 0.4984 0.4993
v  0.3408 0.4984 0.4994
v  0.3705 0.4984 0.3326
v  0.3405 0.4984 0.3327
v  0.3705 0.2392 0.3326
v  0.3405 0.2392 0.3327
v  0.3702 0.2392 0.1660
v  0.3402 0.2392 0.1660
v  0.3702 0.0000 0.1660
v  0.3402 0.0000 0.1660
v  0.3703 0.0000 0.2303
v  0.3403 0.0000 0.2303
v  -0.3833 2.0437 1.3406
v  -0.3381 2.0535 1.3405
v  -0.1715 2.0535 1.3402
v  -0.1715 1.7943 1.3402
v  -0.2172 1.7854 1.3403
v  -0.0690 1.5551 1.3700
v  -0.0047 1.5551 1.3699
v  -0.0047 1.7943 1.3699
v  -0.2152 1.7824 1.3703
v  -0.1714 1.7943 1.3702
v  -0.8381 2.8310 1.3415
v  -0.8381 2.8310 1.3715
v  -0.6714 2.8310 1.3712
v  -0.6715 2.8310 1.3412
v  -0.6714 2.5718 1.3712
v  -0.6715 2.5718 1.3412
v  -0.5047 2.5718 1.3709
v  -0.5048 2.5718 1.3409
v  -0.5047 2.3127 1.3709
v  -0.5048 2.3127 1.3409
v  -0.3381 2.3127 1.3705
v  -0.3381 2.3127 1.3405
v  -0.3381 2.0535 1.3705
v  -0.1714 2.0535 1.3702
v  -0.0048 1.7943 1.3399
v  -0.0048 1.5551 1.3399
v  -0.0691 1.5551 1.3400
v  -0.3833 2.0439 1.3706
v  -0.8381 2.7510 1.3415
v  -0.8381 2.7510 1.3715
v  0.3415 1.0025 0.8750
v  0.3715 1.0026 0.8750
v  0.3409 0.4934 0.5476
v  0.3413 0.7579 0.7177
v  0.3709 0.4909 0.5459
v  0.3713 0.7607 0.7194
v  0.3406 0.2343 0.3810
v  0.3706 0.2362 0.3821
v  -0.7176 2.5637 1.3713
v  -0.5571 2.3141 1.3710
v  -0.7184 2.5649 1.3413
v  -0.5568 2.3136 1.3410
# 164 vertices

vn -0.0019 0.0000 -1.0000
vn 0.0019 0.0000 1.0000
vn 0.0000 1.0000 -0.0000
vn 0.0000 -1.0000 -0.0000
vn -1.0000 0.0000 0.0019
vn 1.0000 0.0000 -0.0019
vn 0.0016 -0.5409 0.8411
vn -0.0019 -0.0000 -1.0000
vn 0.0019 -0.0000 1.0000
vn 1.0000 -0.0000 -0.0019
vn -0.8411 -0.5409 0.0016
vn -1.0000 -0.0000 0.0019
# 12 vertex normals

vt 0.3423 0.5068 0.5839
vt 0.3423 0.5068 0.5909
vt 0.3213 0.5068 0.5909
vt 0.3213 0.5068 0.5839
vt 0.3213 0.5123 0.5839
vt 0.3213 0.5123 0.5909
vt 0.3423 0.5123 0.5909
vt 0.3423 0.5123 0.5839
vt 0.3423 0.5123 0.6748
vt 0.3423 0.5123 0.6818
vt 0.3213 0.5123 0.6818
vt 0.3213 0.5123 0.6748
vt 0.3213 0.5177 0.6748
vt 0.3213 0.5177 0.6818
vt 0.3423 0.5177 0.6818
vt 0.3423 0.5177 0.6748
vt 0.3423 0.5177 0.7657
vt 0.3423 0.5177 0.7727
vt 0.3213 0.5177 0.7727
vt 0.3213 0.5177 0.7657
vt 0.3213 0.5231 0.7657
vt 0.3213 0.5231 0.7727
vt 0.3423 0.5231 0.7727
vt 0.3423 0.5231 0.7657
vt 0.3423 0.5231 0.8566
vt 0.3423 0.5231 0.8636
vt 0.3213 0.5231 0.8636
vt 0.3213 0.5231 0.8566
vt 0.3213 0.5285 0.8566
vt 0.3213 0.5285 0.8636
vt 0.3423 0.5285 0.8636
vt 0.3423 0.5285 0.8566
vt 0.3423 0.5285 0.9475
vt 0.3423 0.5285 0.9545
vt 0.3213 0.5285 0.9545
vt 0.3213 0.5285 0.9475
vt 0.3213 0.5340 0.9475
vt 0.3213 0.5340 0.9545
vt 0.3423 0.5340 0.9545
vt 0.3423 0.5340 0.9475
vt 0.3213 0.5571 1.0455
vt 0.3213 0.5340 1.0455
vt 0.3423 0.5340 1.0455
vt 0.3426 0.5571 1.0455
vt 0.3426 0.5340 1.0455
vt 0.3426 0.5571 1.0384
vt 0.3426 0.5340 1.0384
vt 0.3423 0.5340 1.0384
vt 0.3213 0.5571 1.0384
vt 0.3213 0.5340 1.0384
vt 0.3426 0.5340 1.1293
vt 0.3426 0.5340 1.1364
vt 0.3426 0.5571 1.1364
vt 0.3426 0.5571 1.1293
vt 0.3475 0.5571 1.1293
vt 0.3475 0.5571 1.1364
vt 0.3475 0.5340 1.1364
vt 0.3475 0.5340 1.1293
vt 0.3475 0.5340 1.2203
vt 0.3475 0.5340 1.2273
vt 0.3475 0.5571 1.2273
vt 0.3475 0.5571 1.2203
vt 0.3524 0.5571 1.2203
vt 0.3524 0.5571 1.2273
vt 0.3524 0.5340 1.2273
vt 0.3524 0.5340 1.2203
vt 0.3524 0.5340 1.3112
vt 0.3524 0.5340 1.3182
vt 0.3524 0.5571 1.3182
vt 0.3524 0.5571 1.3112
vt 0.3574 0.5571 1.3112
vt 0.3574 0.5571 1.3182
vt 0.3574 0.5340 1.3182
vt 0.3574 0.5340 1.3112
vt 0.3574 0.5340 1.4021
vt 0.3574 0.5340 1.4091
vt 0.3574 0.5571 1.4091
vt 0.3574 0.5571 1.4021
vt 0.3623 0.5571 1.4021
vt 0.3623 0.5571 1.4091
vt 0.3623 0.5340 1.4091
vt 0.3623 0.5340 1.4021
vt 0.3623 0.5340 1.4930
vt 0.3623 0.5340 1.5000
vt 0.3623 0.5571 1.5000
vt 0.3623 0.5571 1.4930
vt 0.3673 0.5571 1.4930
vt 0.3673 0.5571 1.5000
vt 0.3673 0.5340 1.5000
vt 0.3673 0.5340 1.4930
vt 0.3323 0.5394 1.0104
vt 0.3323 0.5394 1.0384
vt 0.3323 0.5340 1.0384
vt 0.3323 0.5340 0.9475
vt 0.3323 0.5354 0.9426
vt 0.3314 0.5340 1.0384
vt 0.3314 0.5394 1.0384
vt 0.3314 0.5394 1.0104
vt 0.3314 0.5353 0.9421
vt 0.3314 0.5340 0.9475
vt 0.3314 0.5285 0.9475
vt 0.3323 0.5285 0.9475
vt 0.3314 0.5285 0.8566
vt 0.3323 0.5285 0.8566
vt 0.3314 0.5231 0.8566
vt 0.3323 0.5231 0.8566
vt 0.3314 0.5231 0.7657
vt 0.3323 0.5231 0.7657
vt 0.3314 0.5177 0.7657
vt 0.3323 0.5177 0.7657
vt 0.3314 0.5177 0.6748
vt 0.3323 0.5177 0.6748
vt 0.3314 0.5123 0.6748
vt 0.3323 0.5123 0.6748
vt 0.3314 0.5123 0.5839
vt 0.3323 0.5123 0.5839
vt 0.3314 0.5068 0.5839
vt 0.3323 0.5068 0.5839
vt 0.3314 0.5068 0.5000
vt 0.3323 0.5068 0.5000
vt 0.3314 0.5089 0.5000
vt 0.3323 0.5089 0.5000
vt 0.3538 0.5450 1.2168
vt 0.3524 0.5450 1.2203
vt 0.3475 0.5450 1.2203
vt 0.3475 0.5450 1.1293
vt 0.3489 0.5450 1.1262
vt 0.3445 0.5460 1.0455
vt 0.3426 0.5460 1.0455
vt 0.3426 0.5460 1.1293
vt 0.3488 0.5460 1.1252
vt 0.3475 0.5460 1.1293
vt 0.3673 0.5450 1.4930
vt 0.3673 0.5460 1.4930
vt 0.3623 0.5460 1.4930
vt 0.3623 0.5450 1.4930
vt 0.3623 0.5460 1.4021
vt 0.3623 0.5450 1.4021
vt 0.3574 0.5460 1.4021
vt 0.3574 0.5450 1.4021
vt 0.3574 0.5460 1.3112
vt 0.3574 0.5450 1.3112
vt 0.3524 0.5460 1.3112
vt 0.3524 0.5450 1.3112
vt 0.3524 0.5460 1.2203
vt 0.3475 0.5460 1.2203
vt 0.3426 0.5450 1.1293
vt 0.3426 0.5450 1.0455
vt 0.3445 0.5450 1.0455
vt 0.3538 0.5460 1.2169
vt 0.3673 0.5450 1.4649
vt 0.3673 0.5460 1.4649
vt 0.3323 0.5299 0.8516
vt 0.3314 0.5299 0.8516
vt 0.3323 0.5193 0.6731
vt 0.3323 0.5248 0.7658
vt 0.3314 0.5192 0.6722
vt 0.3314 0.5249 0.7668
vt 0.3323 0.5138 0.5822
vt 0.3314 0.5139 0.5828
vt 0.3637 0.5460 1.3992
vt 0.3589 0.5460 1.3117
vt 0.3637 0.5450 1.3996
vt 0.3589 0.5450 1.3115
# 164 texture coords

o Stairs
g Stairs
s 1
f 1/1/1 2/2/1 3/3/1 
f 3/3/1 4/4/1 1/1/1 
f 5/5/2 6/6/2 7/7/2 
f 7/7/2 8/8/2 5/5/2 
s 2
f 2/2/3 7/7/3 6/6/3 
f 6/6/3 3/3/3 2/2/3 
f 4/4/4 5/5/4 8/8/4 
f 8/8/4 1/1/4 4/4/4 
s 4
f 1/1/5 8/8/5 7/7/5 
f 7/7/5 2/2/5 1/1/5 
f 3/3/6 6/6/6 5/5/6 
f 5/5/6 4/4/6 3/3/6 
s 1
f 9/9/1 10/10/1 11/11/1 
f 11/11/1 12/12/1 9/9/1 
f 13/13/2 14/14/2 15/15/2 
f 15/15/2 16/16/2 13/13/2 
s 2
f 10/10/3 15/15/3 14/14/3 
f 14/14/3 11/11/3 10/10/3 
f 12/12/4 13/13/4 16/16/4 
f 16/16/4 9/9/4 12/12/4 
s 4
f 9/9/5 16/16/5 15/15/5 
f 15/15/5 10/10/5 9/9/5 
f 11/11/6 14/14/6 13/13/6 
f 13/13/6 12/12/6 11/11/6 
s 1
f 17/17/1 18/18/1 19/19/1 
f 19/19/1 20/20/1 17/17/1 
f 21/21/2 22/22/2 23/23/2 
f 23/23/2 24/24/2 21/21/2 
s 2
f 18/18/3 23/23/3 22/22/3 
f 22/22/3 19/19/3 18/18/3 
f 20/20/4 21/21/4 24/24/4 
f 24/24/4 17/17/4 20/20/4 
s 4
f 17/17/5 24/24/5 23/23/5 
f 23/23/5 18/18/5 17/17/5 
f 19/19/6 22/22/6 21/21/6 
f 21/21/6 20/20/6 19/19/6 
s 1
f 25/25/1 26/26/1 27/27/1 
f 27/27/1 28/28/1 25/25/1 
f 29/29/2 30/30/2 31/31/2 
f 31/31/2 32/32/2 29/29/2 
s 2
f 26/26/3 31/31/3 30/30/3 
f 30/30/3 27/27/3 26/26/3 
f 28/28/4 29/29/4 32/32/4 
f 32/32/4 25/25/4 28/28/4 
s 4
f 25/25/5 32/32/5 31/31/5 
f 31/31/5 26/26/5 25/25/5 
f 27/27/6 30/30/6 29/29/6 
f 29/29/6 28/28/6 27/27/6 
s 1
f 33/33/1 34/34/1 35/35/1 
f 35/35/1 36/36/1 33/33/1 
f 37/37/2 38/38/2 39/39/2 
f 39/39/2 40/40/2 37/37/2 
s 2
f 34/34/3 39/39/3 38/38/3 
f 38/38/3 35/35/3 34/34/3 
f 36/36/4 37/37/4 40/40/4 
f 40/40/4 33/33/4 36/36/4 
s 4
f 33/33/5 40/40/5 39/39/5 
f 39/39/5 34/34/5 33/33/5 
f 35/35/6 38/38/6 37/37/6 
f 37/37/6 36/36/6 35/35/6 
s 1
f 41/41/3 42/42/3 43/43/3 
f 44/44/3 41/41/3 43/43/3 
f 44/44/3 43/43/3 45/45/3 
f 46/46/4 47/47/4 48/48/4 
f 49/49/4 46/46/4 48/48/4 
f 49/49/4 48/48/4 50/50/4 
s 2
f 42/42/1 50/50/1 48/48/1 
f 48/48/1 43/43/1 42/42/1 
s 4
f 41/41/6 49/49/6 50/50/6 
f 50/50/6 42/42/6 41/41/6 
s 8
f 44/44/2 46/46/2 49/49/2 
f 49/49/2 41/41/2 44/44/2 
s 16
f 45/45/5 47/47/5 46/46/5 
f 46/46/5 44/44/5 45/45/5 
s 32
f 43/43/1 48/48/1 47/47/1 
f 47/47/1 45/45/1 43/43/1 
s 1
f 51/51/6 52/52/6 53/53/6 
f 53/53/6 54/54/6 51/51/6 
f 55/55/5 56/56/5 57/57/5 
f 57/57/5 58/58/5 55/55/5 
s 2
f 52/52/3 57/57/3 56/56/3 
f 56/56/3 53/53/3 52/52/3 
f 54/54/4 55/55/4 58/58/4 
f 58/58/4 51/51/4 54/54/4 
s 4
f 51/51/1 58/58/1 57/57/1 
f 57/57/1 52/52/1 51/51/1 
f 53/53/2 56/56/2 55/55/2 
f 55/55/2 54/54/2 53/53/2 
s 1
f 59/59/6 60/60/6 61/61/6 
f 61/61/6 62/62/6 59/59/6 
f 63/63/5 64/64/5 65/65/5 
f 65/65/5 66/66/5 63/63/5 
s 2
f 60/60/3 65/65/3 64/64/3 
f 64/64/3 61/61/3 60/60/3 
f 62/62/4 63/63/4 66/66/4 
f 66/66/4 59/59/4 62/62/4 
s 4
f 59/59/1 66/66/1 65/65/1 
f 65/65/1 60/60/1 59/59/1 
f 61/61/2 64/64/2 63/63/2 
f 63/63/2 62/62/2 61/61/2 
s 1
f 67/67/6 68/68/6 69/69/6 
f 69/69/6 70/70/6 67/67/6 
f 71/71/5 72/72/5 73/73/5 
f 73/73/5 74/74/5 71/71/5 
s 2
f 68/68/3 73/73/3 72/72/3 
f 72/72/3 69/69/3 68/68/3 
f 70/70/4 71/71/4 74/74/4 
f 74/74/4 67/67/4 70/70/4 
s 4
f 67/67/1 74/74/1 73/73/1 
f 73/73/1 68/68/1 67/67/1 
f 69/69/2 72/72/2 71/71/2 
f 71/71/2 70/70/2 69/69/2 
s 1
f 75/75/6 76/76/6 77/77/6 
f 77/77/6 78/78/6 75/75/6 
f 79/79/5 80/80/5 81/81/5 
f 81/81/5 82/82/5 79/79/5 
s 2
f 76/76/3 81/81/3 80/80/3 
f 80/80/3 77/77/3 76/76/3 
f 78/78/4 79/79/4 82/82/4 
f 82/82/4 75/75/4 78/78/4 
s 4
f 75/75/1 82/82/1 81/81/1 
f 81/81/1 76/76/1 75/75/1 
f 77/77/2 80/80/2 79/79/2 
f 79/79/2 78/78/2 77/77/2 
s 1
f 83/83/6 84/84/6 85/85/6 
f 85/85/6 86/86/6 83/83/6 
f 87/87/5 88/88/5 89/89/5 
f 89/89/5 90/90/5 87/87/5 
s 2
f 84/84/3 89/89/3 88/88/3 
f 88/88/3 85/85/3 84/84/3 
f 86/86/4 87/87/4 90/90/4 
f 90/90/4 83/83/4 86/86/4 
s 4
f 83/83/1 90/90/1 89/89/1 
f 89/89/1 84/84/1 83/83/1 
f 85/85/2 88/88/2 87/87/2 
f 87/87/2 86/86/2 85/85/2 
s 1
f 91/91/5 92/92/5 93/93/5 
f 91/91/5 93/93/5 94/94/5 
f 95/95/5 91/91/5 94/94/5 
f 96/96/6 97/97/6 98/98/6 
f 96/96/6 98/98/6 99/99/6 
f 100/100/6 96/96/6 99/99/6 
s 2
f 92/92/3 97/97/3 96/96/3 
f 96/96/3 93/93/3 92/92/3 
s 4
f 93/93/1 96/96/1 100/100/1 
f 100/100/1 94/94/1 93/93/1 
s 2
f 94/94/3 100/100/3 101/101/3 
f 101/101/3 102/102/3 94/94/3 
s 4
f 102/102/1 101/101/1 103/103/1 
f 103/103/1 104/104/1 102/102/1 
s 2
f 104/104/3 103/103/3 105/105/3 
f 105/105/3 106/106/3 104/104/3 
s 4
f 106/106/1 105/105/1 107/107/1 
f 107/107/1 108/108/1 106/106/1 
s 2
f 108/108/3 107/107/3 109/109/3 
f 109/109/3 110/110/3 108/108/3 
s 4
f 110/110/1 109/109/1 111/111/1 
f 111/111/1 112/112/1 110/110/1 
s 2
f 112/112/3 111/111/3 113/113/3 
f 113/113/3 114/114/3 112/112/3 
s 4
f 114/114/1 113/113/1 115/115/1 
f 115/115/1 116/116/1 114/114/1 
s 2
f 116/116/3 115/115/3 117/117/3 
f 117/117/3 118/118/3 116/116/3 
s 4
f 118/118/1 117/117/1 119/119/1 
f 119/119/1 120/120/1 118/118/1 
s 8
f 120/120/4 119/119/4 121/121/4 
f 121/121/4 122/122/4 120/120/4 
s 2
f 95/95/7 99/99/7 98/98/7 
f 98/98/7 91/91/7 95/95/7 
s 4
f 91/91/2 98/98/2 97/97/2 
f 97/97/2 92/92/2 91/91/2 
s 1
f 123/123/1 124/124/8 125/125/8 
f 123/123/1 125/125/8 126/126/1 
f 127/127/1 123/123/1 126/126/1 
f 128/128/9 129/129/2 130/130/2 
f 131/131/2 128/128/9 130/130/2 
f 132/132/2 131/131/2 130/130/2 
s 2
f 133/133/3 134/134/3 135/135/3 
f 135/135/3 136/136/3 133/133/3 
s 4
f 136/136/10 135/135/10 137/137/10 
f 137/137/10 138/138/10 136/136/10 
s 2
f 138/138/3 137/137/3 139/139/3 
f 139/139/3 140/140/3 138/138/3 
s 4
f 140/140/6 139/139/6 141/141/6 
f 141/141/6 142/142/6 140/140/6 
s 2
f 142/142/3 141/141/3 143/143/3 
f 143/143/3 144/144/3 142/142/3 
s 4
f 144/144/6 143/143/6 145/145/6 
f 145/145/6 124/124/6 144/144/6 
s 2
f 124/124/3 145/145/3 146/146/3 
f 146/146/3 125/125/3 124/124/3 
s 4
f 125/125/6 146/146/6 132/132/6 
f 132/132/6 126/126/6 125/125/6 
s 2
f 126/126/3 132/132/3 130/130/3 
f 130/130/3 147/147/3 126/126/3 
s 4
f 147/147/6 130/130/6 129/129/6 
f 129/129/6 148/148/6 147/147/6 
s 8
f 148/148/4 129/129/4 128/128/4 
f 128/128/4 149/149/4 148/148/4 
s 2
f 127/127/11 131/131/11 150/150/11 
f 150/150/11 123/123/11 127/127/11 
s 4
f 151/151/5 152/152/5 134/134/5 
f 134/134/5 133/133/5 151/151/5 
s 1
f 102/102/5 104/104/5 153/153/5 
f 102/102/5 153/153/5 95/95/5 
f 94/94/5 102/102/5 95/95/5 
s 2
f 153/153/7 154/154/7 99/99/7 
f 99/99/7 95/95/7 153/153/7 
s 1
f 154/154/6 103/103/6 101/101/6 
f 154/154/6 101/101/6 100/100/6 
f 99/99/6 154/154/6 100/100/6 
f 108/108/5 110/110/5 112/112/12 
f 108/108/5 112/112/12 155/155/5 
f 108/108/5 155/155/5 156/156/12 
s 2
f 155/155/7 157/157/7 158/158/7 
f 158/158/7 156/156/7 155/155/7 
s 1
f 157/157/6 111/111/6 109/109/10 
f 157/157/6 109/109/10 107/107/10 
f 158/158/10 157/157/6 107/107/10 
f 105/105/6 103/103/6 154/154/6 
f 105/105/6 154/154/6 158/158/10 
f 107/107/10 105/105/6 158/158/10 
s 2
f 158/158/7 154/154/7 153/153/7 
f 153/153/7 156/156/7 158/158/7 
s 1
f 153/153/5 104/104/5 106/106/5 
f 153/153/5 106/106/5 108/108/5 
f 156/156/12 153/153/5 108/108/5 
f 118/118/12 120/120/12 122/122/12 
f 118/118/12 122/122/12 159/159/12 
f 116/116/12 118/118/12 159/159/12 
s 2
f 159/159/7 122/122/7 121/121/7 
f 121/121/7 160/160/7 159/159/7 
s 1
f 121/121/6 119/119/6 117/117/6 
f 121/121/6 117/117/6 115/115/6 
f 160/160/6 121/121/6 115/115/6 
f 113/113/6 111/111/6 157/157/6 
f 113/113/6 157/157/6 160/160/6 
f 115/115/6 113/113/6 160/160/6 
s 2
f 157/157/7 155/155/7 159/159/7 
f 159/159/7 160/160/7 157/157/7 
s 1
f 155/155/5 112/112/12 114/114/12 
f 155/155/5 114/114/12 116/116/12 
f 159/159/12 155/155/5 116/116/12 
f 147/147/8 148/148/8 149/149/8 
f 147/147/8 149/149/8 127/127/1 
f 126/126/1 147/147/8 127/127/1 
s 2
f 149/149/11 128/128/11 131/131/11 
f 131/131/11 127/127/11 149/149/11 
s 1
f 146/146/2 145/145/9 150/150/2 
f 146/146/2 150/150/2 131/131/2 
f 132/132/2 146/146/2 131/131/2 
f 139/139/9 137/137/9 161/161/9 
f 139/139/9 161/161/9 162/162/9 
f 141/141/9 139/139/9 162/162/9 
s 2
f 161/161/11 163/163/11 164/164/11 
f 164/164/11 162/162/11 161/161/11 
s 1
f 151/151/1 133/133/1 136/136/1 
f 151/151/1 136/136/1 138/138/1 
f 163/163/1 151/151/1 138/138/1 
f 142/142/1 144/144/1 124/124/8 
f 142/142/1 124/124/8 123/123/1 
f 142/142/1 123/123/1 164/164/1 
s 2
f 123/123/11 150/150/11 162/162/11 
f 162/162/11 164/164/11 123/123/11 
s 1
f 150/150/2 145/145/9 143/143/9 
f 150/150/2 143/143/9 141/141/9 
f 162/162/9 150/150/2 141/141/9 
f 135/135/9 134/134/9 152/152/9 
f 135/135/9 152/152/9 161/161/9 
f 137/137/9 135/135/9 161/161/9 
s 2
f 152/152/11 151/151/11 163/163/11 
f 163/163/11 161/161/11 152/152/11 
s 1
f 140/140/1 142/142/1 164/164/1 
f 140/140/1 164/164/1 163/163/1 
f 138/138/1 140/140/1 163/163/1 
# 276 faces

