# 3ds Max Wavefront OBJ Exporter v0.97b - (c)2007 guruware
# File Created: 26.01.2019 16:47:16

#
# object toolbox
#

v  -0.2904 0.0000 0.4884
v  -0.1982 0.0000 -0.0349
v  -0.1321 0.0000 -0.0233
v  -0.2244 0.0000 0.5000
v  -0.0661 0.0000 -0.0116
v  -0.1583 0.0000 0.5117
v  0.0000 0.0000 0.0000
v  -0.0923 0.0000 0.5233
v  -0.3042 0.2175 0.4969
v  -0.2296 0.2583 0.5110
v  -0.1332 0.2583 -0.0354
v  -0.2082 0.2175 -0.0477
v  -0.1572 0.2583 0.5237
v  -0.0609 0.2583 -0.0226
v  -0.0822 0.2175 0.5361
v  0.0138 0.2175 -0.0085
v  -0.2244 0.1896 0.5000
v  -0.2904 0.1896 0.4884
v  -0.1583 0.1896 0.5117
v  -0.0923 0.1896 0.5233
v  0.0000 0.1896 0.0000
v  -0.0661 0.1896 -0.0116
v  -0.1321 0.1896 -0.0233
v  -0.1982 0.1896 -0.0349
v  -0.3050 0.1896 0.4986
v  -0.2275 0.1896 0.5175
v  -0.1614 0.1896 0.5292
v  -0.0821 0.1896 0.5379
v  0.0146 0.1896 -0.0102
v  -0.0630 0.1896 -0.0292
v  -0.1290 0.1896 -0.0408
v  -0.2084 0.1896 -0.0495
# 32 vertices

vn 0.0000 -1.0000 -0.0000
vn -0.4655 0.8812 -0.0821
vn -0.2392 0.9701 -0.0422
vn 0.2392 0.9701 0.0422
vn 0.4655 0.8812 0.0821
vn -0.1736 0.0000 0.9848
vn 0.9848 0.0000 0.1736
vn 0.1736 0.0000 -0.9848
vn -0.9848 0.0000 -0.1736
vn -0.1985 0.0853 0.9764
vn -0.2187 0.0644 0.9737
vn -0.2272 0.0743 0.9710
vn -0.2040 0.0870 0.9751
vn -0.1488 0.0873 0.9850
vn -0.1446 0.0849 0.9858
vn -0.1116 0.0731 0.9911
vn -0.1087 0.0647 0.9920
vn 0.9847 0.0174 0.1736
vn 0.1985 0.0853 -0.9764
vn 0.2187 0.0644 -0.9737
vn 0.2272 0.0743 -0.9710
vn 0.2039 0.0870 -0.9751
vn 0.1488 0.0873 -0.9850
vn 0.1446 0.0849 -0.9858
vn 0.1116 0.0731 -0.9911
vn 0.1087 0.0647 -0.9920
vn -0.9847 0.0174 -0.1736
# 27 vertex normals

vt 0.7261 0.5366 0.0000
vt 0.7120 0.5380 0.0000
vt 0.7113 0.5352 0.0000
vt 0.7263 0.5328 0.0000
vt 0.7110 0.5322 0.0000
vt 0.7260 0.5299 0.0000
vt 0.7111 0.5285 0.0000
vt 0.7253 0.5271 0.0000
vt 0.1088 0.9194 0.0000
vt 0.0992 0.9205 0.0000
vt 0.0929 0.8920 0.0000
vt 0.1021 0.8921 0.0000
vt 0.0905 0.9210 0.0000
vt 0.0841 0.8921 0.0000
vt 0.0817 0.9204 0.0000
vt 0.0748 0.8931 0.0000
vt 0.7415 0.5314 0.0000
vt 0.7413 0.5423 0.0000
vt 0.7396 0.5212 0.0000
vt 0.7348 0.5110 0.0000
vt 0.6959 0.5228 0.0000
vt 0.6957 0.5337 0.0000
vt 0.6977 0.5439 0.0000
vt 0.7024 0.5541 0.0000
vt 0.1131 0.9198 0.0000
vt 0.1061 0.9268 0.0000
vt 0.0862 0.9270 0.0000
vt 0.0780 0.9211 0.0000
vt 0.0706 0.8927 0.0000
vt 0.0770 0.8861 0.0000
vt 0.0968 0.8851 0.0000
vt 0.1058 0.8914 0.0000
vt 0.1156 0.9200 0.0000
vt 0.1097 0.9290 0.0000
vt 0.0835 0.9294 0.0000
vt 0.0762 0.9213 0.0000
vt 0.0682 0.8926 0.0000
vt 0.0735 0.8840 0.0000
vt 0.0994 0.8826 0.0000
vt 0.1076 0.8911 0.0000
# 40 texture coords

o toolbox
g toolbox
s 2
f 1/1/1 2/2/1 3/3/1 
f 3/3/1 4/4/1 1/1/1 
f 4/4/1 3/3/1 5/5/1 
f 5/5/1 6/6/1 4/4/1 
f 6/6/1 5/5/1 7/7/1 
f 7/7/1 8/8/1 6/6/1 
s 4
f 9/9/2 10/10/3 11/11/3 
f 11/11/3 12/12/2 9/9/2 
f 10/10/3 13/13/4 14/14/4 
f 14/14/4 11/11/3 10/10/3 
f 13/13/4 15/15/5 16/16/5 
f 16/16/5 14/14/4 13/13/4 
s 8
f 4/4/6 17/17/6 18/18/6 
f 18/18/6 1/1/6 4/4/6 
f 6/6/6 19/19/6 17/17/6 
f 17/17/6 4/4/6 6/6/6 
f 8/8/6 20/20/6 19/19/6 
f 19/19/6 6/6/6 8/8/6 
s 16
f 7/7/7 21/21/7 20/20/7 
f 20/20/7 8/8/7 7/7/7 
s 32
f 5/5/8 22/22/8 21/21/8 
f 21/21/8 7/7/8 5/5/8 
f 3/3/8 23/23/8 22/22/8 
f 22/22/8 5/5/8 3/3/8 
f 2/2/8 24/24/8 23/23/8 
f 23/23/8 3/3/8 2/2/8 
s 64
f 1/1/9 18/18/9 24/24/9 
f 24/24/9 2/2/9 1/1/9 
s 8
f 10/10/10 9/9/11 25/25/12 
f 25/25/12 26/26/13 10/10/10 
f 13/13/14 10/10/10 26/26/13 
f 26/26/13 27/27/15 13/13/14 
f 15/15/16 13/13/14 27/27/15 
f 27/27/15 28/28/17 15/15/16 
s 16
f 16/16/18 15/15/18 28/28/18 
f 28/28/18 29/29/18 16/16/18 
s 32
f 14/14/19 16/16/20 29/29/21 
f 29/29/21 30/30/22 14/14/19 
f 11/11/23 14/14/19 30/30/22 
f 30/30/22 31/31/24 11/11/23 
f 12/12/25 11/11/23 31/31/24 
f 31/31/24 32/32/26 12/12/25 
s 64
f 9/9/27 12/12/27 32/32/27 
f 32/32/27 25/25/27 9/9/27 
s off
f 18/33/1 17/34/1 26/26/1 
f 26/26/1 25/25/1 18/33/1 
f 17/34/1 19/35/1 27/27/1 
f 27/27/1 26/26/1 17/34/1 
f 19/35/1 20/36/1 28/28/1 
f 28/28/1 27/27/1 19/35/1 
f 20/36/1 21/37/1 29/29/1 
f 29/29/1 28/28/1 20/36/1 
f 21/37/1 22/38/1 30/30/1 
f 30/30/1 29/29/1 21/37/1 
f 22/38/1 23/39/1 31/31/1 
f 31/31/1 30/30/1 22/38/1 
f 23/39/1 24/40/1 32/32/1 
f 32/32/1 31/31/1 23/39/1 
f 24/40/1 18/33/1 25/25/1 
f 25/25/1 32/32/1 24/40/1 
# 60 faces

