# 3ds Max Wavefront OBJ Exporter v0.97b - (c)2007 guruware
# File Created: 26.01.2019 15:46:20

mtllib tabletrst.mtl

#
# object DiningTable
#

v  0.7254 0.7500 -0.1214
v  0.7254 0.8000 -0.1214
v  0.8627 0.8000 -0.1214
v  0.8627 0.7500 -0.1214
v  0.7254 0.8000 -0.0000
v  0.8627 0.8000 -0.0000
v  0.8627 0.7500 -0.0000
v  0.8627 0.7500 0.0800
v  0.8627 0.7500 0.8786
v  0.7254 0.7500 0.8786
v  0.7254 0.7500 0.0800
v  0.3627 0.7500 -0.1214
v  0.3627 0.8000 -0.1214
v  0.6454 0.8000 -0.1214
v  0.6454 0.7500 -0.1214
v  0.7254 0.7500 -0.0000
v  0.3627 0.8000 -0.0000
v  0.6454 0.8000 -0.0000
v  0.6454 0.7500 0.8786
v  0.6454 0.7500 0.0800
v  0.6454 0.7500 -0.0000
v  0.8627 0.8000 0.0800
v  0.7254 0.8000 0.0800
v  0.3627 0.8000 0.0800
v  0.6454 0.8000 0.0800
v  0.7254 -0.0000 -0.0000
v  0.7254 -0.0000 0.0800
v  0.6454 -0.0000 0.0800
v  0.6454 -0.0000 -0.0000
v  0.3627 0.7500 0.8786
v  0.3627 0.7500 0.0800
v  0.3627 0.7500 -0.0000
v  0.0000 0.7500 -0.1214
v  -0.1373 0.7500 -0.1214
v  -0.1373 0.8000 -0.1214
v  0.0000 0.8000 -0.1214
v  -0.1373 0.8000 -0.0000
v  0.0000 0.8000 -0.0000
v  -0.1373 0.7500 -0.0000
v  0.0000 0.7500 0.8786
v  -0.1373 0.7500 0.8786
v  -0.1373 0.7500 0.0800
v  0.0000 0.7500 0.0800
v  0.0800 0.7500 -0.1214
v  0.0800 0.8000 -0.1214
v  0.0000 0.7500 -0.0000
v  0.0800 0.8000 -0.0000
v  0.0800 0.7500 0.8786
v  0.0800 0.7500 0.0800
v  0.0800 0.7500 -0.0000
v  -0.1373 0.8000 0.0800
v  0.0000 0.8000 0.0800
v  0.0800 0.8000 0.0800
v  0.0000 -0.0000 -0.0000
v  0.0800 -0.0000 -0.0000
v  0.0800 -0.0000 0.0800
v  0.0000 -0.0000 0.0800
v  0.8627 0.8000 0.8786
v  0.7254 0.8000 0.8786
v  0.6454 0.8000 0.8786
v  0.3627 0.8000 0.8786
v  -0.1373 0.8000 0.8786
v  0.0000 0.8000 0.8786
v  0.0800 0.8000 0.8786
v  0.7254 0.7500 1.8786
v  0.8627 0.7500 1.8786
v  0.8627 0.8000 1.8786
v  0.7254 0.8000 1.8786
v  0.8627 0.8000 1.7572
v  0.7254 0.8000 1.7572
v  0.8627 0.7500 1.7572
v  0.8627 0.7500 1.6772
v  0.7254 0.7500 1.6772
v  0.3627 0.7500 1.8786
v  0.6454 0.7500 1.8786
v  0.6454 0.8000 1.8786
v  0.3627 0.8000 1.8786
v  0.7254 0.7500 1.7572
v  0.6454 0.8000 1.7572
v  0.3627 0.8000 1.7572
v  0.6454 0.7500 1.6772
v  0.6454 0.7500 1.7572
v  0.8627 0.8000 1.6772
v  0.7254 0.8000 1.6772
v  0.6454 0.8000 1.6772
v  0.3627 0.8000 1.6772
v  0.7254 -0.0000 1.7572
v  0.6454 -0.0000 1.7572
v  0.6454 -0.0000 1.6772
v  0.7254 -0.0000 1.6772
v  0.3627 0.7500 1.6772
v  0.3627 0.7500 1.7572
v  0.0000 0.7500 1.8786
v  0.0000 0.8000 1.8786
v  -0.1373 0.8000 1.8786
v  -0.1373 0.7500 1.8786
v  0.0000 0.8000 1.7572
v  -0.1373 0.8000 1.7572
v  -0.1373 0.7500 1.7572
v  0.0000 0.7500 1.6772
v  -0.1373 0.7500 1.6772
v  0.0800 0.8000 1.8786
v  0.0800 0.7500 1.8786
v  0.0000 0.7500 1.7572
v  0.0800 0.8000 1.7572
v  0.0800 0.7500 1.6772
v  0.0800 0.7500 1.7572
v  -0.1373 0.8000 1.6772
v  0.0000 0.8000 1.6772
v  0.0800 0.8000 1.6772
v  0.0000 -0.0000 1.7572
v  0.0000 -0.0000 1.6772
v  0.0800 -0.0000 1.6772
v  0.0800 -0.0000 1.7572
# 114 vertices

vn 0.0000 0.0000 -1.0000
vn 0.0000 1.0000 -0.0000
vn 1.0000 0.0000 -0.0000
vn 0.0000 -1.0000 -0.0000
vn 0.0000 0.0000 1.0000
vn -1.0000 0.0000 -0.0000
# 6 vertex normals

vt 0.8627 1.0000 0.5000
vt 0.8627 1.0000 0.5625
vt 1.0000 1.0000 0.5625
vt 1.0000 1.0000 0.5000
vt 0.8627 0.9393 0.5625
vt 1.0000 0.9393 0.5625
vt 1.0000 0.9393 0.5000
vt 1.0000 0.8993 0.5000
vt 1.0000 0.5000 0.5000
vt 0.8627 0.5000 0.5000
vt 0.8627 0.8993 0.5000
vt 0.5000 1.0000 0.5000
vt 0.5000 1.0000 0.5625
vt 0.7827 1.0000 0.5625
vt 0.7827 1.0000 0.5000
vt 0.8627 0.9393 0.5000
vt 0.5000 0.9393 0.5625
vt 0.7827 0.9393 0.5625
vt 0.7827 0.5000 0.5000
vt 0.7827 0.8993 0.5000
vt 0.7827 0.9393 0.5000
vt 1.0000 0.8993 0.5625
vt 0.8627 0.8993 0.5625
vt 0.5000 0.8993 0.5625
vt 0.7827 0.8993 0.5625
vt 0.8627 0.9393 -0.4375
vt 0.8627 0.8993 -0.4375
vt 0.7827 0.8993 -0.4375
vt 0.7827 0.9393 -0.4375
vt 0.5000 0.5000 0.5000
vt 0.5000 0.8993 0.5000
vt 0.5000 0.9393 0.5000
vt 0.1373 1.0000 0.5000
vt 0.0000 1.0000 0.5000
vt 0.0000 1.0000 0.5625
vt 0.1373 1.0000 0.5625
vt 0.0000 0.9393 0.5625
vt 0.1373 0.9393 0.5625
vt 0.0000 0.9393 0.5000
vt 0.1373 0.5000 0.5000
vt 0.0000 0.5000 0.5000
vt 0.0000 0.8993 0.5000
vt 0.1373 0.8993 0.5000
vt 0.2173 1.0000 0.5000
vt 0.2173 1.0000 0.5625
vt 0.1373 0.9393 0.5000
vt 0.2173 0.9393 0.5625
vt 0.2173 0.5000 0.5000
vt 0.2173 0.8993 0.5000
vt 0.2173 0.9393 0.5000
vt 0.0000 0.8993 0.5625
vt 0.1373 0.8993 0.5625
vt 0.2173 0.8993 0.5625
vt 0.1373 0.9393 -0.4375
vt 0.2173 0.9393 -0.4375
vt 0.2173 0.8993 -0.4375
vt 0.1373 0.8993 -0.4375
vt 1.0000 0.5000 0.5625
vt 0.8627 0.5000 0.5625
vt 0.7827 0.5000 0.5625
vt 0.5000 0.5000 0.5625
vt 0.0000 0.5000 0.5625
vt 0.1373 0.5000 0.5625
vt 0.2173 0.5000 0.5625
vt 0.8627 0.0000 0.5000
vt 1.0000 0.0000 0.5000
vt 1.0000 0.0000 0.5625
vt 0.8627 0.0000 0.5625
vt 1.0000 0.0607 0.5625
vt 0.8627 0.0607 0.5625
vt 1.0000 0.0607 0.5000
vt 1.0000 0.1007 0.5000
vt 0.8627 0.1007 0.5000
vt 0.5000 0.0000 0.5000
vt 0.7827 0.0000 0.5000
vt 0.7827 0.0000 0.5625
vt 0.5000 0.0000 0.5625
vt 0.8627 0.0607 0.5000
vt 0.7827 0.0607 0.5625
vt 0.5000 0.0607 0.5625
vt 0.7827 0.1007 0.5000
vt 0.7827 0.0607 0.5000
vt 1.0000 0.1007 0.5625
vt 0.8627 0.1007 0.5625
vt 0.7827 0.1007 0.5625
vt 0.5000 0.1007 0.5625
vt 0.8627 0.0607 -0.4375
vt 0.7827 0.0607 -0.4375
vt 0.7827 0.1007 -0.4375
vt 0.8627 0.1007 -0.4375
vt 0.5000 0.1007 0.5000
vt 0.5000 0.0607 0.5000
vt 0.1373 0.0000 0.5000
vt 0.1373 0.0000 0.5625
vt 0.0000 0.0000 0.5625
vt 0.0000 0.0000 0.5000
vt 0.1373 0.0607 0.5625
vt 0.0000 0.0607 0.5625
vt 0.0000 0.0607 0.5000
vt 0.1373 0.1007 0.5000
vt 0.0000 0.1007 0.5000
vt 0.2173 0.0000 0.5625
vt 0.2173 0.0000 0.5000
vt 0.1373 0.0607 0.5000
vt 0.2173 0.0607 0.5625
vt 0.2173 0.1007 0.5000
vt 0.2173 0.0607 0.5000
vt 0.0000 0.1007 0.5625
vt 0.1373 0.1007 0.5625
vt 0.2173 0.1007 0.5625
vt 0.1373 0.0607 -0.4375
vt 0.1373 0.1007 -0.4375
vt 0.2173 0.1007 -0.4375
vt 0.2173 0.0607 -0.4375
# 114 texture coords

o DiningTable
g DiningTable
usemtl wire_154215229
s 2
f 1/1/1 2/2/1 3/3/1 
f 3/3/1 4/4/1 1/1/1 
s 1
f 3/3/2 2/2/2 5/5/2 
f 5/5/2 6/6/2 3/3/2 
s 4
f 4/4/3 3/3/3 6/6/3 
f 6/6/3 7/7/3 4/4/3 
s 1
f 8/8/4 9/9/4 10/10/4 
f 10/10/4 11/11/4 8/8/4 
s 2
f 12/12/1 13/13/1 14/14/1 
f 14/14/1 15/15/1 12/12/1 
s 1
f 4/4/4 7/7/4 16/16/4 
f 16/16/4 1/1/4 4/4/4 
f 13/13/2 17/17/2 18/18/2 
f 18/18/2 14/14/2 13/13/2 
f 11/11/4 10/10/4 19/19/4 
f 19/19/4 20/20/4 11/11/4 
s 2
f 1/1/1 15/15/1 14/14/1 
f 14/14/1 2/2/1 1/1/1 
s 1
f 15/15/4 1/1/4 16/16/4 
f 16/16/4 21/21/4 15/15/4 
f 2/2/2 14/14/2 18/18/2 
f 18/18/2 5/5/2 2/2/2 
f 22/22/2 6/6/2 5/5/2 
f 5/5/2 23/23/2 22/22/2 
s 4
f 8/8/3 7/7/3 6/6/3 
f 6/6/3 22/22/3 8/8/3 
s 1
f 18/18/2 17/17/2 24/24/2 
f 24/24/2 25/25/2 18/18/2 
f 11/11/4 16/16/4 7/7/4 
f 7/7/4 8/8/4 11/11/4 
f 18/18/2 25/25/2 23/23/2 
f 23/23/2 5/5/2 18/18/2 
f 26/26/4 27/27/4 28/28/4 
f 28/28/4 29/29/4 26/26/4 
s off
f 21/21/1 16/16/1 26/26/1 
f 26/26/1 29/29/1 21/21/1 
f 16/16/3 11/11/3 27/27/3 
f 27/27/3 26/26/3 16/16/3 
f 11/11/5 20/20/5 28/28/5 
f 28/28/5 27/27/5 11/11/5 
f 20/20/6 21/21/6 29/29/6 
f 29/29/6 28/28/6 20/20/6 
s 1
f 20/20/4 19/19/4 30/30/4 
f 30/30/4 31/31/4 20/20/4 
f 15/15/4 21/21/4 32/32/4 
f 32/32/4 12/12/4 15/15/4 
f 21/21/4 20/20/4 31/31/4 
f 31/31/4 32/32/4 21/21/4 
s 2
f 33/33/1 34/34/1 35/35/1 
f 35/35/1 36/36/1 33/33/1 
s 1
f 35/35/2 37/37/2 38/38/2 
f 38/38/2 36/36/2 35/35/2 
s 4
f 34/34/6 39/39/6 37/37/6 
f 37/37/6 35/35/6 34/34/6 
s 1
f 40/40/4 41/41/4 42/42/4 
f 42/42/4 43/43/4 40/40/4 
s 2
f 12/12/1 44/44/1 45/45/1 
f 45/45/1 13/13/1 12/12/1 
s 1
f 34/34/4 33/33/4 46/46/4 
f 46/46/4 39/39/4 34/34/4 
f 13/13/2 45/45/2 47/47/2 
f 47/47/2 17/17/2 13/13/2 
f 48/48/4 40/40/4 43/43/4 
f 43/43/4 49/49/4 48/48/4 
s 2
f 33/33/1 36/36/1 45/45/1 
f 45/45/1 44/44/1 33/33/1 
s 1
f 44/44/4 50/50/4 46/46/4 
f 46/46/4 33/33/4 44/44/4 
f 36/36/2 38/38/2 47/47/2 
f 47/47/2 45/45/2 36/36/2 
f 51/51/2 52/52/2 38/38/2 
f 38/38/2 37/37/2 51/51/2 
s 4
f 42/42/6 51/51/6 37/37/6 
f 37/37/6 39/39/6 42/42/6 
s 1
f 47/47/2 53/53/2 24/24/2 
f 24/24/2 17/17/2 47/47/2 
f 43/43/4 42/42/4 39/39/4 
f 39/39/4 46/46/4 43/43/4 
f 47/47/2 38/38/2 52/52/2 
f 52/52/2 53/53/2 47/47/2 
f 54/54/4 55/55/4 56/56/4 
f 56/56/4 57/57/4 54/54/4 
s off
f 50/50/1 55/55/1 54/54/1 
f 54/54/1 46/46/1 50/50/1 
f 46/46/6 54/54/6 57/57/6 
f 57/57/6 43/43/6 46/46/6 
f 43/43/5 57/57/5 56/56/5 
f 56/56/5 49/49/5 43/43/5 
f 49/49/3 56/56/3 55/55/3 
f 55/55/3 50/50/3 49/49/3 
s 1
f 30/30/4 48/48/4 49/49/4 
f 49/49/4 31/31/4 30/30/4 
f 44/44/4 12/12/4 32/32/4 
f 32/32/4 50/50/4 44/44/4 
f 50/50/4 32/32/4 31/31/4 
f 31/31/4 49/49/4 50/50/4 
s 4
f 8/8/3 22/22/3 58/58/3 
f 58/58/3 9/9/3 8/8/3 
s 1
f 22/22/2 23/23/2 59/59/2 
f 59/59/2 58/58/2 22/22/2 
f 23/23/2 25/25/2 60/60/2 
f 60/60/2 59/59/2 23/23/2 
f 25/25/2 24/24/2 61/61/2 
f 61/61/2 60/60/2 25/25/2 
s 4
f 51/51/6 42/42/6 41/41/6 
f 41/41/6 62/62/6 51/51/6 
s 1
f 52/52/2 51/51/2 62/62/2 
f 62/62/2 63/63/2 52/52/2 
f 53/53/2 52/52/2 63/63/2 
f 63/63/2 64/64/2 53/53/2 
f 24/24/2 53/53/2 64/64/2 
f 64/64/2 61/61/2 24/24/2 
s 2
f 65/65/5 66/66/5 67/67/5 
f 67/67/5 68/68/5 65/65/5 
s 1
f 67/67/2 69/69/2 70/70/2 
f 70/70/2 68/68/2 67/67/2 
s 4
f 66/66/3 71/71/3 69/69/3 
f 69/69/3 67/67/3 66/66/3 
s 1
f 72/72/4 73/73/4 10/10/4 
f 10/10/4 9/9/4 72/72/4 
s 2
f 74/74/5 75/75/5 76/76/5 
f 76/76/5 77/77/5 74/74/5 
s 1
f 66/66/4 65/65/4 78/78/4 
f 78/78/4 71/71/4 66/66/4 
f 77/77/2 76/76/2 79/79/2 
f 79/79/2 80/80/2 77/77/2 
f 73/73/4 81/81/4 19/19/4 
f 19/19/4 10/10/4 73/73/4 
s 2
f 65/65/5 68/68/5 76/76/5 
f 76/76/5 75/75/5 65/65/5 
s 1
f 75/75/4 82/82/4 78/78/4 
f 78/78/4 65/65/4 75/75/4 
f 68/68/2 70/70/2 79/79/2 
f 79/79/2 76/76/2 68/68/2 
f 83/83/2 84/84/2 70/70/2 
f 70/70/2 69/69/2 83/83/2 
s 4
f 72/72/3 83/83/3 69/69/3 
f 69/69/3 71/71/3 72/72/3 
s 1
f 79/79/2 85/85/2 86/86/2 
f 86/86/2 80/80/2 79/79/2 
f 73/73/4 72/72/4 71/71/4 
f 71/71/4 78/78/4 73/73/4 
f 79/79/2 70/70/2 84/84/2 
f 84/84/2 85/85/2 79/79/2 
f 87/87/4 88/88/4 89/89/4 
f 89/89/4 90/90/4 87/87/4 
s off
f 82/82/5 88/88/5 87/87/5 
f 87/87/5 78/78/5 82/82/5 
f 78/78/3 87/87/3 90/90/3 
f 90/90/3 73/73/3 78/78/3 
f 73/73/1 90/90/1 89/89/1 
f 89/89/1 81/81/1 73/73/1 
f 81/81/6 89/89/6 88/88/6 
f 88/88/6 82/82/6 81/81/6 
s 1
f 81/81/4 91/91/4 30/30/4 
f 30/30/4 19/19/4 81/81/4 
f 75/75/4 74/74/4 92/92/4 
f 92/92/4 82/82/4 75/75/4 
f 82/82/4 92/92/4 91/91/4 
f 91/91/4 81/81/4 82/82/4 
s 2
f 93/93/5 94/94/5 95/95/5 
f 95/95/5 96/96/5 93/93/5 
s 1
f 95/95/2 94/94/2 97/97/2 
f 97/97/2 98/98/2 95/95/2 
s 4
f 96/96/6 95/95/6 98/98/6 
f 98/98/6 99/99/6 96/96/6 
s 1
f 40/40/4 100/100/4 101/101/4 
f 101/101/4 41/41/4 40/40/4 
s 2
f 74/74/5 77/77/5 102/102/5 
f 102/102/5 103/103/5 74/74/5 
s 1
f 96/96/4 99/99/4 104/104/4 
f 104/104/4 93/93/4 96/96/4 
f 77/77/2 80/80/2 105/105/2 
f 105/105/2 102/102/2 77/77/2 
f 48/48/4 106/106/4 100/100/4 
f 100/100/4 40/40/4 48/48/4 
s 2
f 93/93/5 103/103/5 102/102/5 
f 102/102/5 94/94/5 93/93/5 
s 1
f 103/103/4 93/93/4 104/104/4 
f 104/104/4 107/107/4 103/103/4 
f 94/94/2 102/102/2 105/105/2 
f 105/105/2 97/97/2 94/94/2 
f 108/108/2 98/98/2 97/97/2 
f 97/97/2 109/109/2 108/108/2 
s 4
f 101/101/6 99/99/6 98/98/6 
f 98/98/6 108/108/6 101/101/6 
s 1
f 105/105/2 80/80/2 86/86/2 
f 86/86/2 110/110/2 105/105/2 
f 100/100/4 104/104/4 99/99/4 
f 99/99/4 101/101/4 100/100/4 
f 105/105/2 110/110/2 109/109/2 
f 109/109/2 97/97/2 105/105/2 
f 111/111/4 112/112/4 113/113/4 
f 113/113/4 114/114/4 111/111/4 
s off
f 107/107/5 104/104/5 111/111/5 
f 111/111/5 114/114/5 107/107/5 
f 104/104/6 100/100/6 112/112/6 
f 112/112/6 111/111/6 104/104/6 
f 100/100/1 106/106/1 113/113/1 
f 113/113/1 112/112/1 100/100/1 
f 106/106/3 107/107/3 114/114/3 
f 114/114/3 113/113/3 106/106/3 
s 1
f 30/30/4 91/91/4 106/106/4 
f 106/106/4 48/48/4 30/30/4 
f 103/103/4 107/107/4 92/92/4 
f 92/92/4 74/74/4 103/103/4 
f 107/107/4 106/106/4 91/91/4 
f 91/91/4 92/92/4 107/107/4 
s 4
f 72/72/3 9/9/3 58/58/3 
f 58/58/3 83/83/3 72/72/3 
s 1
f 83/83/2 58/58/2 59/59/2 
f 59/59/2 84/84/2 83/83/2 
f 84/84/2 59/59/2 60/60/2 
f 60/60/2 85/85/2 84/84/2 
f 85/85/2 60/60/2 61/61/2 
f 61/61/2 86/86/2 85/85/2 
s 4
f 108/108/6 62/62/6 41/41/6 
f 41/41/6 101/101/6 108/108/6 
s 1
f 109/109/2 63/63/2 62/62/2 
f 62/62/2 108/108/2 109/109/2 
f 110/110/2 64/64/2 63/63/2 
f 63/63/2 109/109/2 110/110/2 
f 86/86/2 61/61/2 64/64/2 
f 64/64/2 110/110/2 86/86/2 
# 224 faces

